<?xml version="1.0" encoding="UTF-8" standalone="no"?>

<svg
   xmlns:dc="http://purl.org/dc/elements/1.1/"
   xmlns:cc="http://creativecommons.org/ns#"
   xmlns:rdf="http://www.w3.org/1999/02/22-rdf-syntax-ns#"
   xmlns:svg="http://www.w3.org/2000/svg"
   xmlns="http://www.w3.org/2000/svg"
   version="1.1"
   width="300"
   height="106.57578"
   id="svg2">
  <title
     id="title2999">Apollo Tyres</title>
  <defs
     id="defs4" />
  <metadata
     id="metadata7">
    <rdf:RDF>
      <cc:Work
         rdf:about="">
        <dc:format>image/svg+xml</dc:format>
        <dc:type
           rdf:resource="http://purl.org/dc/dcmitype/StillImage" />
        <dc:title>Apollo Tyres</dc:title>
      </cc:Work>
    </rdf:RDF>
  </metadata>
  <g
     transform="translate(-99.682857,-517.81212)"
     id="layer1">
    <g
       transform="matrix(0.83533814,0,0,0.83533814,99.682857,517.81212)"
       id="g2987"
       style="fill:#52237f;fill-rule:evenodd;stroke:none">
      <path
         d="m 34.3438,30.7442 c 0,0 0,23.1123 0,23.1123 -0.0713,0 -0.0713,0 -0.0713,0 -5.545,0 -9.7207,4.3916 -9.7207,9.9355 0,5.3994 4.1757,9.792 9.7207,9.792 0,0 0,0 0.0713,0 0,0 0,23.4004 0,23.4004 C 15.2637,96.5518 0,82.9434 0,63.792 0,44.1358 15.0479,31.2481 34.3438,30.7442 z m 0,66.2402 c 0,0 0,-23.4004 0,-23.4004 5.6162,-0.0723 9.7919,-4.3926 9.7919,-9.792 0,-5.5439 -4.1757,-9.8642 -9.7919,-9.9355 0,0 0,-23.1123 0,-23.1123 0.3603,0 0.7919,0 1.2246,0 0,0 31.8955,0 31.8955,0 0,0 0,56.5205 0,56.5205 0,4.3193 0.1435,7.6308 1.4394,9.7197 0,0 -33.623,0 -33.623,0 -0.2881,0 -0.6485,0 -0.9365,0 z M 110.664,30.7442 c 0,0 0,23.1123 0,23.1123 0,0 0,0 -0.072,0 -5.472,0 -9.72,4.3916 -9.72,9.9355 0,5.3994 4.248,9.792 9.72,9.792 0.072,0 0.072,0 0.072,0 0,0 0,24.0479 0,24.0479 0,0 0,0 -0.072,0 -2.88,0 -5.112,-0.2159 -7.488,-0.8633 0,0 0,20.3754 0,20.3754 0,7.632 -3.6724,10.44 -9.7202,10.44 0,0 -16.0567,0 -16.0567,0 0,0 0,-87.1201 0,-87.1201 0,-5.0401 -0.1425,-7.6319 -1.5117,-9.7197 0,0 33.6246,0 33.6246,0 0.432,0 0.864,0 1.224,0 z m 0,66.8877 c 0,0 0,-24.0479 0,-24.0479 5.616,-0.0723 9.792,-4.3926 9.792,-9.792 0,-5.5439 -4.176,-9.8642 -9.792,-9.9355 0,0 0,-23.1123 0,-23.1123 19.296,0.5039 34.344,13.3916 34.344,33.0478 0,18.7197 -15.408,33.8399 -34.344,33.8399 z m 72.432,0.4326 c 0,0 0.072,0 0.072,0 0,0 0,-24.4805 0,-24.4805 0,0 -0.072,0 -0.072,0 -5.472,0 -9.648,-4.3926 -9.648,-9.792 0,-5.5439 4.176,-9.9355 9.648,-9.9355 0,0 0.072,0 0.072,0 0,0 0,-24.1924 0,-24.1924 0,0 -0.072,0 -0.072,0 -19.008,0 -34.2,14.9043 -34.2,34.1279 0,19.0078 15.192,34.2725 34.2,34.2725 z M 286.2,96.9844 c -1.368,-2.0889 -1.44,-5.4004 -1.44,-9.7197 0,0 0,-87.2647 0,-87.2647 0,0 -26.352,0 -26.352,0 0,0 0,86.6162 0,86.6162 0,7.6319 3.672,10.3682 9.72,10.3682 0,0 18.072,0 18.072,0 z m -53.208,0 c 0,0 18.072,0 18.072,0 -1.368,-2.0889 -1.44,-5.4004 -1.44,-9.7197 0,0 0,-87.2647 0,-87.2647 0,0 -26.352,0 -26.352,0 0,0 0,86.6162 0,86.6162 0,7.6319 3.672,10.3682 9.72,10.3682 z m 91.8,-67.3203 c 0,0 0,24.1924 0,24.1924 0,0 0,0 -0.072,0 -5.472,0 -9.72,4.3916 -9.72,9.9355 0,5.3994 4.248,9.792 9.72,9.792 0.072,0 0.072,0 0.072,0 0,0 0,24.4805 0,24.4805 0,0 0,0 -0.072,0 -19.08,0 -34.2,-15.2647 -34.2,-34.2725 0,-19.2236 15.12,-34.1279 34.2,-34.1279 0.072,0 0.072,0 0.072,0 z M 183.168,98.0645 c 19.224,-0.0723 34.272,-15.3369 34.272,-34.2725 0,-19.2236 -15.048,-34.1279 -34.272,-34.1279 0,0 0,24.1924 0,24.1924 5.616,0.0713 9.792,4.3916 9.792,9.9355 0,5.3994 -4.176,9.7197 -9.792,9.792 0,0 0,24.4805 0,24.4805 z m 141.624,0 c 0,0 0,-24.4805 0,-24.4805 5.616,-0.0723 9.792,-4.3926 9.792,-9.792 0,-5.5439 -4.176,-9.8642 -9.792,-9.9355 0,0 0,-24.1924 0,-24.1924 19.224,0 34.344,14.9043 34.344,34.1279 0,18.9356 -15.12,34.2725 -34.344,34.2725 z"
         id="path2989" />
    </g>
  </g>
</svg>
