<?xml version="1.0" encoding="utf-8"?>
<!-- Generator: Adobe Illustrator 26.0.3, SVG Export Plug-In . SVG Version: 6.00 Build 0)  -->
<svg version="1.0" id="Layer_1" xmlns="http://www.w3.org/2000/svg" xmlns:xlink="http://www.w3.org/1999/xlink" x="0px" y="0px"
	 viewBox="0 0 302 228" style="enable-background:new 0 0 302 228;" xml:space="preserve">
<style type="text/css">
	.st0{fill:#A2D10B;}
	.st1{fill:#FFFFFF;}
	.st2{fill:#18B325;}
	.st3{fill:#00874B;}
	.st4{fill:#4E4E4D;}
</style>
<path class="st0" d="M87.6,139.4c12.9,0,21.5-8.1,23.5-20.7l8.8-57H70.4c-13,0-21.5,8.1-23.5,20.7l-8.8,57H87.6z"/>
<path class="st1" d="M54.7,77.5h32.9c13.9,0,19.5,3.5,20.3,10.1c0.7,5.8-2.9,9.6-10.4,11.1h-0.1v0.1c6,0.9,10.3,5,10.8,9.2
	c1.3,11.1-10.5,15.4-24.5,15.4H47.1L54.7,77.5z M68.2,112.5h12.7c3.5,0,8.2-0.9,7.8-4.6c-0.4-3.4-4-3.9-8.1-3.9H69.7L68.2,112.5z
	 M71,95.4h11.1c3.1,0,7-0.8,6.6-3.7s-3-3.3-6.5-3.3H72.1L71,95.4z"/>
<path class="st2" d="M160.3,139.4c13,0,21.6-8.1,23.5-20.7l8.9-57h-49.6c-13,0-21.6,8.1-23.5,20.7l-8.8,57H160.3z"/>
<polygon class="st1" points="124.9,77.5 144.2,77.5 141.7,92.6 141.9,92.8 161.4,77.5 186.5,77.5 158.9,96.4 180.1,123.4 
	158.5,123.4 144.9,105.6 138.8,110 136.7,123.4 117.4,123.4 "/>
<path class="st3" d="M233.1,139.4c13,0,21.6-8.1,23.5-20.7l8.9-57h-49.6c-13,0-21.6,8.1-23.5,20.7l-8.9,57H233.1z"/>
<polygon class="st1" points="215.6,89.3 197.9,89.3 199.8,77.5 255.1,77.5 253.1,89.3 235.3,89.3 229.6,123.4 209.9,123.4 "/>
<path class="st4" d="M50.1,159.8l-1.4,6.1h-2.8l0.2-0.7c-1.1,0.7-2.4,1-3.7,1c-3.2,0-5.8-1.8-5.8-5.2c0-3.1,2.4-6.5,7.8-6.5
	c3.7,0,5.1,1.8,5.5,2.8c0.1,0.4,0.2,0.8,0.3,1.1l-3.7,0.1c-0.1-0.7-0.6-1.2-1.3-1.3c-0.8-0.2-1.7-0.2-2.4,0.1
	c-1.5,0.6-2.5,2.1-2.4,3.8c0,1.9,1.2,2.7,2.9,2.7c0.6,0,1.2-0.1,1.7-0.3c0.6-0.2,1.1-0.8,1.2-1.4h-3l0.5-2.2L50.1,159.8L50.1,159.8z
	"/>
<path class="st4" d="M53.7,154.8h7c1.3,0.1,4.2,0.1,4.2,3.2c0,0.6-0.1,1.1-0.4,1.6c-0.5,0.9-1.4,1.6-2.4,1.9l1.8,4.4h-4l-1.5-3.9
	h-2.5l-0.9,3.8h-3.9L53.7,154.8z M56.5,159.5c2.6,0,3.4,0,3.8-0.2c0.4-0.2,0.6-0.6,0.6-1c0-0.7-0.6-0.9-1.2-0.9H57L56.5,159.5z"/>
<path class="st4" d="M79,156.4c0.7,0.8,1.1,1.9,1.1,3c0,2.6-1.8,6.8-7.9,6.8c-1.8,0.1-3.6-0.5-5-1.7c-0.9-0.9-1.4-2.1-1.4-3.4
	c0-2.7,2.1-6.8,8-6.6C75.7,154.3,77.6,155,79,156.4 M69.8,161c-0.1,1.4,0.9,2.7,2.4,2.8c0.1,0,0.2,0,0.3,0c2.2,0,3.7-1.8,3.7-4.2
	c0.1-1.3-0.8-2.5-2.1-2.6c-0.1,0-0.3,0-0.4,0C71.5,157,69.8,158.8,69.8,161C69.8,161,69.8,161,69.8,161z"/>
<polygon class="st4" points="81.9,154.8 85.3,154.8 84.8,163 88.3,154.8 92,154.8 91.9,163.1 95,154.8 98.7,154.8 93.9,165.9 
	89.4,165.9 89.5,157.8 86,165.9 81.6,165.9 "/>
<polygon class="st4" points="100.2,154.8 104.2,154.8 101.6,165.9 97.6,165.9 "/>
<polygon class="st4" points="107,154.8 110.6,154.8 114.3,161.8 115.9,154.8 119.5,154.8 116.9,165.9 113.4,165.9 109.7,158.9 
	108.1,165.9 104.5,165.9 "/>
<path class="st4" d="M133.8,159.8l-1.4,6.1h-2.8l0.2-0.7c-1.1,0.7-2.4,1-3.8,1c-3.2,0-5.8-1.8-5.8-5.2c0-3.1,2.4-6.5,7.8-6.5
	c3.7,0,5.1,1.8,5.5,2.8c0.1,0.4,0.2,0.7,0.3,1.1l-3.7,0.1c-0.1-0.7-0.6-1.2-1.3-1.3c-0.8-0.2-1.7-0.2-2.4,0.1
	c-1.5,0.6-2.5,2.2-2.4,3.8c0,1.9,1.2,2.7,2.9,2.7c0.6,0,1.2-0.1,1.7-0.3c0.6-0.2,1.1-0.8,1.2-1.4h-3.1l0.5-2.2L133.8,159.8
	L133.8,159.8z"/>
<polygon class="st4" points="141.8,154.8 153.9,154.8 153.3,157.3 149.3,157.3 147.3,165.9 143.3,165.9 145.3,157.3 141.2,157.3 "/>
<path class="st4" d="M166,156.4c0.7,0.8,1,1.9,1,3c0,2.6-1.8,6.8-7.9,6.8c-1.8,0.1-3.6-0.5-5-1.7c-0.9-0.9-1.4-2.1-1.4-3.4
	c0-2.7,2.1-6.8,8-6.6C162.7,154.4,164.6,155.1,166,156.4 M156.8,161c-0.1,1.4,0.9,2.7,2.3,2.8c0.1,0,0.2,0,0.3,0
	c2.2,0,3.7-1.8,3.7-4.2c0.2-1.3-0.8-2.5-2.1-2.7c-0.2,0-0.4,0-0.5,0c-2.1,0-3.8,1.8-3.8,3.9C156.8,160.9,156.8,160.9,156.8,161z"/>
<path class="st4" d="M181.7,159.8l-1.4,6.1h-2.8l0.2-0.7c-1.1,0.7-2.4,1-3.8,1c-3.2,0-5.8-1.8-5.8-5.2c0-3.1,2.4-6.5,7.8-6.5
	c3.7,0,5.1,1.8,5.5,2.8c0.1,0.4,0.2,0.7,0.3,1.1l-3.7,0.1c-0.1-0.7-0.6-1.2-1.3-1.3c-0.8-0.2-1.7-0.2-2.4,0.1
	c-1.5,0.6-2.5,2.1-2.4,3.8c0,1.9,1.2,2.7,2.9,2.7c0.6,0,1.2-0.1,1.7-0.3c0.6-0.2,1.1-0.8,1.2-1.4h-3l0.5-2.2L181.7,159.8
	L181.7,159.8z"/>
<polygon class="st4" points="185.3,154.8 196.7,154.8 196.2,157.3 188.7,157.3 188.3,159.1 195.4,159.1 194.8,161.6 187.7,161.6 
	187.3,163.4 195.3,163.4 194.7,165.9 182.8,165.9 "/>
<polygon class="st4" points="197.6,154.8 209.6,154.8 209.1,157.3 205,157.3 203.1,165.9 199.1,165.9 201.1,157.3 197,157.3 "/>
<polygon class="st4" points="210.8,154.8 214.7,154.8 213.8,158.9 218.6,158.9 219.6,154.8 223.6,154.8 221,165.9 217,165.9 
	218,161.7 213.1,161.7 212.1,165.9 208.2,165.9 "/>
<polygon class="st4" points="226.4,154.8 237.8,154.8 237.2,157.3 229.8,157.3 229.3,159.1 236.5,159.1 235.9,161.6 228.8,161.6 
	228.4,163.4 236.4,163.4 235.8,165.9 223.8,165.9 "/>
<path class="st4" d="M240.4,154.8h7c1.2,0.1,4.1,0.1,4.1,3.2c0,0.6-0.1,1.1-0.4,1.6c-0.5,0.9-1.4,1.6-2.5,1.9l1.8,4.4h-4l-1.4-3.9
	h-2.4l-0.9,3.9h-3.9L240.4,154.8z M243.2,159.5c2.6,0,3.4,0,3.8-0.2c0.4-0.2,0.6-0.6,0.6-1c0-0.7-0.6-0.9-1.1-0.9h-2.7L243.2,159.5z
	"/>
</svg>
