<svg xmlns="http://www.w3.org/2000/svg" viewBox="0 0 209.46 38.06"><title>Continental AG logo</title><path d="M474.92,522.39v-1.82h1.73V504.78h-1.73V503h7.87v17.57h1.82v1.82Zm92.78-2.3a5.93,5.93,0,0,1-5.09,2.69c-3.17,0-5.09-2.69-5.09-6,0-3.84,2.78-6.34,7.2-6.34a8.11,8.11,0,0,1,2.78.38v-1.25a3.28,3.28,0,0,0-3.55-3.55,5.4,5.4,0,0,0-4.41,2.3L558.49,507a9.22,9.22,0,0,1,7.68-4.42c4.7,0,7.48,2.78,7.48,7v10.94h2v1.82h-7.87l-.1-2.3Zm-.19-7.3a1.77,1.77,0,0,0-1.34-.38c-1.82,0-2.21,1.82-2.21,3.65s.58,3.26,2.11,3.26a1.6,1.6,0,0,0,1.44-.58Zm16.41,7.78h2.4v1.82h-8.54V497.67h-2.11v-1.82H584v24.76ZM470.69,504.73V519a1.15,1.15,0,0,0,1.25,1.25,4.16,4.16,0,0,0,1.15-.19v1.73a7.06,7.06,0,0,1-3.74.77c-3,0-4.8-1.44-4.8-4.61v-13.2h-2v-1.25c2.3-1.82,5-3.94,7.1-5.66h1.1V503h2.4v1.73Zm5.28-6.91c0,1.73,1.54,2.88,3.74,2.88s3.74-1.15,3.74-2.88-1.54-2.88-3.74-2.88-3.74,1.25-3.74,2.88M454,509c0-1.73-.58-3.07-2-3.07s-2.11,1.34-2.11,3.07v11.42h1.68v1.82h-9.64v-1.82h1.82V504.78h-1.82V503h7.58v3h.1a5.54,5.54,0,0,1,5.09-3.36,4.87,4.87,0,0,1,5.09,4,18.47,18.47,0,0,1,.29,3.17v10.75h2.3v1.82H453.9V509.1Zm-33.2,3.7c0,5.86,3.55,10.65,9.79,10.65s9.79-4.8,9.79-10.65-3.55-10.7-9.79-10.7-9.79,4.8-9.79,10.65m7.2,0c0-6,.58-8.54,2.59-8.54s2.59,2.59,2.59,8.54-.58,8.54-2.59,8.54S428,518.6,428,512.65m85.49-1c0-5.09.38-7,2.11-7s2.11,1.82,2.21,7Zm8.92,5.57a4.91,4.91,0,0,1-4.22,1.82c-1.73,0-4.51-1-4.61-5.47h10.36c0-.38.1-1.06.1-1.44,0-5.47-2.21-9.5-8.06-9.5s-8.83,4.51-8.83,10.08,3,10,8.83,10a7.92,7.92,0,0,0,7.58-4.51ZM433.08,493s4.7,4.7,6.81,7.1v1.82a15,15,0,0,0-10-3.94c-8.73,0-14.2,6.62-14.2,14.78s5.18,14.69,14.2,14.69A13.75,13.75,0,0,0,440,523.16v1.73c-2.69,3.74-7.68,6.14-13.91,6.14-11.13.1-18.81-8-18.81-18.24a18.56,18.56,0,0,1,18.81-18.43,22.15,22.15,0,0,1,7,1.15Zm121,11.76V519a1.15,1.15,0,0,0,1.25,1.25,4.16,4.16,0,0,0,1.15-.19v1.73a7.06,7.06,0,0,1-3.74.77c-3,0-4.8-1.44-4.8-4.61v-13.2h-2v-1.25c2.3-1.82,5-3.94,7.1-5.66h1.15V503h2.93v1.73ZM498.14,509c0-1.73-.58-3.07-2-3.07S494,507.32,494,509v11.42h1.73v1.82H486v-1.82h1.82V504.78H486V503h7.58v3h.1a5.54,5.54,0,0,1,5.09-3.36,4.87,4.87,0,0,1,5.09,4,18.47,18.47,0,0,1,.29,3.17v10.75h2.3v1.82H498l.1-13.34Zm39.24,0c0-1.73-.58-3.07-2-3.07s-2.11,1.34-2.11,3.07v11.42H535v1.82h-9.69v-1.82h1.82V504.78h-1.82V503h7.58v3h.1a5.54,5.54,0,0,1,5.09-3.36,4.87,4.87,0,0,1,5.09,4,18.47,18.47,0,0,1,.29,3.17v10.75h2.3v1.82h-8.44l.1-13.34m73.5,1.1a12.51,12.51,0,0,0-.67-1.82s.1-.1.38,0a17.8,17.8,0,0,1,1.73,1.15c.77,1.06,1.25,5.66,1.25,7.29a8.33,8.33,0,0,1-2.3-1.44Zm-4.32-4.22a42.77,42.77,0,0,1-3.26-4,11.45,11.45,0,0,0,.77-5.66,14.7,14.7,0,0,0-1.34-2c-.19-.29-1.06-1.25-1.44-1.25-.1,0-.19,0-.19.1l.1,1.06c-1.25.77-2.69,1.73-3.93,2.69a3.94,3.94,0,0,0,.1,1.15,2.39,2.39,0,0,0,.67.38,24.54,24.54,0,0,1,2.59-.48l-1.63,2.4-1.92,1.34-2.3-.77c-.19,0-.29,0-.38.1l-1.73,1.82a.48.48,0,0,0-.19.38l-.1,2v.67A3.41,3.41,0,0,0,593,508l1.06-1.63a4.14,4.14,0,0,1-.48-1.15v-1.73l1.06-.77,2.88,2a14.46,14.46,0,0,0,1.54,2.3,27.17,27.17,0,0,0,4.13,3,12.25,12.25,0,0,0,.58,2.21l3.45,3.55-2,2.59a2.37,2.37,0,0,0-1.34,2.11h2.4l.29-1.34,2.88-3.17c.19-.19.19-.29.1-.48l-.77-2.69a4.94,4.94,0,0,0,1.25-3c0-2.59-2.59-3.26-3.45-4Zm-13-5.18c-.1,0-2.21.58-2.21.58A13.52,13.52,0,0,0,590,502c-.48.29-1,.77-1,1.06l1.92.48a7.32,7.32,0,0,1,.86-.86l.48-.19,1.54-1.63c.1-.1.1-.19-.24-.1Zm9,16.32,2.69-2.59,1.06,1.06-2.88,2.4c-.19.29-.38.77-.58,1.06H600.8A3.45,3.45,0,0,1,602.62,517.06Zm14.1,5.38H588.42v-1h28.31Z" transform="translate(-407.27 -492.97)"/></svg>