<svg xmlns="http://www.w3.org/2000/svg" viewBox="0 0 164.72 22.41"><title>Fulda Reifen logo</title><path d="M449.17,500.79c0,10.07-6.23,20.35-16.45,21.69-1.73.23,3.22.23,4.94,0,10.23-1.34,16.45-11.61,16.45-21.69Z" transform="translate(-429.64 -500.79)" style="fill:#231f20"/><path d="M458.83,500.79c0,10.07-6.22,20.35-16.45,21.69-1.73.23,3.22.23,4.94,0,10.23-1.34,16.45-11.61,16.45-21.69Z" transform="translate(-429.64 -500.79)" style="fill:#231f20"/><path d="M429.64,500.79v21.69c10.23-1.34,16.43-11.61,16.43-21.69Z" transform="translate(-429.64 -500.79)" style="fill:#231f20"/><path d="M456.19,522.43c8.33-1.8,14.8-10.89,14.82-21.63l17.85,0v5.38h-9.54V510l8.31,0v5.24h-8.31v7.18Z" transform="translate(-429.64 -500.79)" style="fill:#ec1c24"/><path d="M490.45,513.64c0,3.39.62,5.26,2,6.72,2.07,2.26,5.86,2.84,10.47,2.84s8.41-.58,10.47-2.84c1.33-1.46,2-3.33,2-6.72V500.79h-8.56v11.78c0,4.1-1.18,5.38-3.78,5.38s-3.78-1.28-3.78-5.38V500.79h-8.73Z" transform="translate(-429.64 -500.79)" style="fill:#ec1c24"/><path d="M574.79,514.32l3.19-7.19,3,7.19Zm-12.42,8.19h8.82l1.48-3.24h10.41l1.39,3.24h9.88L583.8,500.79H572.93Z" transform="translate(-429.64 -500.79)" style="fill:#ec1c24;fill-rule:evenodd"/><polygon points="88.27 21.63 106.4 21.63 106.4 15.96 97.21 15.96 97.21 0 88.27 0 88.27 21.63" style="fill:#ec1c24"/><path d="M546.64,506h2.28c3.75,0,6,1.77,6,5.63s-2.25,5.63-6,5.63h-2.28Zm-8.89,16.41h12.54c6.37,0,8.65-.77,11.08-2.81,1.8-1.5,2.8-4.6,2.8-7.78a10.92,10.92,0,0,0-2.51-7.46c-2.83-3-6.77-3.58-12.85-3.58H537.75Z" transform="translate(-429.64 -500.79)" style="fill:#ec1c24;fill-rule:evenodd"/></svg>