<?xml version="1.0" encoding="utf-8"?>
<!-- Generator: Adobe Illustrator 25.0.0, SVG Export Plug-In . SVG Version: 6.00 Build 0)  -->
<svg version="1.1" id="katman_1" xmlns="http://www.w3.org/2000/svg" xmlns:xlink="http://www.w3.org/1999/xlink" x="0px" y="0px"
	 viewBox="0 0 2500 1536" style="enable-background:new 0 0 2500 1536;" xml:space="preserve">
<style type="text/css">
	.st0{fill-rule:evenodd;clip-rule:evenodd;fill:#28539C;}
</style>
<g>
	<path class="st0" d="M189.2,763.6c14.6-41.4,55-81.3,99.7-88.1c37.3-5.2,73.2-6.8,99.9,13.1C381.9,703,374,718,374,718
		s-11.7-7.3-18.7-9.1c-14.1-6.2-35-7.9-48.1,2.5l-5.6,9.1L271,836.6c-0.5,3.7-0.8,8.8,1.8,12.1c7.2,7.2,19.3,2.7,28.9,4.1l3.2-3.2
		l20.8-77.4l89.3,0.7l1.1,1.9c-8.6,34.5-16.2,69.2-26,103.1l-1.9,1.9l-140.4-0.6c-21.4,1-41.7-7.7-52.1-24.8
		c-0.8-5.4-6.7-8.3-6.4-14.2h-1.3C182.1,816.5,182.4,786.6,189.2,763.6L189.2,763.6z M1243.7,762.7c13.3,25.7,29.5,55.3,41.5,81.3
		l-1.4,3.8c-35.7,35.2-71.1,81.3-119,94c-4.5,0.5-5.9-3-6.9-6.5c0.6-24.3,27.1-36.3,37.3-56.8c9.7-17.6,11.9-38.5,20.8-56.6
		c8.1-19,14.6-38.5,25-56.4L1243.7,762.7L1243.7,762.7z"/>
	<path class="st0" d="M1167.5,952.2c79.2-27.3,125.5-119.7,200.7-159.8c7-3.5,12.6-9.9,20.3-10.9c2.7,3.2,5.9,6.4,5.9,11
		c-53,30.3-100.8,78.9-145.3,123.9c-23,21.3-48.8,36.2-76.1,47.4C1170.2,960.3,1169.1,956.2,1167.5,952.2L1167.5,952.2z
		 M1221.6,663.6c27.3-17.1,55.3-32.9,84.1-47.4c-3,13.9-5.2,30.8-0.7,45.5l-1.3,2.7l-59.2,33.8l-3.7,0
		c-7.4-10.3-14.3-21.1-20.5-32.1L1221.6,663.6L1221.6,663.6z M1248.9,711.8c19.3-0.5,34.7,3.2,50.8,4.4v2.2
		c-16.9,9.3-34,19.7-51.4,25.5C1248.6,733.2,1250.8,722.5,1248.9,711.8z M1252.8,757.8c19.6-11.4,39.4-23.1,60.3-31.9
		c5.4,14.9,14.2,28.4,25.5,39.4c12.3-4.3,14.5-18.9,25.2-24.3l19.2,30l-0.8,2.1c-29.2,18.3-59.2,37.5-86,63.1h-2.7
		C1279.1,810.6,1265.1,784.6,1252.8,757.8L1252.8,757.8z M1313.2,673.5l-1.9,29.9c-13.1,1.4-29.7,0.3-46.3-1.2l-1.3-1.3l46.4-27.4
		H1313.2z M1427.4,671.9h92l22.8,68.6c0,0,0.8,1.1,1.3,1.9c21.2-20.2,58-70.5,58-70.5h48.7v3.2l-92.1,115.5c0,0-15.4,57.4-24,86.6
		l-7,1.9h-90.6l-1.1-1.9l21.4-87.7L1421,675.1C1421,675.1,1425.6,673.8,1427.4,671.9L1427.4,671.9z M1668.1,673.5l2.2-1.3l164.7-0.4
		c1.6-0.3,4,1.7,4,1.7l-7.8,35.9l-74.3-0.2l-3.2,5.6l-7.9,39.8l1.9,1.3l44.9-0.8l-9.2,40.7l-49.2,0.4c0,0-7.8,29.7-10.6,44.9
		l1.9,1.3l69.5,0.2l1.9,1.3c-0.8,12.3-5.7,21.7-8.4,33.2l-4.6,1.9l-165,0.7L1668.1,673.5L1668.1,673.5z M515.9,683.3
		c39.3-21.2,94-17.2,127.3,4.1c28.5,24.4,36.2,62.9,27.3,98.2c-11.4,41.7-47.1,86.2-91.5,95.4c-41.2,10.6-90.4,5.9-117.3-28.7
		c-24.8-30-19.3-80-1.5-112.3C471.1,716.3,493.1,695.8,515.9,683.3L515.9,683.3z M529.6,832.8c-1.9,6.1-2.2,14.7,2.6,19.8
		c4.3,2.7,9.9,4.3,15.2,2.7c5.1-2.1,11-5.3,13.7-10.9c11.1-36.1,17.1-74.3,27.3-110.9c0-9.9,10.4-23.1-1.9-29
		c-8.8-2.2-18.6-1-24.5,5.7c-8.1,17.6-10.3,37.4-15.4,55.9C541.8,788.7,535.3,810.6,529.6,832.8L529.6,832.8z M757.8,690.4
		c38.7-25.4,92.2-29.1,131-11.4c30.5,14.8,41.3,47.4,42.8,79.3c-0.9,47.6-29.1,92.1-70.9,113.1l-27.1,10.9c-38.8,5-81.3,3-109-26
		c-25.9-25.7-27.9-69-16.5-101.9C715.2,728.5,735.6,705.9,757.8,690.4L757.8,690.4z M788.1,848.3c4.5,3,10.4,5.1,16,3.3
		c6-2.4,11-6.7,14.2-12.3l18.1-75.6c1.1-4,0.8-9.3,2.7-12c2.2-15.7,10.4-29,9.1-45c-2.1-2.1-4.4-7.1-7.6-7.6
		c-8-1.9-15.8-0.1-21.1,5.5c-13.7,38.7-19.8,80.7-30.6,120.8C788.4,832.8,783.8,841,788.1,848.3L788.1,848.3z M986.5,673.7l5.3-1.3
		l136.6-0.1c21.9,3,42.2,24.2,50.4,45.1c14.6,45.5-3.5,91.7-32.5,126.1c-22,22.1-48.2,35.8-79.8,35.8c-49.3,0-128.3-0.2-128.3-0.2
		S977.3,710.1,986.5,673.7L986.5,673.7z M1036.5,846.3c6.4,4.3,14.2,0.6,21.1,0.8c6.4-1.6,9.1-7.2,12.3-12.2
		c0,0,33.6-117.9,27.8-126.3c-6.1-6.2-15-3.9-26.1-3.9c-0.8,2.1-1.3,4.3-1.9,6.4L1036.5,846.3L1036.5,846.3z"/>
	<path class="st0" d="M1334.1,595.8c30.8-26.4,74.4-17.4,115-18.1c50.8,5.7,107.2,4,157.3-5.4c1.3,15.5-10.8,29.1-23.9,37.1
		c-35.3,18.9-80,12.3-120.1,10.1l0,2.4l16.6,6.5c-0.3,5.4-6.2,8.3-10.2,10.4c-6.4,2.7-14.2,2.4-20.6,5c1.9,2.4,7.2,0.6,6.4,5.1
		c-11.8,13.1-31.8,13-46.8,6.8l-1.9,2.1c0.5,12.9-0.1,27-7.3,37.7c-5.1,0.8-8-3.8-12-5.7c-3.2,8-1.9,19.2-8.1,26.2
		c-5.3-0.3-9.6-7.3-14.4-9.1c-5.9,12.8-9.5,26.7-18.8,37.9c-9.6-0.6-14.4-12.3-18.4-19.9c-3.4-15.5-4.7-34.2-1.2-50.3
		c-9.3-14.5-16.5-33.2-9.5-51.4C1318.5,612.9,1325.5,602.7,1334.1,595.8L1334.1,595.8z M1349.4,651.2l-12.8-1.4l1,2.4
		c9.4,0.8,7.6,13.3,15.3,15.4L1349.4,651.2l6.5-30.2c4.5,2.4,11.5,3.8,16.6,1.4c4.6-7,14.1-6.2,21.8-6.5c6.4-1.3,5.8-13.8,14.1-10.3
		c3-0.8,8-2.9,7.8-5.6c-8.6,4.8-18.4-7.5-23.8,3.1c-5.1,4.5-13.1,4.2-19.2,5c-2.2,7.5-10.2,12-17.2,12.8L1349.4,651.2z
		 M1926.1,671.8l81.5,0l3.2,3.5l21.3,203.9c0,1.1-92.5,0-92.5,0L1936,847l-70.6,0.4l-20.7,31.7l-41.7,0.2
		C1803,879.3,1906.5,702.7,1926.1,671.8L1926.1,671.8z M1888,810l42.8,0l-6.3-61.9L1888,810z M2102.5,674l2.7-1.9l162.3-0.1
		c18.4,0.6,31.8,14.3,41.1,29c11.2,18.8,9.2,44.7-1,63.4c-8.1,14.9-22.8,28.8-37.3,37.8c4.7,23.8,10.4,47.4,15.8,71.7
		c0.8,3.2-0.8,5.3-3.8,5.1l-90.6,0.5l-3.2-1.9l-16.4-58.3c-1.3-2.4-4.3-1.1-6.4-1.3l-2.7,3.7l-14.9,55.4l-2.7,2.1l-92.2,0.3
		c-1.6-4.3-0.2-6.9,1.4-10.9C2070.6,803.9,2087.7,738.9,2102.5,674L2102.5,674z M2174.7,779.6c3.5,3.2,11.9,3.1,16.7,2.6
		c4.8-1.6,8.7-6.8,11.1-11.6l13-50.5c2.7-5.1,0.9-11.5-2.6-15.5c-5.3-3-14.4-3-19.8-0.1L2174.7,779.6L2174.7,779.6z"/>
</g>
</svg>
