<?xml version="1.0" encoding="UTF-8" standalone="no"?>

<svg
   xmlns:svg="http://www.w3.org/2000/svg"
   xmlns="http://www.w3.org/2000/svg"
   version="1.0"
   width="1024"
   height="122"
   viewBox="0 0 232.52 27.68"
   id="svg4367">
  <defs
     id="defs4369" />
  <g
     transform="translate(101.83143,-0.8742857)"
     id="layer1">
    <path
       d="M -101.83143,13.876786 C -88.357679,13.876786 -81.477679,8.5292857 -81.412679,0.87428571 L -74.810179,0.87428571 C -74.630179,7.5842857 -77.828929,12.655536 -83.072679,15.948036 C -75.943929,13.758036 -71.213929,7.6305357 -71.513929,0.87428571 L -64.911429,0.87428571 C -64.305179,8.4730357 -67.962679,15.683036 -74.858929,20.003036 C -66.663929,18.243036 -60.820179,9.0717857 -61.615179,0.87428571 L -54.872679,0.87428571 C -53.486429,11.325536 -60.158929,28.554286 -79.937679,28.554286 C -87.187679,22.178036 -91.826429,19.324286 -101.83143,13.876786"
       style="fill:#f35c19;fill-opacity:1;fill-rule:nonzero;stroke:none"
       id="path3573" />
    <path
       d="M 19.497321,3.9192857 C 15.636071,3.9192857 12.671071,5.1930357 10.722321,6.5892857 L 11.543571,4.3342857 L 3.0960714,4.3342857 L -4.4651786,25.093036 L 3.9823214,25.093036 L 8.5210714,12.634286 C 9.0785714,11.108036 10.352321,9.8705357 11.881071,9.8705357 L 13.959821,9.8705357 C 15.484821,9.8705357 15.859821,11.103036 15.309821,12.624286 L 10.768571,25.093036 L 19.216071,25.093036 L 24.507321,10.568036 C 25.533571,7.7505357 25.082321,3.9192857 19.497321,3.9192857 M -12.255179,16.816786 C -13.218929,16.353036 -14.851429,16.170536 -16.200179,16.170536 C -18.428929,16.170536 -19.991429,17.019286 -20.488929,18.385536 C -20.986429,19.750536 -20.042679,20.599286 -17.812679,20.599286 C -16.463929,20.599286 -14.628929,20.221786 -13.270179,19.603036 L -12.255179,16.816786 z M -1.6314286,10.845536 L -6.8214286,25.093036 L -15.268929,25.093036 L -14.757679,23.688036 C -17.155179,24.808036 -19.958929,25.509286 -22.553929,25.509286 C -28.170179,25.509286 -29.560179,22.505536 -28.211429,18.800536 C -26.680179,14.599286 -22.536429,11.675536 -16.822679,11.675536 C -16.822679,11.675536 -14.202679,11.624286 -10.782679,12.775536 L -10.230179,11.260536 C -9.7514286,9.9455357 -10.338929,8.9630357 -14.565179,8.9630357 C -17.557679,8.9630357 -21.151429,10.504286 -21.151429,10.504286 L -22.227679,5.8580357 C -22.227679,5.8580357 -16.558929,3.9192857 -10.570179,3.9192857 C -2.1114286,3.9192857 -0.32392857,7.2555357 -1.6314286,10.845536 M 88.727321,9.5980357 C 85.408571,9.5980357 83.431071,11.890536 82.401071,14.719286 C 81.251071,17.876786 81.678571,19.839286 84.997321,19.839286 C 88.316071,19.839286 90.293571,17.546786 91.323571,14.719286 C 92.473571,11.560536 92.046071,9.5980357 88.727321,9.5980357 M 99.328571,14.714286 C 96.588571,22.238036 91.496071,25.508036 82.932321,25.508036 C 75.547321,25.508036 72.227321,20.675536 74.398571,14.714286 C 76.929821,7.7655357 82.946071,3.9192857 90.796071,3.9192857 C 98.181071,3.9192857 101.50107,8.7517857 99.328571,14.714286 M 62.133571,9.5980357 C 58.814821,9.5980357 56.837321,11.890536 55.807321,14.719286 C 54.657321,17.876786 55.084821,19.839286 58.403571,19.839286 C 61.722321,19.839286 63.699821,17.546786 64.729821,14.719286 C 65.879821,11.560536 65.453571,9.5980357 62.133571,9.5980357 M 72.734821,14.714286 C 69.994821,22.238036 64.903571,25.508036 56.338571,25.508036 C 48.952321,25.508036 45.633571,20.675536 47.804821,14.714286 C 50.336071,7.7655357 56.352321,3.9192857 64.202321,3.9192857 C 71.588571,3.9192857 74.907321,8.7517857 72.734821,14.714286 M 130.68857,4.3342857 L 119.88357,4.3342857 L 111.14732,10.003036 L 113.21232,4.3342857 L 104.77357,4.3342857 L 97.212321,25.093036 L 105.65107,25.093036 L 108.05107,18.504286 L 110.44482,17.005536 L 113.96107,25.093036 L 123.93357,25.093036 L 117.44732,12.623036 L 130.68857,4.3342857 z M 55.048571,4.3342857 L 44.244821,4.3342857 L 35.508571,10.003036 L 37.572321,4.3342857 L 29.134821,4.3342857 L 21.572321,25.093036 L 30.012321,25.093036 L 32.412321,18.504286 L 34.804821,17.005536 L 38.322321,25.093036 L 48.294821,25.093036 L 41.808571,12.623036 L 55.048571,4.3342857 z M -24.882679,4.3342857 L -32.443929,25.093036 L -40.891429,25.093036 L -37.766429,16.514286 L -44.552679,16.514286 L -47.677679,25.093036 L -56.125179,25.093036 L -48.563929,4.3342857 L -40.116429,4.3342857 L -42.837679,11.809286 L -36.051429,11.809286 L -33.330179,4.3342857 L -24.882679,4.3342857 z "
       style="fill:#231f20;fill-opacity:1;fill-rule:nonzero;stroke:none"
       id="path3575" />
  </g>
</svg>
