<svg xmlns="http://www.w3.org/2000/svg" viewBox="0 0 188.92 47.99"><title>KLEBER tyres logo</title><path d="M525.57,499.52l7.81,3.08,20.79-10.35-7.87-3.08a6.5,6.5,0,0,0-2.36-.6,4.91,4.91,0,0,0-2.18.65l-16.28,8.09a1.15,1.15,0,0,0,.1,2.22m44.89,6.7a6.69,6.69,0,0,0,2.37.59,4.84,4.84,0,0,0,2.17-.63l16.27-7.93a1.18,1.18,0,0,0,.84-1.08c0-.46-.29-.85-.92-1.09l-7.83-3L562.6,503.22l7.86,3Zm-25.58.56a6.68,6.68,0,0,0,2.36.59,4.71,4.71,0,0,0,2.18-.64l30.61-15-8.13-3.09a6.79,6.79,0,0,0-2.36-.59,4.88,4.88,0,0,0-2.18.64l-30.63,15,8.15,3.09Z" transform="translate(-417.54 -488)" style="fill:#e40521;fill-rule:evenodd"/><path d="M458.9,533.44c.37.37.72.7.41,1.28s-1.36.43-1.36.43H441.54c-2.56-2.95-8.45-11.29-8.45-11.29H433v11.29H417.54V504.56H433v11.07h.13l8.12-11.07h15.2s.56,0,.64.42a1.12,1.12,0,0,1-.35.93l-10.43,12.15s8.87,11.61,12.64,15.38" transform="translate(-417.54 -488)" style="fill:#1d1d1b;fill-rule:evenodd"/><path d="M477.19,535.15s1,.07,1.23-.43,0-.89-.42-1.18c0,0-4.73-1.83-4.73-10.63V504.56h-15v19.35c0,5.57,2.26,11.23,8.95,11.23Z" transform="translate(-417.54 -488)" style="fill:#1d1d1b;fill-rule:evenodd"/><path d="M530.52,509.59a24.88,24.88,0,0,0-5.84,1v-6H509.75v30.59H526.9c11.22,0,16.58-6.93,16.58-13.55,0-6-4.46-12-13-12Zm.94,13.2c0,3.31-1.8,4.89-3.55,4.89s-3.61-1.58-3.61-4.77v-.85c0-3.32,1.8-4.89,3.55-4.89s3.6,1.57,3.6,4.77Zm72.41.18a1.47,1.47,0,0,0,1,.18.8.8,0,0,0,.64-.88l1-11.63a13.37,13.37,0,0,0-3.6-.45,14.89,14.89,0,0,0-9.81,3.44h-.28l-.69-2.95H578.91v24.48h15V524a5.32,5.32,0,0,1,4.73-2.62,9.72,9.72,0,0,1,5.21,1.64m-27.32,3.89a40.52,40.52,0,0,1-11.39,1.92c-2.49,0-6.58-.92-6.58-4a14.33,14.33,0,0,0,5,.72c5.81,0,13-1.92,13-7.17s-6.85-8.77-14.33-8.77c-8.4,0-17.28,4.27-17.28,13.35,0,9.53,9.07,13,18,13a41.68,41.68,0,0,0,13.25-2l.55-7ZM557.89,518c0-1.49,2.41-2.27,4.72-2.27s4.45.69,4.45,2c0,1.54-2.45,2.27-4.76,2.27S557.89,519.33,557.89,518Zm-61.7,10.78c-2.5,0-6.56-.92-6.56-4a14.21,14.21,0,0,0,4.93.72c5.79,0,12.94-1.92,12.94-7.17s-6.83-8.77-14.3-8.77c-8.36,0-17.19,4.27-17.19,13.35,0,9.53,9,13,17.91,13a38.47,38.47,0,0,0,12.75-2l.55-7-.13-.14a37.14,37.14,0,0,1-10.9,1.91M489,518c0-1.49,2.4-2.27,4.71-2.27s4.43.68,4.43,2c0,1.54-2.44,2.27-4.75,2.27s-4.39-.68-4.39-2" transform="translate(-417.54 -488)" style="fill:#1d1d1b;fill-rule:evenodd"/></svg>