<?xml version="1.0" encoding="utf-8"?>

<svg version="1.1" id="Layer_1" xmlns="http://www.w3.org/2000/svg" xmlns:xlink="http://www.w3.org/1999/xlink" x="0px" y="0px"
	 viewBox="0 0 75 11.2" style="enable-background:new 0 0 75 11.2;" xml:space="preserve">
<g id="Document" transform="scale(1 -1)">
	<g id="Spread" transform="translate(0 -11.206)">
		<g id="Layer_1_1_">
			<g id="Group">
				<path style="fill:#E30520;" d="M25.5,1.7l2.9,0l-0.2,7.2l-2.9,0l-2-3.4c-0.2-0.4-0.4-0.8-0.4-0.8h0c0,0-0.1,0.4-0.2,0.8l-1,3.4
					l-4.4,0l0.8-2.1c0,0,0,0,0-0.1l-1.4-5l2.5,0c0.1,0.4,0.8,3.5,0.8,3.5c0.1,0.5,0.1,0.9,0.1,0.9h0c0,0,0.1-0.4,0.2-0.9
					c0,0,1-3.1,1.2-3.5l1.4,0c0.3,0.5,2,3.5,2,3.5c0.3,0.5,0.4,0.9,0.4,0.9h0c0,0-0.1-0.4-0.1-0.9C25.5,5.3,25.5,2.1,25.5,1.7"/>
				<path marker-start="none" marker-end="none" style="fill:#E30520;" d="M33.1,1.6c-2.6,0-3.9,0.6-3.7,1.8c0.2,1.4,2.4,1.8,5,2
					l0,0.2c0.1,0.4-0.4,0.6-1.2,0.6c-0.8,0-1.7-0.2-2.3-0.3L30.3,7c0.7,0.2,1.9,0.4,3.5,0.4c2.1,0,3.4-0.6,3.2-2.2L36.7,2
					C35.9,1.8,34.7,1.6,33.1,1.6 M34.2,4.6c-1.2-0.1-2-0.2-2.1-1c-0.1-0.6,0.4-0.8,1.2-0.8c0.3,0,0.5,0,0.7,0.1L34.2,4.6z"/>
				<path style="fill:#E30520;" d="M41,1.6c-1.9,0-2.7,0.8-2.6,1.8l0.3,2.7l-0.3,0l-0.6,1.3l1,0l0.1,1.2l3,0.5l-0.2-1.7l1.2,0
					L43,6.1l-1.2,0l-0.3-2.5c-0.1-0.4,0.1-0.6,0.6-0.6c0.2,0,0.3,0,0.6,0.1l-0.2-1.2C42.3,1.7,41.7,1.6,41,1.6"/>
				<path marker-start="none" marker-end="none" style="fill:#E30520;" d="M47,1.6c-2.6,0-3.9,0.6-3.7,1.8c0.2,1.4,2.4,1.8,5,2
					l0,0.2c0.1,0.5-0.4,0.6-1.2,0.6c-0.8,0-1.7-0.2-2.3-0.3L44.2,7c0.7,0.2,1.9,0.4,3.5,0.4c2.1,0,3.4-0.6,3.2-2.2L50.6,2
					C49.8,1.8,48.6,1.6,47,1.6 M48.1,4.6c-1.2-0.1-2-0.2-2.1-1c-0.1-0.6,0.4-0.8,1.2-0.8c0.3,0,0.5,0,0.7,0.1L48.1,4.6z"/>
				<path marker-start="none" marker-end="none" style="fill:#E30520;" d="M55.9,1.6c-2.6,0-4.3,0.9-4,2.9c0.2,1.8,1.9,2.9,4.1,2.9
					c0.5,0,0.9,0,1.2-0.1l0.3,2.6l3,0l-1-7.9C58.6,1.7,57.5,1.6,55.9,1.6 M57,6.3c-0.1,0-0.3,0-0.5,0c-1.1,0-1.6-0.6-1.7-1.7
					c-0.1-1.2,0.3-1.7,1.2-1.7c0.2,0,0.4,0,0.5,0.1L57,6.3z"/>
				<path style="fill:#E30520;" d="M64.4,1.6c-2.5,0-3.8,1.2-3.6,2.9c0.2,1.7,1.8,2.9,4.3,2.9c2.5,0,3.8-1.2,3.6-2.9
					C68.5,2.8,66.9,1.6,64.4,1.6 M64.9,6.2c-0.8,0-1.1-0.7-1.2-1.7c-0.1-1,0-1.6,0.8-1.6c0.8,0,1.1,0.7,1.2,1.6
					C65.8,5.5,65.7,6.2,64.9,6.2"/>
				<path marker-start="none" marker-end="none" style="fill:#E30520;" d="M74.3,6c-0.5,0.2-1.1,0.2-1.5,0.1l-0.6-4.4l-3,0L70,7
					c1,0.3,2.6,0.5,5,0.4L74.3,6z"/>
				<path style="fill:#1D1D1B;" d="M4.2,2.8c1,3,2.7,5,4.6,5.3c0.9,0.1,1.8-0.2,2.6-0.9c-1.3,2.7-3.1,4.3-5.1,4
					C3.5,10.8,1.1,6.8,0,1.5C1.2,2.1,2.6,2.5,4.2,2.8"/>
				<path style="fill:#E30520;" d="M8.2,5.6c1.2-0.1,2.2-1.3,2.7-2.9c0.8-0.2,1.6-0.4,2.3-0.7c-0.5,2.8-2,5-3.6,5.2
					c-1.1,0.1-2.1-0.6-2.9-2C7.2,5.5,7.7,5.6,8.2,5.6"/>
				<path style="fill:#616161;" d="M12.9,1.1c-1.3,0.3-2.8,0.6-4.4,0.7C5.2,1.9,2.2,1.4,0,0.5l0.2,0C2.1,1,3.8,1,6.1,0.9
					C7.8,0.8,9.6,0.4,11,0C11.5,0.3,12.3,0.9,12.9,1.1"/>
			</g>
		</g>
	</g>
</g>
</svg>
