<?xml version="1.0" encoding="utf-8"?>
<!-- Generator: Adobe Illustrator 24.3.0, SVG Export Plug-In . SVG Version: 6.00 Build 0)  -->
<svg version="1.0" id="katman_1" xmlns="http://www.w3.org/2000/svg" xmlns:xlink="http://www.w3.org/1999/xlink" x="0px" y="0px"
	 viewBox="0 0 841.89 595.28" style="enable-background:new 0 0 841.89 595.28;" xml:space="preserve">
<style type="text/css">
	.st0{fill:#27509B;}
	.st1{fill:#010202;}
	.st2{fill:#FFFFFF;}
</style>
<g>
	<path class="st0" d="M334.96,403.54c-1.24,0.28-10.89,2.07-20.96,2.34c-18.07,0.55-33.92-6.76-34.06-19.86
		c-0.28-22.62,22.62-35.03,39.58-38.48c7.58-1.52,22.2-3.31,36.68,0.28l-8.41,20.27c-2.48-5.52-8.69-5.65-11.17-5.65
		c-6.21-0.14-11.31,1.52-15.03,3.17c-8.55,3.86-16,16.41-3.86,21.24c6.76,2.62,15.17,0.55,24.13-0.83L334.96,403.54z"/>
	<path class="st0" d="M687.86,347.14l-14.48,39.44c0.14-4,0.97-19.72,1.52-28.68c0.14-3.72-0.55-6.62-2.34-8.41
		c-2.21-2.34-4.96-2.34-5.1-2.34h-32.41l-21.24,57.51h23.44l15.03-40.82l-1.79,40.82h39.44l21.24-57.51H687.86z"/>
	<polygon class="st0" points="566.64,385.61 539.34,385.61 553.4,347.14 526.38,347.14 505.14,404.64 559.61,404.64 	"/>
	<polygon class="st0" points="505.55,362.17 511.21,347.14 453.01,347.14 431.91,404.64 490.66,404.64 496.31,389.2 463.9,389.2 
		466.25,382.71 496.59,382.71 501.83,368.65 471.49,368.65 473.83,362.17 	"/>
	<polygon class="st0" points="416.19,404.64 437.29,347.14 410.81,347.14 403.09,367.82 389.16,367.82 396.75,347.14 370.13,347.14 
		349.03,404.64 375.51,404.64 382.82,385.2 396.75,385.2 389.57,404.64 	"/>
	<polygon class="st0" points="259.67,404.64 280.91,347.14 253.05,347.14 231.81,404.64 	"/>
	<path class="st0" d="M216.09,404.64l21.24-57.51h-39.44l-20.41,30.89c0,0,1.24-16.13,1.65-20.13c0.28-2.9-0.14-10.89-7.31-10.89
		h-32.27l-21.24,57.64h25.24l15.31-41.65l-3.17,41.65h22.48l27.58-40.96l-15.03,40.96H216.09z"/>
	<polygon class="st0" points="598.09,404.64 619.19,347.14 591.33,347.14 570.09,404.64 	"/>
</g>
<path class="st0" d="M678.48,443.67c-1.79,5.1-4.28,6.76-9.38,6.76h-5.38l5.24-14.07h5.24
	C678.62,436.36,680.14,439.12,678.48,443.67 M674.48,433.74h-8l-7.03,19.17h9.52c6.9,0,10.48-2.76,12.69-8.83
	C683.72,438.57,681.66,433.74,674.48,433.74 M655.32,440.63c-0.83,2.62-2.62,3.17-6.9,3.17h-4.55l2.76-7.58h4.28
	C655.45,436.22,656.42,437.46,655.32,440.63 M651.59,433.74h-7.45l-7.03,19.17h3.45l2.48-6.62h5.93l2.34,6.62h3.45l-2.76-7.03
	c3.03-0.28,5.52-1.52,6.62-4.69C660.14,436.77,658.35,433.74,651.59,433.74 M622.22,445.6l7.58-10.2l0.55,10.2H622.22z
	 M629.11,433.74c-0.97,0-1.65,0.28-2.34,1.24l-13.65,17.93h3.59l3.45-4.83h10.2l0.28,4.83h3.17l-1.24-19.17H629.11z M616.29,433.74
	l-11.17,16.96l0.41-16.96h-4.69l-11.17,16.96l0.14-16.96h-3.31v19.17h3.31c0.83,0,1.65-0.28,2.21-1.24l10.34-15.58l-0.28,16.82h3.59
	c0.69,0,1.52-0.28,2.07-1.24l12.14-17.93H616.29z M578.5,440.63c-0.83,2.62-2.62,3.17-6.9,3.17h-4.69l2.76-7.58h4.28
	C578.78,436.22,579.61,437.46,578.5,440.63 M574.78,433.74h-7.45l-7.03,19.17h3.45l2.48-6.62h5.93l2.34,6.62h3.45l-2.76-7.03
	c3.03-0.28,5.52-1.52,6.62-4.69C583.33,436.77,581.54,433.74,574.78,433.74 M555.61,443.67c-1.93,5.24-4.69,7.03-9.1,7.03
	c-5.52,0-6.9-2.9-5.1-7.72c1.93-5.24,4.69-7.03,9.1-7.03C555.89,436.08,557.27,438.84,555.61,443.67 M550.65,433.46
	c-6.62,0-10.34,2.9-12.55,9.1c-2.07,5.79-0.28,10.62,8.14,10.62c6.48,0,10.34-2.9,12.55-9.1
	C560.85,438.43,559.06,433.46,550.65,433.46 M525.55,436.36h12.55l0.97-2.48h-16l-7.03,19.17h3.45l2.62-7.31h11.31l0.97-2.62h-11.31
	L525.55,436.36z M497.55,442.29l-4-8.55h-3.31l5.1,10.89l-3.03,8.27h3.45l2.9-8.14l13.24-11.03h-4L497.55,442.29z M474.66,445.6
	l7.58-10.2l0.55,10.2H474.66z M481.69,433.74c-0.97,0-1.65,0.28-2.34,1.24l-13.65,17.93h3.59l3.45-4.83h10.2l0.28,4.83h3.17
	l-1.24-19.17H481.69z M468.87,433.74L457.7,450.7l0.41-16.96h-4.69l-11.17,16.96l0.14-16.96h-3.31v19.17h3.31
	c0.83,0,1.65-0.28,2.21-1.24l10.34-15.58l-0.28,16.82h3.59c0.69,0,1.52-0.28,2.07-1.24l12.14-17.93H468.87z M422.67,440.63
	c-0.83,2.62-2.62,3.17-6.9,3.17h-4.55l2.76-7.58h4.28C422.95,436.22,423.77,437.46,422.67,440.63 M418.95,433.74h-7.45l-7.03,19.17
	h3.45l2.48-6.62h5.93l2.34,6.62h3.45l-2.76-7.03c3.03-0.28,5.52-1.52,6.62-4.69C427.64,436.77,425.84,433.74,418.95,433.74
	 M393.44,436.22h12.55l0.97-2.48h-16l-7.03,19.17h16l0.97-2.48h-12.55l2.07-5.79h11.31l0.97-2.48h-11.31L393.44,436.22z
	 M387.09,433.74h-18.48l-0.97,2.62h7.58l-6.07,16.55h3.45l6.07-16.55h7.45L387.09,433.74z M345.86,436.36h7.58l-6.07,16.55h3.45
	l6.07-16.55h7.45l0.97-2.62h-18.48L345.86,436.36z M320.9,452.91h16l0.97-2.48h-12.55l2.07-5.79h11.31l0.97-2.48h-11.31l2.07-5.79
	h12.55l0.97-2.48h-16L320.9,452.91z M316.35,439.39c-0.69,2.21-2.9,2.76-6.34,2.76h-5.52l2.21-5.93h6.07
	C316.07,436.22,317.17,437.19,316.35,439.39 M314.42,448.08c-0.69,1.79-2.07,2.34-5.52,2.34h-7.31l2.21-5.93h6.62
	C313.86,444.5,315.24,445.74,314.42,448.08 M314.14,433.74h-9.93l-7.03,19.17h12.41c3.72,0,6.62-0.97,7.86-4.14
	c0.97-2.48,0-4.69-2.62-5.38c2.34-0.55,4-1.65,4.83-3.72C320.9,436.22,319.24,433.74,314.14,433.74 M274.42,445.6l7.58-10.2
	l0.55,10.2H274.42z M281.32,433.74c-0.97,0-1.65,0.28-2.34,1.24l-13.65,17.93h3.59l3.59-4.83h10.2l0.28,4.83h3.17l-1.24-19.17
	H281.32z"/>
<g>
	<polygon class="st0" points="151.96,313.49 146.59,327.97 718.2,327.97 723.58,313.49 	"/>
	<g>
		<path class="st1" d="M424.19,313.49c0.41-0.14,0.83-0.28,1.24-0.41c0,0,0.69-0.28,0.97-0.28c4.14-1.38,13.38-6.21,16.82-12.96
			c7.03-2.62,12.14-6.21,15.31-10.48c6.07-1.1,10.76-3.72,13.38-5.1c6.07-3.45,10.34-6.76,12.96-10.34c2.21-2.9,3.59-5.1,4.69-7.45
			c2.07-1.1,4.41-2.48,7.45-4.55c10.62-7.03,12.83-20,13.1-21.51c0-0.28,0.14-0.69,0.14-0.97c0.55,0,1.1,0,1.65,0
			c10.62,0,24.55-6.62,31.99-10.34h0.14c1.1-0.55,2.21-1.1,2.62-1.24c2.48-1.1,7.58-3.72,12.83-7.31
			c6.76-4.55,11.31-8.69,13.79-12.55c0.41-0.55,0.69-1.24,0.97-1.93l4.41-2.76c1.24-0.83,2.34-1.93,3.03-3.31
			c1.24-0.69,2.21-1.24,2.48-1.52c3.45-2.21,4.96-6.07,3.72-9.79v-0.14c-1.1-3.31-4.14-7.31-9.24-8.55
			c-1.79-3.86-5.65-6.07-9.93-6.07c-0.97,0-1.79,0.14-2.34,0.28c-0.28,0-1.38,0.28-9.65,2.34l-12.27,2.9
			c1.1-3.03,0.97-6.34-0.41-9.1c-1.65-3.45-5.1-5.65-8.69-5.65c-1.24,0-2.48,0.28-3.59,0.83h-0.14c-0.41,0.28-1.38,0.69-23.31,14.89
			c-0.28,0.14-0.55,0.41-0.83,0.55c-10.62,9.24-14.48,14.76-15.45,16.13c-0.55,0.69-1.38,2.07-2.21,3.86
			c-0.55-0.28-1.1-0.55-1.65-0.83c-4.41-1.93-8.96-2.9-13.65-2.9c-8.41,0-14.34,3.31-15.86,4.28c-0.83,0.41-4,2.34-8.69,6.07
			c-1.93,1.52-3.59,3.17-5.1,5.1c-3.17,0.69-5.79,1.65-7.72,2.62c-2.48,1.24-4.83,3.17-7.45,5.24l-0.14,0.14
			c-0.41,0.41-0.83,0.69-1.38,1.1c-1.1,0.83-4,3.17-6.76,7.03h-0.28c-0.41,0.14-3.86,0.83-8.27,2.9c-1.1,0.55-2.21,1.1-3.17,1.79
			c-2.48,0.14-6.34,0.55-11.45,2.07h-0.28c-0.41-0.14-4.28-0.83-8.96-0.83c-2.07,0-4,0.14-5.65,0.41c-1.1,0.14-5.1,0.83-8.41,1.79
			c-1.65,0.41-5.65,1.79-10.34,4.83c-10.07-2.34-20.13-3.03-26.48-3.31c6.07-8.14,8.96-17.51,8-25.51
			c-1.93-15.17-12.14-24.13-15.86-26.75c-6.34-26.48-24.82-37.79-39.99-39.44c-3.03-3.45-8.69-5.65-15.17-5.65
			c-2.62,0-5.1,0.41-7.58,0.97c-8.14,2.21-14.62,8.41-15.86,15.17c-8.14,6.76-20.82,21.93-17.24,49.09
			c-3.03,4.14-8.96,14.62-4.96,30.61c2.76,10.89,9.52,18.76,19.72,22.89c-7.86,3.86-14.76,8.41-20.55,13.79
			c-0.41,0.28-0.69,0.69-0.97,0.97c-13.65,0.69-26.06,6.34-35.86,16.41c-7.03,7.17-11.86,15.45-14.89,22.75h247.26V313.49z"/>
		<path class="st2" d="M423.64,304.8c-2.9,0.97-7.86,2.9-14.76,2.9c-0.28,0-0.41,0-0.69,0c-7.17-0.14-15.72-3.86-21.79-10.62
			c-6.21-6.76-9.52-16.96-8.55-27.03s7.03-18.48,14.34-23.03c1.65-1.1,3.45-1.93,5.24-2.48c0.69-0.28,1.52-0.55,2.21-0.69
			c-0.14,0.14-0.28,0.41-0.41,0.55c-7.45,11.03-6.9,25.24-3.31,33.65c1.93,4.41,4.14,8,6.76,11.17c3.45,4.14,7.58,7.31,12.27,9.38
			c4.41,1.93,8.96,2.9,13.65,2.9c0.55,0,0.97,0,1.52,0C427.77,303.01,425.43,304.25,423.64,304.8"/>
		<path class="st2" d="M438.53,292.52c-2.76,0.97-6.21,1.79-10.07,1.79c-3.31,0-7.03-0.69-10.76-2.34
			c-8.14-3.59-12.55-10.62-15.31-16.82c-2.76-6.34-3.31-17.65,2.62-26.62c3.31-4.83,8-7.72,11.72-9.38
			c-2.34,7.03-3.45,17.93,4.28,31.03v0.14v0.14c3.86,6.21,8.96,10.89,15.03,14.07c3.59,1.93,7.45,3.17,11.45,3.86
			C444.74,290.04,441.43,291.42,438.53,292.52"/>
		<path class="st2" d="M467.63,276.8c-3.31,1.79-7.86,4.28-13.65,4.55c-0.28,0-0.55,0-0.83,0c-8.69,0-19.17-4.14-25.93-15.03
			c-12.14-20.41,1.1-34.48,5.52-37.92c2.62-2.07,5.24-4.14,7.31-5.38c-0.97,2.76-1.38,4.83-1.38,5.52
			c-0.97,5.1-0.14,11.72,2.21,17.65c3.03,7.86,8.27,14.2,15.17,18.34c5.65,3.31,11.45,4.96,17.38,4.96c1.65,0,3.17-0.14,4.41-0.28
			C474.94,272.39,470.39,275.29,467.63,276.8"/>
		<path class="st2" d="M208.09,313.49c0.55-4.55,1.79-10.07,4.28-16c2.07-4.96,4.55-9.65,7.72-13.93
			c-8.83,1.79-16.69,6.21-23.31,12.96c-4.55,4.55-8.41,10.34-11.58,16.82h22.89V313.49z"/>
		<path class="st2" d="M361.3,313.49c-1.52-1.38-2.76-2.62-3.86-3.72c-5.24-5.38-9.38-14.89-10.62-21.51
			c-2.21-10.76-0.69-21.24,4.41-31.03c1.65-3.03,3.59-5.93,5.93-8.41c-11.45-2.07-22.34-2.21-25.93-2.21
			c-0.41,0.83-0.97,1.52-1.65,2.21c-4.14,3.59-7.58,4.41-5.1,1.79c2.34-2.76,2.21-5.65,1.52-6.34c-0.55-0.55-1.52-0.14-2.07,0
			c-6.76,2.48-8,1.38-6.62,0.55c6.07-3.72,9.52-7.03,11.58-9.1c5.1-5.79,9.24-14.2,8.27-21.93c-1.1-8.96-6.21-16-11.45-20.27
			c-0.55-0.41-0.97-0.83-1.24-0.97c-0.14-0.14-0.28-0.28-0.41-0.28l0,0l0,0c-0.83-0.55-1.93-1.24-2.76-1.52
			c-1.38-0.41-0.97-1.38,0.55-1.79c-0.14-0.69-0.28-1.52-0.55-2.21c-0.14-0.69-0.41-1.38-0.55-2.07
			c-6.07-20.13-20.41-28.68-32.27-29.93c-0.14,0-0.28,0-0.41,0c-2.76-0.28-4.69-0.28-5.1-0.28c-1.93-0.28-1.1-1.1,0-1.52
			c0.41-0.14,0.55-0.55,0.41-0.83c-1.38-2.07-7.72-4-14.34-2.07c-3.45,0.97-6.48,3.17-8.27,5.38c-0.28,0.41-0.55,0.97-0.83,1.38
			c0,0.14-0.14,0.28-0.14,0.41c-0.28,0.83,0.69,0.55,0.69,0.55c3.17-0.69,4.55,0.14,2.07,1.52c-1.52,0.83-3.72,2.34-5.24,3.45
			c-3.59,2.76-8.27,7.31-11.58,14.2c-3.03,6.34-4.55,13.79-4.28,21.79c0.14,1.1,0.14,3.31,0.28,4c0.14,0.83,0.69,1.65,2.62,1.38
			c2.62-0.41,4.28-0.83,1.93,1.1c-0.97,0.69-4,3.59-5.79,5.79c-3.59,4.55-6.34,12.96-3.59,23.58c2.34,9.1,8,15.17,16.96,18.07
			c5.38,1.52,17.65,3.59,27.17,3.03c0.97,0,1.24,0.14,1.1,0.55c-0.14,0.41-0.83,0.69-1.79,0.83c-1.52,0.28-4.83,0.83-10.48,1.38
			c-1.24,0.14-2.21,0.97-2.34,1.52c0,0,0,0,0,0.14c-0.69,2.48,4.41,4.55,4.96,4.83c1.93,0.55,1.1,1.65,0.28,1.79
			c-3.59,0.69-10.07-0.83-13.51-1.1c-2.34-0.14-4.14,0.28-4.83,0.69c-8.14,3.59-15.03,8.14-20.69,13.38
			c-6.34,5.93-11.17,12.96-14.34,20.69c-1.93,4.83-3.03,9.38-3.59,13.24H361.3V313.49z"/>
		<path class="st2" d="M362.54,304.66c3.03,3.17,6.48,6.48,12,8.83h24.82c-1.79-0.55-3.72-1.24-5.52-2.07
			c-4.83-2.21-9.24-5.52-12.69-9.38c-3.72-4.14-6.62-9.24-8.55-15.03c-1.79-5.65-2.48-11.86-1.93-17.65
			c0.55-5.93,2.62-11.72,5.93-16.82c2.21-3.59,5.1-6.62,8.27-9.24c-0.28,0-0.69,0.14-0.97,0.14c0,0-4.28,0.55-7.31,1.52
			c-3.03,0.97-13.51,4.83-19.03,15.58c-5.65,10.76-4.96,20.13-3.72,26.2C354.96,292.94,358.82,300.94,362.54,304.66z"/>
		<path class="st2" d="M580.02,192.54c-0.69,0.41-1.65,0.97-2.48,1.52v-0.14c-1.24-2.07-2.9-3.45-4.96-3.86
			c-3.17-0.69-7.17,0.55-12.41,4c-7.72,4.96-19.72,7.86-19.86,7.86c-0.83,0.14-1.38,0.97-1.1,1.79c0.14,0.69,0.83,1.24,1.52,1.24
			c0.14,0,0.28,0,0.41,0c0.55-0.14,12.69-3.03,20.82-8.27c4.41-2.9,7.86-4.14,10.07-3.59c1.1,0.28,1.93,0.83,2.62,2.07l0,0
			c0.97,1.52,0.14,2.34,0,2.34c-0.14,0-3.86,2.48-5.52,3.45c-0.83-0.83-2.48-2.21-4.96-2.48c-2.76-0.28-5.65,0.97-8.55,3.72
			c-7.03,6.62-14.62,8.69-14.76,8.83c-0.83,0.28-1.24,1.1-1.1,1.93c0.14,0.69,0.83,1.1,1.52,1.1c0.14,0,0.28,0,0.41,0
			c0.28-0.14,8.41-2.34,16-9.52c2.21-2.07,4.28-3.03,6.07-2.9c1.79,0.14,2.9,1.38,3.17,1.65c0,0.14,0.41,0.69,0,1.24
			c-4.28,6.76-19.17,15.31-23.44,17.1c-3.17,1.38-15.86,8.14-26.2,10.34c-1.1,0.28-2.34,0.41-3.45,0.55c-0.14,0-0.28,0-0.41,0
			c-1.52,0-8.55,0.14-10.62-1.93c-3.03-3.03-4.14-0.83-3.17,3.03c-3.31,1.93-8.27,4.96-9.52,5.79c-3.45,2.07-7.86-0.28-8.69-0.28
			c-1.79,0,2.48,5.38,6.07,5.93c3.86,0.55,11.03-4,11.03-4l2.76-1.79l0,0c0,0-1.65,10.48-9.38,15.72c-4.83,3.17-6.9,4.28-8.69,5.1
			c-1.24,0.55-4.83,2.48-10.2,2.48c-3.86,0-8.41-0.97-13.65-4c-12.55-7.45-15.03-22.06-13.93-28.55c0,0,1.38-9.65,8.83-15.31
			c4.96-3.86,7.86-5.52,7.86-5.52s4.69-3.03,11.58-3.03c3.03,0,6.48,0.55,10.07,2.21c-1.1,0.83-2.07,1.65-2.62,2.34
			c-1.38,2.21-3.45,7.03-2.07,7.03c0.97,0,1.65-2.48,4.96-4.14c1.65-0.83,9.38-5.38,9.38-5.38s0.28-1.24,0.69-1.93
			c0,0,0.97-2.07,2.9-4.96c0.14-0.14,0.41-0.55,0.83-1.24c1.1-1.52,2.62-3.31,4.41-4.96l0,0c2.07-2.21,4.96-4.96,8.83-8.41
			c0,0,21.51-13.93,22.48-14.48c0.14-0.14,0.41-0.14,0.55-0.14c1.79,0,4.41,3.17,1.24,7.45c-2.62,3.45-5.65,5.79-8,7.58
			c-0.69,0.55-1.65,1.1-2.34,1.38c-3.31,1.1-7.58,3.72-8.27,4.28s-0.69,1.52,0.14,1.1c2.9-1.24,7.45-2.34,8.27-2.62
			c4.96-1.1,40.96-9.79,41.51-9.93c0.14,0,0.55-0.14,0.83-0.14c1.24,0,3.31,0.41,3.86,3.03c0,0.14,0,0.14,0,0.28l-32.96,9.79
			c-0.83,0.28-1.24,1.1-0.97,1.93c0.14,0.55,0.69,0.97,1.24,1.1c0.28,0,0.55,0,0.69,0l29.37-8.69c0.55-0.14,1.65-0.41,3.86-1.1
			l0.28-0.14c0.69-0.14,1.24-0.28,1.79-0.28c3.03,0,4.83,2.48,5.38,4C580.99,191.72,580.71,192.13,580.02,192.54"/>
		<path class="st1" d="M297.73,184.13c0,1.93,0.28,4.14,0.83,6.07c0.55,1.93,1.38,3.86,2.48,5.52c0.97,1.38,2.21,2.76,4,3.31l0,0
			c0,0,0,0,0.14,0c0.14,0,0.14,0,0.14,0l0,0c0.41,0.14,0.83,0.14,1.24,0.14c0.69,0,1.38-0.14,2.21-0.28
			c0.83-0.14,1.65-0.41,2.48-0.83c0.97-0.55,1.38-1.65,1.79-2.62c0.41-1.1,0.55-2.21,0.69-3.31c0.14-1.93-0.14-4-0.83-5.93
			c0,0.14,0,0.14,0,0.28c1.1,5.1-0.41,9.65-3.45,10.34c-3.03,0.69-6.34-2.9-7.45-7.86c-0.28-1.38-0.41-2.62-0.41-3.86
			c0.69,0.83,1.52,1.38,2.48,1.1c1.24-0.28,1.93-1.93,1.52-3.45c-0.41-1.38-1.52-2.34-2.62-2.34c0.55-0.83,1.38-1.52,2.34-1.65
			c1.93-0.41,4,0.83,5.52,3.31c-0.41-0.69-0.83-1.38-1.24-2.07c-1.1-1.52-2.76-3.03-4.69-3.45c-0.28,0-0.69-0.14-0.97-0.14
			c-1.79,0-3.59,0.83-4.55,2.21C298.14,180.13,297.73,182.2,297.73,184.13 M296.63,190.2c-0.55-2.21-1.38-5.52-1.1-8.69
			c0.28-4.55,2.62-7.17,5.38-8.14c3.45-1.1,7.17,0.69,9.24,3.31c1.24,1.52,2.34,3.72,3.31,5.93c0.28,0.69,0.69,1.52,0.97,2.34
			c0.83,2.48,1.24,4.96,1.1,7.31c-0.14,1.38-0.28,2.76-0.83,3.86c-0.41,1.24-1.24,2.9-2.62,3.72c-0.97,0.55-2.07,0.69-2.9,0.97l0,0
			c-0.83,0.14-1.65,0.28-2.62,0.28c-0.55,0-1.1,0-1.65-0.14c-0.14,0-0.14,0-0.28,0l0,0l0,0l0,0h-0.14l0,0l0,0
			c-2.34-0.69-3.72-2.48-4.96-4c-0.97-1.38-1.65-2.9-2.21-4.28l0,0c0,0-0.14-0.28-0.28-0.83c-0.14-0.28-0.28-0.69-0.28-0.97l0,0l0,0
			C296.76,190.48,296.63,190.34,296.63,190.2 M305.31,199.16L305.31,199.16C305.31,199.16,305.18,199.03,305.31,199.16
			C305.18,199.03,305.18,199.16,305.31,199.16 M271.11,200.54c1.24,2.34,2.76,4.14,4.41,5.1c0.83,0.41,1.65,0.69,2.62,0.69
			c0.83,0,1.65-0.14,2.76-0.41l0,0c0.41-0.14,1.79-0.55,2.48-0.83c1.38-0.55,2.48-2.48,3.03-4.96c0.14-0.97,0.28-1.93,0.28-2.9
			c-0.28,3.17-1.93,5.65-4.14,6.07c-3.31,0.83-7.03-2.76-8.27-8c-0.28-1.38-0.41-2.76-0.41-4c0.69,0.83,1.52,1.24,2.48,0.97
			c1.24-0.28,1.93-1.93,1.52-3.59c-0.41-1.24-1.38-2.21-2.34-2.34c0.69-0.97,1.65-1.65,2.62-1.93c2.48-0.55,5.1,1.1,6.76,4.14
			c0-0.14-0.14-0.28-0.14-0.41c-1.65-3.31-4.55-6.76-10.07-5.24c-7.31,1.93-5.65,11.45-4.83,14.34
			C270.15,198.34,270.56,199.44,271.11,200.54 M269.32,201.51c-1.24-2.21-1.93-4.69-2.34-7.17c-0.41-2.48-0.55-5.1,0-7.58
			c0.41-2.48,1.52-4.69,3.59-6.07c1.65-1.24,3.72-1.93,5.79-1.93c0.55,0,1.1,0,1.65,0.14c5.24,1.1,7.72,5.38,9.79,11.45
			c2.34,6.62,0.69,14.89-3.59,16.69c-1.1,0.41-2.76,0.97-2.76,0.97c-1.1,0.28-2.21,0.55-3.31,0.55c-1.24,0-2.48-0.28-3.59-0.97
			C272.22,206.06,270.42,203.71,269.32,201.51 M311.38,217.5c-6.62,3.59-14.2,5.52-21.65,6.48c2.07,0.97,4.14,1.65,6.34,1.93
			c2.07,0.14,4-0.14,5.93-0.69c1.93-0.55,3.86-1.52,5.52-2.76C309.18,220.95,310.28,219.3,311.38,217.5 M321.31,211.16
			c-0.41,0.14-0.55-0.41-0.83-1.1c-1.24,1.65-4,4.28-4.41,4.83c-0.55,0.83-1.1,1.65-1.65,2.48c-0.83,1.52-1.52,2.9-2.62,4.28
			c-1.38,1.79-3.03,3.45-4.96,4.55c-3.72,2.21-8.27,3.31-12.55,2.62c-2.21-0.41-4.41-1.24-6.48-2.21c-1.65-0.83-3.45-1.79-5.24-1.93
			c-2.07,0-4.28,0.14-6.34-0.14c-0.69-0.14-1.38-0.41-1.52-1.1c-0.28-0.97,0.41-2.07,1.38-2.07l0,0c0.28,0,0.69,0.14,0.97,0.14
			c0.69,0,1.38,0.14,2.07,0.14c7.45,0.28,15.17-0.97,22.2-3.17c4.41-1.38,8.69-3.17,12.41-5.93c1.52-1.1,3.03-2.34,4.28-3.72
			c0.14-0.28,0.41-0.55,0.55-0.69c-0.14-0.14-0.28-0.14-0.41-0.14c-0.41-0.14-0.41-0.83,0.28-0.97s1.65,0.14,2.07,0.55
			c0.41,0.41,0.69,0.97,0.83,1.79C321.86,210.06,321.73,211.02,321.31,211.16 M276.08,219.99c-1.93,1.38-2.34,2.34-2.62,3.03
			c-0.28,0.69-0.28,1.38-0.14,1.65c0.14,0.28,0,0.69-0.28,0.83l0,0l0,0l0,0c-0.28,0.14-0.55,0-0.69,0
			c-0.14-0.14-0.28-0.28-0.41-0.41c-0.55-1.24,0-4,1.38-5.24c0.55-0.55,1.24-0.97,1.93-1.24c0.28-0.14,0.97-0.41,1.38,0.14
			C276.77,219.3,276.35,219.71,276.08,219.99"/>
	</g>
</g>
</svg>
