<?xml version="1.0" encoding="utf-8"?>
<!-- Generator: Adobe Illustrator 28.1.0, SVG Export Plug-In . SVG Version: 6.00 Build 0)  -->
<svg version="1.0" id="katman_1" xmlns="http://www.w3.org/2000/svg" xmlns:xlink="http://www.w3.org/1999/xlink" x="0px" y="0px"
	 viewBox="0 0 1024 1024" style="enable-background:new 0 0 1024 1024;" xml:space="preserve">
<style type="text/css">
	.st0{fill:#101318;}
	.st1{fill:#F7F9F5;}
</style>
<path class="st0" d="M461.3,75.66c0,2.1-1.71,3.81-3.81,3.81c-2.1,0-3.81-1.71-3.81-3.81c0-2.1,1.71-3.81,3.81-3.81
	C459.58,71.84,461.3,73.56,461.3,75.66z"/>
<path class="st0" d="M468.34,74.16c0.02-0.45,0.4-0.8,0.85-0.78l0.22,0.01c1.57,0.07,2.8,1.13,2.76,2.39l-0.02,0.46
	c-0.04,1.25-1.36,2.22-2.93,2.17l-0.22-0.01c-0.45-0.02-0.8-0.4-0.78-0.85L468.34,74.16z"/>
<path class="st0" d="M649,80.11c0,2.68-2.18,4.86-4.86,4.86c-2.68,0-4.86-2.18-4.86-4.86s2.18-4.86,4.86-4.86
	C646.82,75.25,649,77.42,649,80.11z"/>
<path class="st0" d="M906.69,413.34c-11.05,28.98-26.65,56.67-46.68,80.49c-0.77,0.93-0.93,0.83-0.45-0.27
	c6.22-14.34,11.18-29,14.88-43.99c2.22-9.04,3.53-18.94,4.72-28.36c0.01-0.08,0-0.09-0.04-0.01c-3.59,5.74-7.67,10.18-12.47,14.7
	c-0.34,0.31-0.52,0.69-0.57,1.13c-2.37,22.1-6.69,41.66-12.98,58.67c-7.77,21.05-20.96,40.52-36.32,57.42
	c-7.2,7.92-14.06,15.01-20.59,21.25c-18.06,17.28-37.49,31.36-58.31,42.26c-27.86,14.57-56.31,25.64-86.44,32.4
	c-7.65,1.71-14.8,2.94-21.46,3.69c-15.6,1.74-31.19,1.97-46.81,0.69c-0.03,0-0.07-0.03-0.07-0.07c0-0.04,0.03-0.08,0.07-0.08
	c0.11-0.01,0.22,0,0.34,0.02c0.22,0.03,0.44,0.04,0.65,0.02c12.62-1.1,23.95-4.77,36.15-8.6c13.94-4.37,27.52-10.02,40.74-16.95
	c10.98-5.77,20.63-11.42,28.95-16.97c13.82-9.22,27.07-20.14,39.77-32.77c5.42-5.4,9.68-10.47,12.77-15.22
	c8.7-13.36,14.29-28.31,18.91-43.93c5.8-19.62,8.86-39.43,9.2-59.44c0.63-37.57-5.7-74.08-18.99-109.52
	c-9.54-25.42-21.5-49.33-35.92-71.74c-4.5-7-9.11-13.92-13.83-20.77c-9.54-13.83-20.87-28.02-34.01-42.57
	c-5.34-5.92-10.96-11.59-16.87-17.01c-0.07-0.05-0.07-0.12-0.01-0.17v-0.01c0.05-0.07,0.12-0.08,0.19-0.02
	c16.22,12.71,32.77,25.17,49.67,37.37c4.35,3.14,9.02,6.28,14.03,9.41c4.97,3.11,9.54,6.39,13.69,9.82c0.58,0.47,0.64,0.41,0.2-0.19
	c-3.15-4.2-6.46-7.9-9.95-11.14c-9.24-8.58-20.4-18.3-33.49-29.16c-12.78-10.61-26.33-19.99-39.67-29.95
	c-14.21-10.62-29.21-19.98-45-28.08c-0.33-0.16-0.45-0.58-0.25-0.89l8.65-14.19c0.23-0.38,0.54-0.46,0.94-0.25
	c2.44,1.34,5.04,2.09,7.77,2.28c5.32,0.34,9.92,2.18,13.81,5.52c13.34,11.43,24.59,22.2,35.86,33.64c0.88,0.89,0.97,0.82,0.28-0.23
	c-10.84-16.51-24.03-31.04-39.56-43.6c-15.92-12.88-32-23.08-48.24-30.62c-1.71-1.04-3.48-1.96-5.32-2.78
	c-20.13-8.97-40.87-16.13-62.23-21.5c-0.03-0.01-0.07-0.02-0.09-0.04c-0.02-0.02-0.03-0.05-0.03-0.09c0-0.04,0.02-0.07,0.07-0.05
	c29.58,4.68,55.43,12.57,77.56,23.67c16.36,8.21,33.6,19.39,51.75,33.54c5.93,4.62,11.54,9.48,16.83,14.58
	c19.24,18.54,36.51,38.01,51.84,58.39c4.83,6.42,9.56,12.5,14.19,18.26c0.6,0.74,0.65,0.7,0.16-0.12
	c-5.35-9.11-11.01-18.37-16.98-27.76c-3.47-5.45-8.83-12.46-16.09-21.04c-8.2-9.66-16.22-19.63-25.01-28.92
	c-11.27-11.91-21.84-22.34-31.73-31.29c-14.83-13.44-31.44-25.52-49.83-36.21c-5.75-3.34-12.09-5.84-17.97-8.88
	c-0.08-0.03-0.1-0.09-0.07-0.15v-0.01c0.03-0.08,0.1-0.11,0.17-0.08c17.05,5.29,33.37,11.36,48.41,20.34
	c24.26,14.49,45.08,31.91,62.46,52.27c14.39,16.85,28.15,33.7,41.29,50.55c1.95,2.5,3.98,5.38,6.1,8.65
	c0.29,0.45,0.47,0.41,0.52-0.12c0.49-4.83,0.65-9.7-0.77-14.47c-1-3.38-1.81-6.91-3.01-10.22c-4.74-13.11-7.41-21.09-8.03-23.96
	c-0.87-4.07-1.87-8.15-3-12.28c-0.24-0.89-1.09-1.48-2.01-1.4c-3.75,0.33-7.31,1.43-10.55-1.53c-9.97-9.1-20.23-17.37-30.78-24.83
	c-12.31-8.69-24.96-16.89-37.97-24.62c-5.14-3.06-10.54-5.56-15.87-8.27c-0.09-0.04-0.11-0.11-0.07-0.21l0,0
	c0.03-0.1,0.1-0.13,0.2-0.1c4.44,1.48,8.68,3.13,13.12,4.53c18.61,5.89,33.32,11.71,44.15,17.46
	c23.78,12.63,44.07,28.27,60.86,46.94c8.28,9.21,17.2,20.44,26.74,33.69c3.9,5.42,7.9,11.48,11.99,18.18
	c5.75,9.45,11.6,18.98,17.52,28.58c0.38,0.62,0.47,0.58,0.24-0.11c-8.27-25.59-21.58-50.98-39.41-71.78
	c-0.05-0.08-0.09-0.15-0.1-0.25c0-0.03,0.01-0.07,0.03-0.09c0.03-0.03,0.07-0.04,0.1-0.01c20.57,18.82,37.66,39.74,51.29,62.75
	c2.04,3.43,4.15,7.02,6.35,10.74c0.58,0.98,0.68,0.94,0.29-0.13c-4.48-12.39-10.2-24.17-17.17-35.36
	c-17.98-28.87-39.75-53.76-65.29-74.66c-4.17-3.41-8.29-6.56-12.37-9.47c-0.14-0.1-0.16-0.21-0.07-0.35l0,0
	c0.05-0.08,0.13-0.1,0.21-0.04c14.41,8.99,29.48,18.8,42.08,30.44c7.73,7.14,14.31,13.65,19.77,19.52
	c11.16,12.02,21.79,26.01,31.88,41.94c10.43,16.47,19.22,34.32,26.37,53.55c8.32,22.37,15.81,44.77,21.29,67.75
	c1.78,7.44,2.99,14.62,3.64,21.5c1.19,12.52,1.63,24.55,1.33,36.04c-0.22,7.91-0.69,15.83-1.42,23.73c-0.01,0.1,0.03,0.15,0.13,0.16
	h0.01c0.16,0.02,0.24-0.04,0.25-0.21c0.03-1.6,0.23-3.2,0.59-4.81c2.62-11.69,3.38-24.65,2.3-38.88c-0.62-8.25-2.27-16.46-2.2-24.8
	c0.11-11.87,1.4-23.74,1.26-35.48c-0.21-17.83-3.51-35.85-9.92-54.06c-6.35-18.05-13.97-35.1-22.87-51.15
	c-2.87-5.18-6.09-10.27-9.66-15.25c-0.05-0.08-0.04-0.13,0.02-0.19h0.01c0.05-0.04,0.11-0.04,0.15,0.01
	c10.23,12,19.81,23.79,26.99,37.98c3.19,6.33,6.87,9.5,13.21,11.9c1.01,0.38,1.63,1.09,1.87,2.15c2.55,11.36,7.03,22.25,9.78,33.85
	c2.02,8.53,3.51,17.09,4.48,25.65c0.01,0.04,0.03,0.07,0.09,0.07h0.01c0.03,0,0.05-0.02,0.07-0.07c0.77-20.63-1.71-40.79-7.43-60.46
	c-4.59-15.74-10.9-31.04-18.94-45.91c-5.16-9.54-10.86-18.3-17.09-26.3c-0.82-1.06-0.78-1.09,0.12-0.1
	c11.43,12.58,21.7,26.06,30.8,40.46c14.3,22.62,23.87,46.81,28.71,72.58c6.46,34.46,0.89,70.16-14.3,101.67
	c-3.25,6.72-6.64,13.02-10.16,18.89c-0.75,1.23-1.22,2.62-1.37,4.04c-0.76,7-1.08,14.22-3.63,20.83c-0.02,0.04,0.03,0.08,0.07,0.04
	c13.19-13.66,24.39-28.6,33.61-44.83c9.8-17.25,16.6-35.32,20.43-54.21c0.65-3.24,0.72-6.62,1.05-9.89
	c0.12-1.19,0.27-1.19,0.46-0.02c0.75,4.83,1.41,9.85,1.94,15.07c1.83,17.9,0.85,35.52-2.94,52.87
	C913.34,392.84,910.44,402.82,906.69,413.34z M735.79,217.73c5.58,13.46,10.62,25.89,15.12,37.3c11.3,28.69,19.73,57.95,25.28,87.78
	c8,43.03,9.08,86.52,3.25,130.46c-3.46,26.02-9.92,50.38-19.39,73.07c-2.8,6.7-6.17,13.33-9.5,19.81c-0.05,0.12-0.03,0.22,0.09,0.28
	l0,0c0.09,0.05,0.16,0.03,0.22-0.04c3.44-5.31,7.06-10.65,9.78-16.34c4.52-9.49,7.99-17.84,10.4-25.06
	c3.64-10.89,6.68-22.15,9.13-33.79c1.86-8.88,3.69-20.64,5.52-35.3c1.09-8.77,1.21-17.32,1.75-25.94
	c0.41-6.56,0.62-12.87,0.62-18.93c0.01-17.59-0.61-32.21-1.86-43.84c-1.72-15.96-3.6-29.04-5.62-39.24
	c-2.39-12.07-4.86-22.47-7.4-31.24c-4.35-14.98-9.94-29.04-15.73-42.92c-7.28-17.46-15.95-33.69-25.97-49.92
	c-4.33-7.01-4.78-6.77-1.36,0.73C732.11,209.04,734.01,213.42,735.79,217.73z M771.86,251.27c0-0.17-0.09-0.33-0.23-0.44l-8.9-6.49
	c-0.49-0.35-1.13,0.19-0.86,0.73l6.88,13.85c0.22,0.44,0.85,0.43,1.05-0.03l2.16-5.07c0.03-0.08,0.05-0.16,0.04-0.25L771.86,251.27z
	 M715.51,255.61l22.62,34.56c0.09,0.13,0.26,0.17,0.39,0.09l0.64-0.43c0.27-0.17-4.58-8.1-10.84-17.68l-0.23-0.35
	c-6.27-9.57-11.58-17.19-11.86-17l-0.64,0.41C715.46,255.3,715.42,255.48,715.51,255.61z M775.09,274.4
	c-0.4,1.05-0.36,2.23,0.11,3.56c1.8,5.09,3.89,10.07,6.27,14.94c0.13,0.25,0.48,0.26,0.62,0.02l3.95-6.79l6.32-10.94
	c0.43-0.74,0.81-0.72,1.14,0.07l6.95,16.23l4.49,10.96c0.38,0.93,0.15,1.11-0.68,0.54c-0.77-0.51-1.49-1.32-2.16-2.42
	c-1.57-2.56-3.15-4.97-4.73-7.2c-0.23-0.31-0.69-0.31-0.9,0l-7.5,10.45c-0.4,0.56-0.42,1.31-0.07,1.9c0.78,1.28,1.41,2.52,1.87,3.73
	c1.65,4.31,3.29,8.75,4.92,13.33c0.13,0.38,0.63,0.47,0.88,0.15c3.63-4.61,6.39-9.19,8.26-13.73c0.66-1.62,1.19-1.57,1.55,0.14
	l6.66,31.6c0.05,0.29-0.19,0.56-0.48,0.52l-0.29-0.03c-0.58-0.08-0.97-0.38-1.18-0.94c-1.07-2.9-2.29-5.65-3.67-8.25
	c-0.29-0.56-0.17-0.86-0.26-1.44c-0.04-0.25-0.36-0.35-0.52-0.15c-3.54,4.04-7.04,8.2-10.51,12.48c-1.91,2.34-4.6,4.12-4.1,7.64
	c0.86,6.11,1.68,12.31,2.44,18.57c0.08,0.62,0.77,0.96,1.3,0.62c1.09-0.69,1.9-1.79,2.41-3.28c0.47-1.33,0.4-3.55-0.17-6.67
	c-0.75-4.08-1.57-8.45-2.46-13.12c-0.05-0.31,0.17-0.58,0.49-0.59l0.43-0.01c0.64-0.01,1.02,0.31,1.14,0.93l3.08,16.31
	c0.09,0.45,0.28,0.5,0.6,0.17c3.79-3.9,8.32-8.35,10.22-13.47c0.86-2.34,1.4-2.27,1.58,0.22l2.45,32.93
	c0.08,0.94-0.23,1.07-0.89,0.4c-0.48-0.48-0.83-1.08-1.05-1.79c-0.72-2.33-1.49-4.64-2.31-6.93c-0.17-0.51-0.83-0.66-1.21-0.28
	l-14.71,14.32c-0.37,0.36-0.57,0.86-0.56,1.37l0.47,19.66c0.03,1.67,0.62,1.89,1.74,0.64l1.68-1.87c1.12-1.24,1.61-2.69,1.47-4.36
	l-1.25-15.14c-0.05-0.64,0.23-1.05,0.86-1.21l0.26-0.07c0.32-0.08,0.63,0.14,0.66,0.47l1.42,16.03c0.03,0.36,0.19,0.44,0.48,0.22
	c5.64-4.31,9.52-8.95,11.64-13.92c0.12-0.27,0.5-0.29,0.65-0.03c0.21,0.38,0.28,0.8,0.25,1.24c-0.85,10.13-1.11,20.03-0.77,29.7
	c0.08,2.02-0.26,3.67-1.01,4.99l-0.45-0.62c-0.22-0.29-0.35-0.63-0.4-1l-0.93-6.95c-0.05-0.41-0.38-0.74-0.8-0.8
	c-0.43-0.05-0.8,0.07-1.09,0.34c-4.9,4.54-9.65,8.53-14.22,11.95c-1.08,0.81-1.69,1.94-1.82,3.39c-0.51,5.56-0.8,11.52-0.87,17.89
	c-0.02,1.47,0.53,1.73,1.66,0.77l1.41-1.2c1.1-0.95,1.67-2.15,1.68-3.6l0.15-14.44c0.01-0.86,0.46-1.67,1.18-2.14l0.74-0.49
	c0.74-0.48,1.09-0.27,1.05,0.61l-0.85,16.29c-0.03,0.56,0.16,0.64,0.58,0.27c3.19-2.81,6.34-5.55,9.45-8.21
	c0.8-0.68,1.5-1.46,2.13-2.34c1.19-1.71,1.63-1.54,1.32,0.53c-1.28,8.48-1.89,17.14-1.81,25.99c-1.19,1.35-2.28-0.33-3.29-5.04
	c-5.41,4.71-10.54,8.98-15.39,12.83c-1.36,1.08-2.19,2.3-2.47,3.68c-1.19,5.7-2.26,11.51-3.18,17.44c-0.08,0.49,0.47,0.83,0.87,0.54
	c1.14-0.81,2.09-1.83,2.86-3.07c7.15-3.23,13.07-7.88,17.75-13.96c0.26-0.34,0.46-0.32,0.6,0.09c0.14,0.4,0.15,0.95,0.02,1.63
	c-0.95,6.01-2.31,11.98-4.09,17.91c-0.74,2.47-0.72,5.8-1.62,8.62c-2.2,6.86-4.31,13.55-6.31,20.08
	c-2.22,7.26-5.65,14.63-8.96,21.34c-4.94,10.04-11.77,19.05-20.48,27.04c-0.19,0.17-0.2,0.36-0.03,0.56l0.19,0.21
	c0,0.01,0.02-0.01,0.08-0.04c2.67-2.09,5.34-4.29,8.01-6.59c3.29-2.84,5.65-6.92,8.03-10.66c7.16-11.17,11.8-19.36,13.93-24.57
	c2.5-6.16,5.18-12.69,8.07-19.61c3.19,4.72,5.43,9.69,6.69,14.91c0.1,0.45,0.24,0.45,0.41,0.02c2.09-5.25,4.57-10.43,7.43-15.52
	c0.13-0.24,0.27-0.47,0.44-0.7c0.44-0.6,0.52-1.26,0.27-1.98c-1.62-4.64-3.72-9.1-6.3-13.38c-0.13-0.21-0.44-0.19-0.53,0.04
	c-1.41,3.3-2.92,6.66-4.52,10.08c-0.34,0.73-0.82,1.26-1.42,1.61c-0.45,0.26-0.66,0.13-0.64-0.38l0.14-3.28
	c2.62-9.23,4.73-19.06,6.34-29.49c4.26,5.57,7.92,11.23,10.99,16.97c0.37,0.7,0.48,0.65,0.32-0.12c-0.04-0.21-0.1-0.43-0.16-0.63
	c-0.11-0.35-0.13-0.71-0.08-1.07c0.86-5.09,1.98-10.11,3.39-15.07c0.41-1.43,1.17-2.38,1.72-3.66c0.16-0.36,0.15-0.78-0.03-1.13
	c-2.76-5.35-5.72-10.19-8.88-14.52c-0.34-0.47-0.59-0.43-0.73,0.15c-0.96,3.97-2.18,9.2-4.72,12.31c-0.25,0.32-0.53,0.34-0.84,0.07
	c-0.2-0.19-0.31-0.45-0.32-0.81c0.86-7.38,2.4-15.15,3.07-22.01c0.34-3.46,0.62-6.91,0.87-10.37c0.6-0.03,1.1,0.2,1.5,0.71
	c4.25,5.29,8,10.55,11.25,15.79c0.62,0.99,1.04,0.92,1.25-0.23c0.4-2.13,0.78-4.23,1.14-6.32c0.36-2.05,0.58-4.15,0.68-6.32
	c0.1-2.25,0.27-4.4,0.51-6.47c0.12-1.05-0.11-2.1-0.65-3c-1.46-2.43-2.95-4.82-4.82-6.93c-1.89-2.14-3.42-4.43-4.62-6.88
	c-0.12-0.25-0.48-0.24-0.59,0.01c-1.49,3.59-2.69,7.35-3.6,11.28c-0.16,0.72-0.56,0.9-1.19,0.57c-0.32-0.16-0.49-0.41-0.54-0.77
	l-0.14-1c1.08-10.64,1.59-21.07,1.52-31.3c-0.01-0.93,0.27-1.02,0.84-0.28l11.25,14.66c0.4,1.01,1.05,2.01,1.93,2.98
	c0.31,0.34,0.48,0.28,0.52-0.17c0.6-6.74,1.01-13.49,1.26-20.26c0.08-1.78-0.81-3.27-1.91-4.58c-2.82-4.52-6.34-7.74-9.72-11.83
	c-0.34-0.4-0.56-0.35-0.66,0.16l-2.01,9.75c-0.1,0.46-0.44,0.82-0.88,0.94l-0.42,0.12c-0.27,0.08-0.52-0.14-0.51-0.41
	c0.62-11.18,0.24-22.2-1.13-33.05c-0.07-0.52,0.12-0.63,0.54-0.33c1.82,1.28,3.51,2.76,5.08,4.44c3.87,4.14,7.72,8.61,11.56,13.4
	c0.39,0.49,0.54,0.43,0.47-0.2c-0.71-5.82-1.21-12.07-1.5-18.75c-0.11-2.57-0.92-4.66-2.41-6.28c-2.95-3.19-5.9-6.41-8.84-9.62
	c-0.49-0.53-1.12-1.04-1.92-1.5c-0.33-0.2-0.74-0.02-0.84,0.35c-0.8,3.08-1.29,6.14-1.49,9.14c-0.02,0.23-0.13,0.41-0.32,0.53
	c-0.47,0.29-1.09,0-1.16-0.56c-1.08-10.08-2.95-20.22-5.62-30.4c-0.11-0.44,0.37-0.77,0.74-0.53c0.14,0.1,0.33,0.31,0.53,0.63
	l18.93,17.23c0.05,0.04,0.07,0.03,0.04-0.03c-1.48-4.21-2.56-8.27-3.25-12.19c-0.85-4.86-2.66-7.63-6.39-10.74
	c-4.08-3.4-7.6-6.42-10.57-9.07c-0.4-0.36-0.64-0.27-0.71,0.26l-0.68,6.11c-0.36,0.62-0.56,0.92-0.59,0.9
	c-0.48-0.15-0.89-0.6-1.09-1.19l-4.33-12.74l-3.85-10.51c-0.16-0.46,0.37-0.84,0.75-0.53l15.93,12.98c0.61,0.5,0.8,0.37,0.56-0.38
	c-1.45-4.41-3.18-8.32-5.22-11.72c-0.93-1.56-2.44-3.07-4.54-4.56c-1.71-1.21-3.36-2.49-4.95-3.85c-1.01-0.87-2.19-1.12-3.16-2.19
	c-1.04-1.14-2.29-1.8-3.76-1.98c-0.28-0.03-0.57,0.14-0.64,0.41c-0.15,0.52-0.4,1-0.75,1.43c-0.28,0.35-0.6,0.38-0.94,0.1
	c-2.71-2.27-5.06-4.78-7.05-7.54c-0.11-0.14-0.24-0.17-0.39-0.09l-0.33,0.16c-0.31,0.16-0.43,0.54-0.27,0.85l3.39,6.74
	c0.11,0.21,0.04,0.34-0.2,0.38l-0.37,0.08c-0.31,0.05-0.62-0.07-0.81-0.31l-5.47-7.12c-0.59-0.77-1.79-0.65-2.21,0.22L775.09,274.4z
	 M787.99,306.66c-0.24-0.7-1.21-0.74-1.5-0.05l-1.59,3.71c-0.07,0.16-0.09,0.35-0.04,0.52l4.9,18.87c0.19,0.71,1.13,0.83,1.49,0.19
	l2.66-4.87c0.11-0.2,0.13-0.43,0.07-0.64L787.99,306.66z M829.55,479.67c0.32-0.95,0.49-1.9,0.51-2.86c0.01-0.2-0.1-0.29-0.33-0.28
	l0,0c-0.01,0-0.02,0-0.03,0c-0.16,0.04-0.24,1.37-0.25,4c0,0.01,0,0.02,0.01,0.02l0,0c0.05,0,0.07-0.02,0.05-0.07
	c-0.03-0.12-0.05-0.24-0.04-0.37C829.47,479.98,829.49,479.83,829.55,479.67z M792.59,507.6c0.23-0.03,0.38-0.02,0.45,0.02
	c0.26,0.15,0.29,0.53,0.07,0.74c-1.99,1.79-4.19,2.96-5.54,5.44c-2.08,3.83-3.29,7.96-3.63,12.4c-0.02,0.25,0.25,0.4,0.46,0.26
	c2.83-1.99,5.84-4.03,9.04-6.14c2.17-1.43,3.85-3.25,5.05-5.46c2.3-4.25,3.1-9.17,2.38-14.75c-1.33,0.22-2.58,0.84-3.77,1.85
	c-1.6,1.37-2.66,2.22-3.18,2.54c-3.06,1.89-6.07,3.76-9.01,5.61c-1.51,0.95-2.66,2.4-3.25,4.09l-5.02,14.57
	c-0.47,1.35-0.19,1.54,0.85,0.54c1.29-1.23,2.56-2.66,3.06-4.43c0.76-2.72,1.65-5.52,2.65-8.37
	C784.88,511.64,787.82,510.01,792.59,507.6z M822.91,514.67c-1.93,5.68-4.5,11.32-7.72,16.95c-0.77,1.34-1.26,2.89-1.48,4.64
	c-0.07,0.53,0.07,0.59,0.39,0.15c1.22-1.67,2.25-3.39,3.08-5.17c2.51-5.33,4.55-10.78,6.1-16.34c0.02-0.08-0.01-0.13-0.09-0.16
	l-0.26-0.09C822.93,514.66,822.92,514.66,822.91,514.67z M782.6,542.4c0.12-0.01,0.19-0.07,0.22-0.17c0.05-0.17-0.01-0.23-0.17-0.15
	c-2.82,1.25-5.74,2.46-8.76,3.63c-2.76,1.06-4.81,2.72-6.14,5c-1.54,2.62-2.86,5.49-3.98,8.62c-0.17,0.49-0.07,0.56,0.32,0.21
	c2.79-2.55,3.35-7.5,5.89-10.52c0.75-0.9,1.37-1.46,1.85-1.66c3.75-1.58,7.26-3.22,10.54-4.9
	C782.41,542.42,782.5,542.41,782.6,542.4z"/>
<path class="st0" d="M631.56,82.75c-0.04,0.49-0.46,0.86-0.96,0.83l-1.09-0.08c-0.49-0.03-0.86-0.46-0.83-0.96l0.1-1.33
	c0.04-0.49,0.46-0.86,0.96-0.83l1.09,0.08c0.49,0.03,0.86,0.46,0.83,0.96L631.56,82.75z"/>
<path class="st0" d="M538.81,134.11c16.05,14.66,30.08,30.83,42.89,48.43c6.16,8.46,11.81,15.54,16.96,21.24
	c6.99,7.73,13.11,14.98,18.4,21.72c2.01,2.56,3.81,5.36,5.44,8.4c0.05,0.11,0.14,0.13,0.24,0.08h0.01c0.12-0.07,0.14-0.16,0.09-0.28
	c-3.01-6.07-5.99-12.23-8.97-18.47c-12.98-27.28-29.81-51.26-50.49-71.94c-0.86-0.86-0.81-0.94,0.17-0.21
	c4.09,3.02,8.05,5.62,11.9,7.84c25.41,14.61,48.68,32.4,68.38,53.79c13.95,15.13,26.08,29.82,36.38,44.08
	c47.41,65.61,72.67,146.6,65.2,227.04c-4.12,44.38-19.89,87.46-52.98,118.64c-4.65,4.38-9.18,8.5-13.58,12.36
	c-0.12,0.11-0.24,0.1-0.35-0.02l-0.19-0.2c-0.01-0.01-0.01-0.03,0-0.04c2.83-2.59,5.44-5.94,7.8-10.03
	c8.73-15.07,14.54-32.01,17.44-50.83c1.41-9.09,2.02-18.95,1.84-29.58c-0.01-0.99-0.21-1.02-0.57-0.11
	c-8.4,21.36-21.37,39.18-38.91,53.47c-0.43,0.34-0.48,0.28-0.17-0.16c3.03-4.47,5.7-8.93,7.78-14.03
	c8.28-20.26,12.55-41.4,12.8-63.42c0.21-18.88-1.31-37.6-4.56-56.19c-0.03-0.13-0.11-0.19-0.24-0.17h-0.01
	c-0.14,0.02-0.2,0.1-0.19,0.24c0.88,13.93,0.73,27.74-0.44,41.43c-1.67,19.5-7.53,37.33-17.61,53.49
	c-4.61,7.4-10.01,14.66-16.17,21.78c-0.08,0.1-0.17,0.11-0.28,0.03l-0.01-0.01c-0.1-0.07-0.11-0.15-0.04-0.25
	c29.24-47.51,28.95-106.98,5.45-156.7c-2.04-4.32-4.52-7.93-7.47-10.87c-20.45-20.38-48.01-30.66-75.9-36.29
	c-7.12-1.44-14.47-2.26-22.09-2.46c-16.33-0.44-31.68,1.01-46.06,4.34c-12.58,2.92-22.9,5.95-30.96,9.09
	c-6.68,2.59-13.49,5.36-20.44,8.32c-2.58,1.1-2.8,0.75-0.64-1.06c15.61-13.07,32.7-23.18,51.28-30.32c0.99-0.38,0.96-0.47-0.08-0.26
	c-16.88,3.37-33.23,10.74-48.32,19.31c-5.79,3.29-11.64,7.46-17.57,12.48c-10.45,8.86-19.43,17.93-26.94,27.23
	c-12.22,15.1-22.71,31.67-31.51,49.71c-4.34,8.9-7.88,19.11-10.64,30.61c-0.01,0.04-0.03,0.07-0.08,0.05l-0.27-0.04
	c-0.12-0.02-0.19-0.1-0.17-0.22c2.55-31.34,14.51-59.27,35.86-83.8c27.28-31.32,61.34-50.96,102.2-58.93
	c0.11-0.02,0.21-0.08,0.28-0.17c0.19-0.25,0.12-0.36-0.19-0.34c-10.58,0.65-21.41,2.5-32.48,5.52c-17.21,4.7-31.27,12-45.81,21.91
	c-9.18,6.27-18.34,14.52-27.51,24.77c-22.79,25.5-38.56,54.52-47.29,87.05c-9.63,35.91-3.91,74.47,13.7,106.91
	c2.67,4.92,5.56,9.86,8.69,14.84c0.07,0.1,0.15,0.12,0.26,0.05h0.01c0.1-0.05,0.11-0.14,0.05-0.24c-1.14-2.06-2.11-4.13-2.93-6.19
	c-8.39-21.32-13.79-42.13-16.19-62.42c-1.12-9.56-1.26-18.06-0.88-27.3c0.07-1.41,0.16-1.41,0.29-0.01
	c1.23,12.88,4.21,25.7,8.94,38.46c5.33,14.4,11.32,28.48,18.01,42.27c0.05,0.1,0.13,0.13,0.24,0.09v-0.01
	c0.1-0.03,0.13-0.11,0.1-0.21c-3.46-9.61-5.67-19.55-6.64-29.82c-1.95-20.72-0.97-39.75,2.92-57.08
	c2.15-9.58,5.89-20.19,11.23-31.83c0.05-0.13,0.15-0.17,0.28-0.12l0.31,0.11c0.04,0.01,0.05,0.04,0.04,0.09
	c-6.29,21.54-5.38,46.37-0.54,67.79c7.27,32.08,22.17,60.25,44.72,84.52c15.18,16.34,33.85,31.39,54.19,41.02
	c30.05,14.23,61.95,20.86,95.71,19.87c9.66-0.28,20.37-1.34,32.13-3.18c44.92-7.03,88.75-21.42,127.95-43.78
	c0.88-0.51,0.95-0.43,0.17,0.25c-9.56,8.35-19.22,16.37-28.98,24.07c-20.33,16.01-42.29,28.22-65.86,36.61
	c-27.65,9.84-56.75,12.8-87.3,8.84c-27.88-3.61-55.65-11.89-80.46-25.3c-0.08-0.04-0.13-0.02-0.17,0.05h-0.01
	c-0.05,0.1-0.03,0.19,0.07,0.24c16.7,10.41,34.71,17.87,53.78,22.64c7.56,1.89,17.07,4.86,25.7,6.72c2.53,0.56,5.01,1.24,7.44,2.08
	c-8.05-1.37-16.02-3.08-23.92-5.13c-3.01-0.77-8.27-1.78-12.34-3.22c-1.81-0.62-3.22-0.89-4.22-0.81c-0.52,0.04-0.53,0.13-0.02,0.26
	l3.65,0.93c27.14,9.46,55.04,14.04,83.71,13.74c18.63-0.2,36.56-2.8,53.77-7.8c28.25-8.22,54.19-20.36,77.82-36.44
	c7.01-4.77,13.67-10.02,20.21-15.4c0.12-0.1,0.23-0.1,0.34,0.02l0,0c0.05,0.08,0.05,0.14-0.01,0.2c-5.84,5.68-11.8,11.3-17.9,16.85
	c-28.53,26.02-62.21,42.46-101.04,49.34c-17.31,3.06-34.87,4.04-52.69,2.92c-25.19-1.58-50.02-5.73-73.55-15.05
	c-0.09-0.03-0.15,0-0.2,0.08v0.01c-0.03,0.05-0.01,0.11,0.04,0.14c27.7,16.68,57.76,25.6,90.16,26.77
	c33.92,1.23,66.63-5.81,98.14-21.14c29.17-14.18,53.22-34.34,75.3-58.19c13.16-14.2,23.27-24.65,30.34-31.35
	c14.25-13.47,24.94-23.03,32.08-28.69c13.11-10.41,23.66-19.01,31.65-25.82c13.04-11.12,25.65-22.68,37.83-34.7
	c11.41-11.35,21.73-23.62,30.94-36.81c0.07-0.1,0.15-0.11,0.25-0.05l0.01,0.01c0.09,0.05,0.11,0.13,0.05,0.23
	c-2.43,4.4-4.63,8.6-6.6,12.58c-6.14,12.38-12.23,25.09-19.26,36.46c-5.26,8.53-10.25,16.12-14.92,22.76
	c-10.07,14.28-18.3,29.25-26.64,45.17c-7.18,13.71-15.44,27.89-23.81,38.81c-6.19,8.09-13.19,15.6-20.99,22.54
	c-0.95,0.84-1.1,0.72-0.48-0.38c6.71-11.75,11.5-24.12,17.22-36.33c3.93-8.36,9.01-18.51,15.24-30.46c0.28-0.54,0.2-0.61-0.25-0.19
	c-4.64,4.36-9.85,8.73-15.64,13.1c-0.78,0.59-1.35,1.43-1.71,2.53c-11.86,36.29-32.33,69.06-60.25,94.57
	c-35.85,32.76-78.26,49.16-127.21,49.19c-5.55,0-10.78-0.36-15.72-1.07c-0.19-0.02-0.29,0.05-0.34,0.23l-0.07,0.28
	c-0.01,0.04,0,0.08,0.04,0.09c4.72,1.65,9.24,3.19,13.55,4.64c25.61,8.57,50.73,6.33,75.68-3.83c15.29-6.21,27.9-13.24,37.83-21.1
	c3.52-2.78,7.11-5.65,10.76-8.58c11.18-8.98,21.07-19.47,30.11-30.69c4.38-5.44,8.36-11.25,11.92-17.41
	c0.44-0.75,1.18-1.28,2.03-1.42c7.39-1.31,14.69-3.59,21.91-6.83c17.46-7.85,34.2-17.75,50.22-29.71
	c19.93-14.88,35.79-31.42,47.58-49.61c6.01-9.28,11.5-20.49,16.5-33.66c4.97-13.1,8.13-26.38,9.49-39.84
	c0.21-2.11,0.32-2.1,0.33,0.02c0.16,66.06-28.5,131.85-84.34,170.03c-25.28,17.3-53.95,29.93-82.63,38.01
	c-4.57,1.29-9.43,2.16-14.58,2.62c-0.12,0.01-0.19,0.08-0.17,0.2v0.01c0.01,0.16,0.1,0.24,0.26,0.23
	c6.14-0.22,12.65,0.08,18.71-0.52c7.53-0.75,16.49-3.1,26.88-7.02c17.74-6.7,34.43-15.41,50.06-26.15c0.1-0.08,0.19-0.07,0.26,0.03
	l0.01,0.01c0.1,0.11,0.09,0.22-0.02,0.32c-2.35,2.29-4.62,4.66-6.63,7.27c-10.19,13.29-21.13,26.3-32.85,39.05
	c-4.85,5.29-9.97,10.33-15.37,15.14c-14.59,13.05-28.65,24.37-42.17,33.97c-8.56,6.08-17.75,12.28-27.59,18.6
	c-11.13,7.15-26.22,15.47-45.31,24.94c-5.42,2.69-11.07,4.58-16.69,6.68c-0.08,0.03-0.11,0.09-0.09,0.17v0.01
	c0.03,0.12,0.12,0.16,0.24,0.13c25.79-5.72,49.74-15.76,71.86-30.14c4.03-2.62,7.76-4.85,11.22-8.28c0.2-0.2,0.49-0.23,0.73-0.09
	c8.07,4.87,16.31,10.53,24.85,14.32c0.56,0.25,0.56,0.5,0,0.75c-1.58,0.71-3.2,1.51-4.62,2.53c-20.57,14.69-41.43,25.93-62.58,33.7
	c-27.7,10.17-57.92,16.92-90.66,20.24c-9.22,0.94-18.22,0.76-27.52,0.83c-0.13,0-0.14,0.04-0.03,0.12c0.08,0.05,0.12,0.05,0.13-0.02
	c0.01-0.04,0.04-0.07,0.1-0.07c10.25,0.89,20.87,2.91,31.27,3.44c26.64,1.35,50.9-0.8,75.5-7.19c17.25-4.48,34.15-10.32,50.7-17.53
	c2.44-1.06,4.82-2.26,7.14-3.59c0.12-0.07,0.21-0.04,0.26,0.08h0.01c0.07,0.12,0.04,0.21-0.08,0.28
	c-7.27,4.43-14.82,8.33-22.68,11.69c-20.12,8.62-41.55,15.22-61.45,19.6c-3.85,0.85-7.95,1.48-12.29,1.9
	c-0.01,0-0.02,0.01-0.02,0.02c0.03,0.19,0.05,0.27,0.05,0.27c-0.01-0.08,0.01-0.11,0.08-0.1c4.71,0.33,7.91,0.44,9.62,0.34
	c23.27-1.41,45.81-6.28,67.62-14.62c0.57-0.05,0.87,0.13,0.9,0.53c-6.08,3.23-12.17,6.51-18.45,9.2
	c-13.55,5.83-26.33,10.41-38.35,13.74c-35.44,9.84-74.75,10.39-111.17,3.85c-4.4-0.8-8.84-1.55-13.3-2.27
	c-0.81-0.13-1.59,0.28-1.95,1.02c-2.23,4.59-6.19,5.98-11.88,4.17c-0.56-0.17-0.58-0.39-0.05-0.65c2.19-1.07,3.85-2.47,4.99-4.21
	c0.95-1.43,0.71-1.68-0.72-0.73c-1.68,1.12-3.48,1.87-5.38,2.26c-5.38,1.09-10.27,0.99-14.66-0.31c-4.89-1.44-9.56-3.22-13.99-5.32
	c-0.15-0.08-0.27-0.03-0.35,0.12l0,0c-0.08,0.15-0.05,0.27,0.09,0.36c11.41,7.29,23.66,13.08,36.76,17.36
	c10.84,3.54,21.18,6.19,31.01,7.92c0.81,0.14,0.8,0.22-0.02,0.22c-8.05,0.01-15.77-0.15-23.15-0.49c-6.6-0.29-15.22-1.56-25.83-3.79
	c-12.19-2.56-25.48-6.69-39.89-12.4c-10.94-4.34-21.23-8.81-30.87-13.41c-1.71-0.82-3.32-1.67-4.85-2.57c-0.96-0.57-1-0.5-0.13,0.19
	c11.06,8.78,22.96,16.08,35.73,21.87c9.65,4.38,19.87,7.95,30.67,10.7c17.36,4.43,33.77,6.91,49.21,7.46
	c11.2,0.4,23.55-0.04,37.06-1.34c9.73-0.93,19.19-2.56,28.38-4.88c0.14-0.03,0.24,0.02,0.29,0.16l0,0c0.04,0.14,0,0.23-0.13,0.27
	c-21.86,8.33-44.31,13.22-67.86,17.14c-8.62,1.44-18.26,2.42-28.9,2.93c-34.1,1.67-65.32-3.68-93.66-16.04
	c-18.04-7.87-36.37-19.08-55-33.66c-9.91-7.75-18.89-16.9-27.54-26.21c-3.85-4.13-7.05-8.63-9.63-13.48
	c-0.53-1.02-2.18-2.71-3.35-3.55c-6.02-4.35-12.12-8.74-16.41-14.8c-1-1.42-1.12-1.35-0.36,0.21c1.69,3.42,3.39,6.9,5.1,10.43
	c6.04,12.5,13.71,23.73,23.07,34.28c2.79,3.14,5.78,5.91,8.96,8.32c1.29,0.97,1.18,1.18-0.34,0.61
	c-13.25-4.97-24.81-12.16-34.66-21.58c-12.03-11.5-21.99-24.71-29.89-39.64c-2.15-4.08-4-8.33-5.54-12.75
	c-0.04-0.12-0.12-0.15-0.23-0.12h-0.01c-0.09,0.02-0.12,0.08-0.11,0.17c6.96,37.66,37.24,65.94,69.25,83.99
	c9.43,5.32,18.75,10.34,27.98,15.06c3.61,1.84,6.81,3.27,9.61,4.26c2.15,0.75,2.1,0.95-0.15,0.57c-12.68-2.13-25.13-5.22-37.38-9.31
	c-16.94-5.65-32.57-13.54-46.88-23.67c-26.17-18.52-48.14-41.01-63.77-68.2c-8.36-14.53-13.99-30.3-16.9-47.32
	c-0.03-0.19-0.14-0.26-0.33-0.25l-0.27,0.02c-0.01,0-0.01,0.01-0.01,0.02c0.16,5.04,0.56,9.61,1.18,13.73
	c3.98,26.31,17.34,49.35,35.08,69.76c12.98,14.94,28.28,28.11,45.91,39.51c7.5,4.85,15.02,9.67,23.02,13.85
	c11.08,5.81,22.49,10.94,34.18,15.42c0.08,0.03,0.1,0.08,0.07,0.15v0.01c-0.02,0.08-0.08,0.11-0.16,0.09
	c-15.54-3.92-30.59-8.74-45.17-14.46c-29.47-11.58-54.33-29.59-74.58-54.06c-16.27-19.66-27.22-41.7-32.85-66.13
	c-3.19-13.91-4.89-28.29-5.08-43.17c-0.01-0.49-0.09-0.5-0.23-0.03c-2.82,9.01-4.81,18.28-5.95,27.79
	c-0.74,6.09-0.57,11.87,0.51,17.32c0.39,1.97,0.01,2.14-1.16,0.49c-11.36-16.05-19-33.93-22.92-53.6
	c-0.78-3.96-1.79-8.39-3.02-13.33c-2.66-10.76-9.08-18.05-19.25-21.85c-0.56-0.21-0.96-0.69-1.08-1.26
	c-3.27-16.32-4.58-32.41-4.57-48.74c0-0.7-0.09-0.71-0.26-0.03c-2.51,9.35-4.26,19.4-9.08,27.44c-1.19,1.99-2.78,3.36-4.77,4.09
	c-7.6,2.76-11.61-18.54-12.35-22.91c-4.09-24.47-4.92-49.02-2.46-73.65c0.12-1.21,0.03-1.22-0.28-0.05
	c-8.96,33.5-9.44,67.52-1.44,102.06c0.64,2.79,1.56,4.76,3.41,6.95c2.87,3.37,5.8,6.82,8.77,10.37c0.35,0.43,0.39,0.87,0.14,1.35
	l-0.2,0.38c-0.17,0.34-0.64,0.4-0.92,0.13c-2.98-3.04-5.5-6.21-7.59-9.52c-1.13-1.8-1.45-1.66-0.96,0.4
	c1.09,4.57,2.49,9.1,4.2,13.62c0.52,1.38,1.62,2.27,1.28,3.91c-2.39,11.37,0.52,20.74,8.75,28.12c0.75,0.66,1.26,1.5,1.54,2.5
	c1.67,5.97,3.53,11.44,5.61,16.4c10.37,24.8,23.58,47.66,39.63,68.59c4.07,5.3,8.58,10.09,13.18,14.75c0.74,0.75,0.7,0.8-0.14,0.15
	c-9.82-7.65-19.11-16.16-27.84-25.54c-18.67-20.05-34.41-41.7-47.22-64.94c-16.9-30.67-26.81-63.75-28.39-98.86
	c-0.83-18.46-0.02-37.32,2.43-56.56c0.49-3.8,1.5-10.29,3.05-19.44c2.72-16.08,6.5-32.93,9.46-48.68c0.9-4.84,1.7-11.88,2.56-20.15
	c0.03-0.32-0.02-0.34-0.16-0.04c-11.46,23.84-19.41,48.82-23.89,74.97c-1.32,7.66-2.49,16.02-3.51,25.08
	c-0.04,0.37-0.32,1.1-0.82,2.18c-0.16,0.34-0.13,0.66,0.1,0.96c6.99,9.01,7.4,21.74-2.38,28.95c-0.87,0.65-1.87,0.82-3,0.48
	c-8.08-2.38-9.71-14.28-10.14-21.5c-0.88-15.03-0.13-30.91,2.26-47.64c2.71-19.06,6.76-36.96,12.11-53.68
	c0.02-0.08,0-0.13-0.08-0.16h-0.01c-0.07-0.03-0.12-0.01-0.15,0.07c-2.76,5.85-4.98,11.06-6.67,15.64
	c-12.11,32.74-18.62,66.67-19.51,101.78c-0.09,3.07,0.1,5.89,0.2,8.92c0.1,3.06-0.28,3.12-1.12,0.17
	c-3.55-12.36-4.76-25.13-3.62-38.32c0.11-1.25,0.33-2.44,0.66-3.56c0.33-1.08,0.03-1.29-0.87-0.61
	c-4.17,3.11-10.47,7.01-12.08,12.14c-0.71,2.26-0.32,2.46,1.17,0.62c1.72-2.13,4.33-4.22,7.8-6.28c0.36-0.21,0.57-0.11,0.61,0.31
	c0.41,4.13,0.51,8.09,0.29,11.85c-0.04,0.71-0.52,1.31-1.2,1.49c-3.96,1.1-6.23,3.58-6.83,7.44c-0.8,5.11-0.99,11.4-0.61,18.87
	c0,0.05-0.02,0.08-0.08,0.09c-0.1,0.01-0.14,0.01-0.13,0.01c0.05,0.03,0.07,0.02,0.05-0.03c-3.65-22.25-3.52-44.24,0.41-65.97
	c6.39-35.27,22.63-69.24,43.19-97.64c0.9-1.25,0.81-1.34-0.32-0.28c-5.1,4.86-10.09,10.57-14.98,17.12
	c-8.15,10.95-14.96,22.03-20.44,33.22c-16.16,33.05-21.86,67.78-17.08,104.22c0.9,6.98,2.21,13.79,3.91,20.44
	c4.36,17.09,9.79,33.58,16.29,49.46c2.26,5.5,4.92,10.9,8,16.19c0.05,0.1,0.03,0.17-0.05,0.23h-0.01c-0.08,0.05-0.14,0.03-0.2-0.04
	c-20.68-29.28-34.35-61.38-41.01-96.34c-2.28-12-3.24-25.45-2.86-40.35c0.71-27.37,8.03-53.18,21.97-77.43
	c4.28-7.43,9.04-14.69,14.28-21.79c3.69-5,8.34-10.53,13.91-16.59c7.68-8.36,16.82-17.47,27.41-27.35c1.11-1.04,1.84-2.15,2.22-3.64
	c4.46-17.7,11.85-34.65,22.16-50.85c0.33-0.51,0.59-1.08,0.77-1.68c0.21-0.66,0.38-1.3,0.5-1.87c1.09-4.95,2.16-9.72,3.22-14.33
	c1.25-5.5,2.56-11.13,3.92-16.87c0.15-0.68,0.01-0.74-0.43-0.21c-2.79,3.36-6.16,6.45-9.63,9.09c-13,9.89-24.38,20.05-34.16,30.49
	c-13,13.89-25.59,32.05-35.16,50.16c-11.67,22.08-21.08,42.45-24.85,66.17c-0.02,0.14-0.11,0.21-0.25,0.2l-0.33-0.04
	c-0.01,0-0.02-0.01-0.02-0.03c0.75-9.62,1.7-19.35,2.83-29.17c1.82-15.9,5.33-30.92,10.53-45.05c13.81-37.57,37.43-70.29,66.14-98.3
	c0.08-0.07,0.08-0.14,0.01-0.22l0,0c-0.1-0.11-0.2-0.12-0.31-0.04c-14.43,10.81-28.01,23.36-39.42,37.53
	c-22.9,28.45-38.67,60.16-47.31,95.16c-1.86,7.58-3.39,16.67-4.57,27.29c-0.01,0.08-0.05,0.11-0.13,0.1
	c-0.1-0.01-0.14-0.01-0.14-0.01c0.03,0,0.04-0.01,0.04-0.04c0.39-45.48,11.03-93.04,38.03-130.58
	c14.84-20.65,32.28-38.66,52.33-54.02c8.49-6.51,18.4-13.66,29.72-21.45c34.37-23.63,73.07-43.72,111.75-60.56
	c2.06-0.89,4.14-1.68,6.27-2.37c0.75-0.24,0.74-0.35-0.05-0.34c-14.79,0.32-28.73,3.15-41.83,8.48
	c-21.24,8.64-40.61,18.99-60.85,31.24c-29.68,17.97-57.41,39.7-84.93,64.85c-2.96,2.71-5.53,5.41-7.68,8.08
	c-0.03,0.03-0.07,0.04-0.1,0.01l-0.22-0.17c-0.08-0.05-0.09-0.13-0.03-0.21c9.84-13.35,20.86-25.62,33.05-36.82
	c5.2-4.77,10.75-9.36,16.64-13.78c9.06-6.77,18.06-13.22,27.01-19.34c5.74-3.91,13.75-8.85,24.02-14.79
	c6.67-3.86,13.11-7.31,19.31-10.37c17.71-8.73,35.32-16.84,52.84-24.34c14.51-6.2,29.53-11.56,45.08-16.09
	c14.14-4.11,28.07-7.98,41.8-11.61c8.69-2.3,17.06-4.31,25.1-5.99c1.08-0.23,1.07-0.36-0.03-0.39c-8.87-0.31-17.58,0.08-26.11,1.16
	c-15.2,1.93-33.43,5.19-49.28,9.78c-31.3,9.06-62.53,22.65-91.14,38.94c-1.8,1.04-4.86,1.46-9.18,1.28
	c-0.38-0.02-0.57-0.22-0.57-0.6c0.04-9.26,2.52-17.06,5.72-25.54c0.64-1.71,1.34-3.48,3.05-4.36c17.25-8.97,34.57-16.26,51.98-21.86
	c22.57-7.26,43.43-12.32,62.61-15.16c18.45-2.74,37.41-3.84,56.86-3.28c15.24,0.44,28.73,3.28,43,9.18
	c16.29,6.75,31.19,15.04,44.71,24.86c10.84,7.89,21.36,16.35,31.56,25.38c1.09,0.97,2.56,2.82,4.41,5.57
	c0.36,0.52,0.98,1.02,1.41,1.53c0.46,0.54,0.39,0.62-0.2,0.22c-1.47-0.98-2.98-2.71-4.93-1.55c-2.06,1.23-3.99,2.54-5.79,3.95
	c-0.38,0.29-0.34,0.5,0.13,0.61l15.71,3.78c0.83,0.33,1.68,0.38,2.56,0.17c0.66,0.36,1.29,0.81,1.86,1.36
	c5.82,5.42,9.71,9.43,11.67,12.02c2.22,2.94,1.14,5.31,0.72,8.46c-0.12,0.9,0.11,1,0.69,0.29c0.9-1.1,2.08-1.72,3.54-1.87
	c2.66-0.28,7.85,0.53,15.58,2.45l5.97,0.88c0.6,0.09,0.66-0.08,0.22-0.48c-2.5-2.25-4.31-5.06-6.59-7.56
	c-2.78-3.05-7.56-8.41-14.37-16.09c-0.49-0.56-1.74-1.72-3.76-3.5c-23.3-25.07-50.2-45.4-81.59-59.78
	c-22.1-10.14-46.11-18.29-70.05-20.28c-27.36-2.28-55.96,0.09-83.34,4.69c-35.79,6.02-69.23,17.12-100.33,33.31
	c-8.34,4.35-16.36,9.28-24.07,14.8c-0.25,0.19-0.27,0.15-0.09-0.09c0.82-1,1.72-1.93,2.71-2.79c3.19-2.76,6.34-5.49,9.47-8.21
	c11.96-10.37,25.53-18.66,40.27-25.69c24.86-11.84,51.71-18.25,79.23-21.21c11.23-1.2,24.83-1.31,36.83-1.82
	c0.01,0,0.01-0.01,0.01-0.01c0-0.01,0-0.02-0.01-0.02c-2.7-0.32-5.42-0.52-8.13-0.61c-24.56-0.8-49.25,1.42-74.12,6.65
	c-24.87,5.23-47.19,11.71-66.97,19.43c-14.84,5.8-28.11,12.05-40.27,21.14c-1.34,1.01-1.45,0.89-0.31-0.35
	c2.59-2.82,5.54-5.68,8.83-8.55c39.38-34.37,91.01-51.53,143.52-54.57c26.17-1.5,51.23-0.8,75.18,2.14
	c27.67,3.93,54.54,11.05,80.59,21.37c8.12,3.23,16.64,7.17,25.55,11.85c39.85,20.89,75.4,50.41,104.24,84.24
	c5.08,5.95,9.71,11.88,13.89,17.78c15.4,21.72,28.63,44.73,39.72,69c3.49,7.64,6.86,15.1,10.11,22.39c0.87,1.95,0.98,1.91,0.33-0.13
	c-5.68-17.58-12.93-35.02-21.72-52.34c-6.79-13.35-12.8-23.96-18.01-31.79c-8.69-13.07-15.2-22.43-19.53-28.09
	c-14.66-19.15-31.46-37.89-50.41-56.22c-5.09-4.92-9.93-9.02-14.53-12.35c-18.39-13.28-38.91-24.48-61.57-33.6
	c-28.98-11.67-59.04-19.26-90.1-23.04c-26.7-2.87-53.46-2.91-80.28-0.11c-0.05,0.01-0.09-0.01-0.12-0.05
	c-0.02-0.03-0.03-0.05-0.03-0.09c0.01-0.04,0.03-0.07,0.07-0.08c26.32-5.86,52.95-7.99,79.88-6.38c8.98,0.62,17.9,1.73,26.74,3.35
	c41.58,7.57,80.01,22.8,115.29,45.68c33.18,21.53,62.92,46.07,88.62,75.7c9.09,10.47,17.14,20.35,24.15,29.65
	c30.4,40.29,54.59,86.62,69.48,134.03c4.32,13.74,7.98,29.35,10.98,46.8c1.07,6.22,1.9,12.63,2.49,19.23
	c0.58,6.35,1.02,12.64,1.36,18.88c0.05,1.01,0.09,1.01,0.09,0c-0.01-8.61,0.4-17.72,0.02-26.45
	c-1.55-34.91-10.55-69.07-24.14-101.24c-10.21-24.19-22.1-47.64-35.66-70.39c-5.92-9.93-11.95-19.95-18.7-29.44
	c-17.61-24.75-35.93-46.33-54.95-64.74c-36-34.82-77.79-60.88-125.36-78.18c-26.15-9.5-51.65-15.29-76.5-17.37
	c-21.47-1.63-42.59-1.32-63.38,0.94c-1.12,0.12-1.16-0.02-0.1-0.4c9.14-3.34,18.76-6.79,28.14-8.51
	c25.34-4.64,50.59-1.97,75.41,4.72c10.57,2.86,18.82,5.3,24.74,7.34c8.08,2.77,16.23,5.91,24.47,9.41c0.69,0.29,0.7,0.25,0.05-0.12
	c-20.84-11.91-42.16-20.8-63.95-26.66c-5.42-1.46-13.6-2.83-24.53-4.12c-12.86-1.51-25.62-1.46-38.3,0.14
	c-0.03,0-0.04-0.01-0.04-0.03l-0.05-0.27c-0.01-0.09,0.02-0.14,0.11-0.17c20.98-5.75,42.25-8.56,63.79-8.39
	c35.7,0.27,71.34,11,101.67,29.5C520.76,120.39,529.73,126.78,538.81,134.11z M671.26,400.63c-0.52-3.32-1.22-6.68-2.07-9.86
	c-6.14-22.93-13.61-44.12-22.44-63.58c-7.32-16.14-16.84-33.47-28.56-51.97c-8.72-13.75-19.22-26.77-30.11-39.95
	c-16.82-20.32-35.5-37.33-56.05-51.05c-0.98-0.66-1.13-0.5-0.47,0.47c0.93,1.34,1.95,2.52,3.07,3.53
	c6.51,5.92,13.01,11.83,19.53,17.74c26.21,23.77,48.77,50.96,67.66,81.58c14.02,22.71,25.21,45.14,33.59,67.3
	c5.91,15.62,11.08,30.9,15.52,45.85C671.4,402.3,671.51,402.28,671.26,400.63z M485.45,224.19c-2.06-2.74-5.06-4.52-8.99-5.35
	c-0.56-0.12-0.97,0-1.22,0.34c-0.23,0.32-0.16,0.54,0.19,0.7l4.92,2.07c-1.8-0.24-3.56-0.41-5.31-0.51
	c-4.74-0.28-9.19-1.54-13.91-1.96c-3-0.27-5.81-0.76-8.41-1.47c-8.05-2.19-15.86-5.06-23.39-8.59c-0.19-0.09-0.24-0.23-0.16-0.41
	l0.11-0.26c0.01-0.05,0.04-0.07,0.1-0.05c8.85,2.91,17.73,5.59,26.65,8.03c2.52,0.69,5.09,1.02,7.71,1.01
	c0.63,0,0.71-0.21,0.23-0.63c-3.64-3.19-7.83-6.08-12.43-7.46c-5.65-1.69-11.78-3.06-18.42-4.12c-4.03-0.64-8.26-0.61-12.69,0.12
	c-7.55,1.24-14.64,2.92-21.25,5.02c-0.15,0.05-0.26,0.2-0.25,0.36c0.02,0.48,0.27,0.76,0.76,0.84c5,0.83,10.2,2.38,15.61,4.64
	c6.34,2.65,12.47,5.02,18.39,7.11c0.4,0.14,0.45,0.37,0.15,0.66c-1.44,1.44-5.81,2.1-7.8,2.52c-1.77,0.37-2.56,1.41-2.38,3.12
	c0.04,0.43-0.14,0.66-0.57,0.72c-5.74,0.83-10.96-1.35-16.72-0.58c-5.83,0.77-11.36,1.47-16.87-0.7c-5.83-2.29-11.29-4.35-16.4-6.19
	c-0.17-0.07-0.21-0.17-0.1-0.32l0.23-0.34c0.12-0.16,0.27-0.22,0.48-0.16c4.96,1.36,10.03,2.84,15.2,4.44
	c6.01,1.84,11.91,2.81,17.67,0.74c1.08-0.39,1.1-0.84,0.07-1.33c-9.52-4.5-19.83-7.31-30.95-8.44c-1.84-0.19-3.61-0.11-5.29,0.23
	c-8.9,1.81-17.22,4.69-24.97,8.64c-2.56,1.31-2.41,2.08,0.45,2.33c9.62,0.84,20.09,4.34,29.56,7.46c1.59,0.52,3.39,0.64,5.11,0.93
	c1.59,0.27,1.65,0.73,0.17,1.38c-3.74,1.66-6.82,1.72-9.29,5.42c-0.44,0.66-1.06,1.04-1.85,1.11c-6.96,0.69-14.29,1.72-21.99,3.11
	c-4.25,0.77-9.87,0.52-16.88-0.75c-0.2-0.03-0.32-0.24-0.25-0.43l0.11-0.33c0.12-0.36,0.47-0.59,0.84-0.57
	c7.78,0.37,15.76,1.41,23.16-1.49c1.51-0.6,1.49-1.14-0.04-1.66c-5.86-1.94-12.99-3.44-21.37-4.52c-2.66-0.34-5.01-0.29-7.05,0.13
	c-10.8,2.21-21.3,6.67-31.49,13.37c-4.5,2.96-9.24,7.61-14.22,13.94c-0.08,0.11-0.08,0.21,0.02,0.31l0.21,0.21
	c0.03,0.03,0.07,0.03,0.1,0c2.07-1.89,4.46-3.25,7.16-4.1c13.19-4.17,26.74-6.82,40.63-7.96c0.26-0.02,0.39,0.1,0.38,0.36
	l-0.29,11.35c-0.01,0.41,0.19,0.56,0.58,0.41c14.5-5.14,26.82-9.44,39.39-12.36c0.63-0.14,0.81,0.08,0.53,0.66l-4.21,8.87
	c-0.27,0.58-0.72,0.82-1.36,0.71c-1.12-0.19-2.27-0.16-3.43,0.08c-10.23,2.1-20.96,4.76-32.17,7.97c-1.32,0.37-2.51,1.19-3.8,1.54
	c-0.43,0.11-0.64-0.05-0.65-0.49l-0.34-8.41c-0.02-0.51-0.24-0.62-0.66-0.33c-0.57,0.4-1.12,0.7-1.81,0.87
	c-3.8,0.97-7.76,2.04-11.88,3.22c-1.38,0.39-2.1,1.3-2.18,2.72l-1,18.8c-0.02,0.45,0.19,0.6,0.61,0.46
	c15.56-5.32,31.12-9.26,46.67-11.84c0.49-0.08,0.72,0.13,0.69,0.63c-0.13,1.53-0.43,3.05-0.87,4.58c-0.1,0.33-0.36,0.58-0.7,0.64
	c-17.93,3.52-35.5,7.98-52.69,13.37c-0.27,0.09-0.41-0.01-0.4-0.29l0.51-24.49c0.01-0.46-0.21-0.62-0.64-0.48
	c-1.11,0.36-2.04,0.95-3.24,1.22c-15.42,3.57-30.1,9.1-44.04,16.57c-3.36,1.81-5.7,3.72-7.69,6.69c-1.45,2.18-4.8,7.48-10.03,15.88
	c-0.04,0.08-0.05,0.16-0.02,0.25c0.03,0.12,0.11,0.17,0.21,0.17c0.12,0.01,0.23-0.03,0.32-0.11c3.46-3.15,8.04-6.08,13.74-8.81
	c13.04-6.25,24.24-10.65,33.62-13.22c0.43-0.12,0.65,0.04,0.68,0.49c0.35,6.91,0.7,13.87,2.39,20.57c0.1,0.39,0.34,0.51,0.72,0.36
	c9.54-3.93,18.8-7.11,27.78-9.52c13.02-3.5,25.74-7.07,39.44-9.62c0.36-0.07,0.66,0.27,0.56,0.62l-0.1,0.35
	c-0.12,0.39-0.36,0.66-0.74,0.83l-4.39,1.86c-0.66,0.28-0.63,0.48,0.08,0.6l4.56,0.7c0.36,0.05,0.56,0.27,0.57,0.63
	c0.14,4.66,0.63,12.51,4.87,15.47c3.5,2.43,5.36,3.81,6.67,8.08c1.05,3.41,1.92,6.99,2.6,10.72c0.35,1.87,0.58,1.86,0.69-0.04
	c0.07-1.24,0.04-2.46-0.07-3.67c-0.53-5.83-0.75-11-0.65-15.48c0.1-4.31,1.72-7.93,4.87-10.87c4.64-4.33,8.13-5.09,6.63-13
	c-0.08-0.36-0.37-0.63-0.74-0.68c-5.33-0.56-10.6-1.59-15.85-3.08c-0.4-0.11-0.68-0.47-0.69-0.88l-0.04-6.69
	c0-0.49,0.24-0.74,0.73-0.73c5.21,0.03,10.65,0.47,16.31,1.31c0.77,0.12,1.28-0.21,1.5-0.96c2.93-9.95,7.1-20.14,12.49-30.58
	c0.32-0.6-0.04-1.34-0.71-1.47l-9.84-1.96c-0.03-0.01-0.05-0.03-0.04-0.07l0.03-0.33c0.02-0.19,0.12-0.27,0.31-0.26l18.78,0.59
	c1.69,0.05,1.98-0.56,0.87-1.84c-0.86-0.99-2.39-1.63-4.59-1.93c-0.04-0.01-0.07-0.03-0.07-0.08l0.01-0.32
	c0.01-0.34,0.17-0.51,0.51-0.53l21.52-1.38c0.34-0.02,0.56,0.37,0.34,0.63c-5.05,6.25-9.72,12.63-14.04,19.14
	c-0.29,0.44-0.17,0.68,0.35,0.73c6.52,0.56,13.07,1.45,19.65,2.7c0.45,0.09,0.76-0.08,0.94-0.5c4.28-10.3,11.17-19.06,18.35-27.9
	c0.26-0.32,0.22-0.77-0.1-1.02c-1.96-1.59-6.06-1.92-8.33-2.7c-2.41-0.84-2.33-1.22,0.21-1.17c3.99,0.09,7.61,1.56,11.52,2.05
	c1.82,0.23,3.69,0.44,5.65,0.64c1.6,0.16,1.72-0.2,0.37-1.06l-4.4-2.82c-0.51-0.33-0.47-0.49,0.14-0.48
	c7.12,0.09,14.42,0.73,21.9,1.92c0.22,0.03,0.29,0.33,0.11,0.46c-1.12,0.8-2.32,1.42-3.36,2.34c-5.3,4.8-10.09,10.01-14.38,15.63
	c-0.2,0.25-0.03,0.62,0.28,0.65c6.05,0.68,12.11,1.71,18.2,3.11c0.37,0.09,0.76-0.05,1-0.35c5.95-7.44,12.66-14.2,20.14-20.26
	c0.4-0.33,0.39-0.63-0.04-0.93L485.45,224.19z M299.79,234.98c-0.14,0.12-0.13,0.2,0.05,0.23c0.17,0.03,0.34,0.01,0.5-0.09
	c3.32-2.05,6.57-4.23,10.1-5.95c5.62-2.75,11.38-5.56,17.28-8.45c9.79-4.81,20.37-8.65,31.13-11.88c0.11-0.03,0.15-0.1,0.13-0.22
	l0,0c-0.03-0.12-0.1-0.16-0.22-0.14C336.7,211.78,317.04,220.61,299.79,234.98z M671.55,302.33c-7.23-20.77-18.26-38.15-29.91-55.41
	c-0.64-0.94-0.72-0.89-0.24,0.14c5.69,12.4,11.74,24.67,18.8,36.39c4.01,6.65,7.75,12.96,11.23,18.93c0.02,0.03,0.05,0.04,0.09,0.02
	C671.55,302.4,671.56,302.36,671.55,302.33z M489.43,273.96c0.47-1.73,1.26-3.31,2.4-4.73c3.26-4.07,10.19-3.35,14.99-3.42
	c0.48-0.01,0.94-0.2,1.29-0.52c2.91-2.74,5.43-5.87,7.56-9.44c0.1-0.15,0-0.35-0.17-0.37c-1.36-0.21-2.63-0.58-3.79-1.13
	c-3.96-1.86-8.23-4.03-12.82-6.51c-0.43-0.23-0.95-0.19-1.32,0.12l-10.15,8.29c-0.27,0.23-0.35,0.62-0.17,0.93
	c2.8,4.98,3.37,10.47,1.69,16.48c-0.03,0.13,0.01,0.22,0.13,0.26l0.29,0.09C489.39,274.02,489.42,274,489.43,273.96z M447.22,281.13
	c1.14-8.28,5.86-10.28,12.94-12.1c4.4-1.12,7.07-7.86,8.73-11.62c0.14-0.32-0.03-0.68-0.37-0.77c-5.09-1.45-10.77-2.76-15.48-5.24
	c-1.12-0.59-2.09-0.4-2.91,0.56c-3.1,3.61-6.14,7.59-9.11,11.91c-0.45,0.65-0.38,1.53,0.15,2.1c3.02,3.28,5.02,6.45,4.83,11.17
	c-0.1,2.33-0.09,4.78,0.01,7.37c0.03,0.8,0.17,0.82,0.44,0.07C446.79,283.63,447.04,282.47,447.22,281.13z M407.43,288.89
	c2.32-4.83,7.39-7.35,12.23-9.45c0.64-0.28,1.07-0.76,1.25-1.45l2.21-8.15c0.16-0.6-0.21-1.21-0.82-1.33
	c-6.27-1.28-12.36-2.94-18.3-5c-0.52-0.17-1.09,0.03-1.37,0.5c-2.74,4.68-5.3,9.35-7.66,14.05c-2.41,4.75,4.41,7.31,5.82,11.32
	c0.62,1.77,1.02,3.68,1.21,5.75c0.61,6.62,1.11,12.99,1.49,19.13c0.01,0.1,0.05,0.12,0.13,0.07c0.05-0.03,0.09-0.09,0.09-0.15
	C404.35,305.96,404.01,296.02,407.43,288.89z M210.34,303.94c-13.2,14.59-22.92,31.28-29.19,50.06
	c-4.01,12.03-5.41,24.03-5.18,35.91c0.02,1.04,0.16,1.05,0.44,0.05c2.52-9.36,5.17-18.53,7.93-27.52
	c6.83-22.19,16.58-42.82,29.25-61.89c0.01-0.02,0.01-0.05-0.01-0.08c-0.02-0.01-0.05-0.01-0.08,0.01
	C212.48,301.6,211.42,302.75,210.34,303.94z M312.78,329.7c0.15-1.79,0.52-1.83,1.1-0.13c1.79,5.21,5.13,14.92,10.35,17.09
	c3.11,1.29,7.89,2.42,9.12,5.95c0.97,2.81,1.68,5.74,2.14,8.8c0.01,0.11,0.08,0.15,0.17,0.14h0.01c0.14-0.01,0.21-0.08,0.2-0.22
	c-0.15-2.72-0.22-5.54-0.2-8.43c0.07-9.6,5.82-16.03,11.55-23.02c0.62-0.75,0.45-1.22-0.51-1.38c-4.01-0.69-7.81-1.41-11.41-2.15
	c-1.79-0.37-3.04-1.43-3.77-3.18c-2.06-5-3.85-10.49-5.34-16.46c-0.11-0.44-0.58-0.68-0.99-0.49c-0.58,0.26-1.17,0.48-1.77,0.65
	c-4.25,1.24-8.44,2.51-12.57,3.78c-8.44,2.6-16.68,6.4-25.1,9.48c-1.44,0.53-2.59,1.31-3.91,2.04c-0.31,0.16-0.69-0.01-0.75-0.35
	l-2.76-13.97c-0.1-0.5-0.38-0.65-0.85-0.45l-15.18,6.56c-0.48,0.21-0.68,0.57-0.59,1.08c1.21,7.27,2.86,14.82,4.92,22.66
	c0.05,0.21,0.17,0.25,0.35,0.14c5.72-3.35,11.74-6.01,18.04-8c8.66-2.74,17.47-4.89,26.42-6.5c0.19-0.03,0.31,0.04,0.34,0.23
	l0.08,0.32c0.08,0.39-0.07,0.64-0.45,0.74c-16.12,4.44-31.5,9.8-46.14,16.09c-0.34,0.14-0.59,0.04-0.73-0.29
	c-3.32-7.75-6.18-15.47-8.58-23.15c-0.16-0.52-0.45-0.6-0.86-0.24c-0.85,0.75-1.71,1.36-2.76,1.8c-7.19,3.06-14.87,7.17-23.02,12.34
	c-9.05,5.74-15.85,11.55-20.61,21.13c-2.29,4.59-4.46,9.13-6.5,13.63c-0.77,1.72-0.51,1.9,0.8,0.53c1.32-1.37,2.58-3.08,4.19-4.45
	c9.57-8.15,20.02-15.13,31.35-20.93c1.8-0.92,3.62-1.75,5.46-2.51c0.34-0.14,0.6-0.04,0.76,0.27c2.78,5.18,6.31,10.55,10.59,16.11
	c0.27,0.36,0.56,0.36,0.84,0c1.17-1.5,2.51-2.63,4.01-3.38c16.24-8.14,33.4-14.14,51.46-17.98c0.51-0.11,0.8-0.43,0.84-0.95
	L312.78,329.7z M284.15,362.66c0.21,3.43,1.34,6.71,3.41,9.84c3.41,5.16,7.39,10.11,11.92,14.89c0.26,0.28,0.62,0.45,1,0.46
	c3.34,0.19,12.41,0.87,14.31,3.62c0.28,0.41,0.44,0.37,0.45-0.13c0.25-7.98,4.4-15.83,8.19-22.87c0.5-0.95,0.25-1.22-0.74-0.83
	c-0.77,0.31-1.59,0.47-2.45,0.49c-3.52,0.1-7.23,0.08-11.13-0.07c-1.73-0.07-3.1-0.77-4.07-2.14c-4.63-6.49-8.41-13.9-11.32-22.21
	c-0.17-0.5-0.76-0.73-1.23-0.48c-4.26,2.28-8.59,4.44-12.98,6.45c-8.14,3.74-15.75,7.91-22.83,12.52c-1.32,0.86-2.51,1.9-3.59,3.11
	c-0.33,0.36-0.6,0.33-0.83-0.1c-1.68-3.15-3.99-6.4-6.93-9.77c-0.36-0.41-0.94-0.54-1.44-0.33c-4.26,1.81-8.32,4.15-12.16,7.03
	c-0.27,0.21-0.37,0.58-0.24,0.89c3.06,7.53,8.56,13.72,13.55,20.29c0.14,0.19,0.43,0.21,0.59,0.04c1.82-1.82,3.84-3.46,6.05-4.89
	c9.67-6.31,20.15-11.8,31.48-16.46C283.77,361.78,284.11,361.98,284.15,362.66z M181.03,462.19c0.52-7.84,0.84-16.48,0.96-25.93
	c0.03-2.71,0.31-4.51,0.81-5.42c8.8-15.84,20.55-29.25,35.25-40.23c0.46-0.34,1.1-0.2,1.36,0.31c0.48,0.88,1.01,1.72,1.61,2.52
	c4.54,6.1,9.32,11.89,14.32,17.36c0.9,0.99,1.5,2.18,2.37,3.2c0.16,0.19,0.45,0.21,0.62,0.04c4.24-3.92,8.78-7.61,13.62-11.05
	c11.51-8.19,23.55-15.61,36.12-22.25c0.62-0.33,0.84-1.12,0.47-1.72l-6.03-9.65c-0.36-0.58-1.18-0.64-1.63-0.13
	c-0.66,0.75-1.43,1.37-2.27,1.86c-11.53,6.75-21.73,13.38-30.61,19.93c-1.49,1.09-2.71,2.33-3.97,3.65c-0.4,0.43-0.8,0.41-1.19-0.01
	c-7.18-8.02-12.95-16.85-17.3-26.49c-0.19-0.4-0.46-0.48-0.82-0.23c-15.41,10.87-28.83,23.23-37.17,40.75
	c-11.52,24.19-18.01,49.38-19.46,75.58c-0.29,5.42-0.28,11.89,0.05,19.4c0,0.01,0.01,0.01,0.01,0.01c0.01,0,0.02,0,0.02-0.01
	c1-5.77,1.75-11.67,3.37-17.35c0.73-2.58,1.21-5.22,1.43-7.91c0.01-0.04,0.03-0.07,0.08-0.07l0.28,0.03
	c0.2,0.01,0.34,0.19,0.33,0.38c-1.37,23.52,0.19,46.95,4.68,70.3c2.88,14.98,5.69,26.99,8.44,36.03
	c6.57,21.66,16.19,42.2,28.83,61.64c0.08,0.1,0.16,0.12,0.27,0.07l0.01-0.01c0.12-0.07,0.15-0.16,0.09-0.28
	c-2.28-4.54-4.1-8.56-5.46-12.04c-9.68-24.72-17.1-50.81-20.87-77.04c-0.86-5.96-1.7-11.84-2.54-17.64
	c-0.49-3.39-0.22-6.82,0.84-10.3c2.52-8.27,5.72-15.96,9.6-23.03c4.14-7.55,9.66-14.44,14.8-21.28c0.28-0.37,0.6-0.4,0.95-0.11
	c8.62,7.28,17.56,14.27,26.83,20.95c1,0.73,2.05,1.72,2.53,2.88c0.22,0.53,0.5,0.57,0.86,0.12c5.85-7.51,12.37-15.18,19.55-23.01
	c3.24-3.53,6.17-7.35,9.2-10.99c0.14-0.16,0.09-0.4-0.1-0.5c-3.26-1.66-6.26-4.11-8.98-7.35c-0.64-0.77-1.34-0.82-2.07-0.11
	c-6.62,6.38-13.16,13.33-19.63,20.85c-0.34,0.39-0.71,0.43-1.11,0.09c-1.26-1.07-2.33-2.32-3.69-3.27
	c-9.34-6.5-17.72-12.84-24.52-21.81c-0.37-0.49-0.74-0.49-1.12,0c-2.89,3.83-5.53,7.43-7.91,10.82
	c-9.74,13.87-18.67,31.98-18.37,48.73c0.01,0.25-0.17,0.46-0.43,0.49l-0.28,0.04c-0.14,0.01-0.22-0.04-0.24-0.19
	c-2.1-13.81-2.81-26.96-2.14-39.46c0.12-2.21,0.61-4.35,1.47-6.43c2.53-6.14,5.65-12,9.54-17.52c6.81-9.67,14.66-18.63,23.53-26.88
	c0.27-0.25,0.56-0.25,0.83,0l17.23,15.43c0.26,0.23,0.51,0.23,0.76-0.02c7.27-7.18,15.37-14.09,24.32-20.73
	c3.57-2.65,7.61-4.31,11.39-6.67c0.38-0.24,0.47-0.57,0.25-0.97l-1.24-2.32c-0.03-0.07-0.02-0.12,0.03-0.17l0.36-0.24
	c0.2-0.14,0.46-0.12,0.62,0.05c4.77,5.02,9.22,9.52,13.34,13.48c1.56,1.49,3.4,2.77,5.52,3.8c0.33,0.15,0.66,0.2,1.02,0.12
	l14.8-3.25c0.43-0.09,0.74-0.46,0.77-0.89c0.54-7.4,1.9-14.56,4.07-21.47c0.1-0.32-0.21-0.62-0.52-0.5
	c-4.78,1.73-10.06,3.15-15.83,4.23c-2.45,0.45-4.53-0.17-6.26-1.86c-3.96-3.89-7.98-8-12.04-12.33c-0.22-0.24-0.59-0.26-0.83-0.05
	c-2.38,1.98-4.85,4.01-7.48,5.68c-9.87,6.27-19.07,13.4-27.61,21.41c-0.99,0.93-1.85,1.98-2.6,3.15c-0.27,0.41-0.59,0.46-0.96,0.13
	l-18.63-16.33c-0.27-0.25-0.56-0.25-0.85-0.02c-3.76,2.98-6.77,5.67-9.02,8.09c-4.44,4.75-8.83,10.1-13.17,16.04
	c-5.68,7.78-9.94,16.44-12.8,25.95C181.12,464.29,180.89,464.25,181.03,462.19z M332.88,444.01c-1.07,12.74-0.48,25.83,0.75,38.93
	c0.01,0.09,0.05,0.13,0.14,0.13h0.01c0.12-0.01,0.17-0.07,0.17-0.17c-0.73-32.36,4.73-64.57,14.81-95.77c0.03-0.1,0-0.16-0.1-0.2
	h-0.01c-0.12-0.05-0.2-0.01-0.25,0.11C340.55,404.84,334.48,424.69,332.88,444.01z M250.5,458.78c4.22-5.26,9.5-10.2,15.85-14.81
	c0.11-0.08,0.12-0.23,0.02-0.32l-4.65-4.03c-0.1-0.09-0.21-0.09-0.31-0.01c-7.71,5.77-14.88,11.26-21.53,16.47
	c-2.6,2.04-4.99,4.36-7.14,6.95c-0.26,0.32-0.54,0.34-0.86,0.08l-11.42-9.84c-0.31-0.25-0.58-0.23-0.82,0.09l-3.38,4.44
	c-0.27,0.36-0.27,0.71,0.02,1.06c6.22,7.36,14.13,12.93,21.24,18.74c0.29,0.24,0.58,0.22,0.84-0.05
	c6.56-7.12,13.38-13.89,20.47-20.31c0.5-0.46,1.26-0.43,1.72,0.05c7.88,8.28,16.96,15.17,27.24,20.67
	c2.7,1.44,12.37-2.64,15.68-4.12c0.8-0.35,1.28-1.17,1.19-2.03c-0.65-7.16-0.61-14.06,0.12-20.69c0.02-0.22-0.21-0.37-0.4-0.26
	c-3.87,2.32-14.08,7.71-18.71,6.21c-6.21-2.01-12.48-7.23-17.75-11.68c-0.33-0.27-0.6-0.23-0.83,0.14c-0.4,0.66-0.88,1.24-1.46,1.72
	c-4.98,4.2-9.82,8.24-14.54,12.12C249.02,461.07,248.83,460.87,250.5,458.78z M283.64,500.02c-4.31-2.28-8.35-4.65-12.13-7.13
	c-0.34-0.23-0.63-0.17-0.88,0.16c-1.2,1.65-2.41,3.59-3.64,5.82c-0.77,1.38-0.19,2.15,0.58,3.22c6.65,9.33,16.88,15.15,27.2,18.93
	c1.56,0.58,3.11,0.56,4.64-0.04c3.85-1.49,7.64-3.55,11.38-6.16c0.58-0.4,0.86-1.11,0.71-1.8c-1.17-5.16-2.13-10.04-2.87-14.65
	c-0.32-1.94-0.44-3.91-0.38-5.91c0.01-0.41-0.49-0.63-0.78-0.34c-3.8,3.76-8.69,6.7-14.64,8.83
	C289.86,502.02,286.8,501.7,283.64,500.02z M247.03,522.44c-8.95-5.62-18.88-10.51-29.77-14.66c-0.45-0.17-0.74-0.03-0.89,0.41
	c-1.54,4.59,0.76,9.56,3.12,13.62c1.65,2.82,3.52,5.91,6.64,7.14c9.09,3.61,17.48,7.89,25.19,12.85c0.32,0.2,0.54,0.13,0.71-0.21
	c4.52-9.23,9.81-17.78,15.86-25.64c0.44-0.57,0.32-1.37-0.27-1.78c-3.13-2.19-5.89-4.5-8.26-6.95c-0.28-0.29-0.54-0.27-0.77,0.05
	l-10.82,15.01C247.55,522.57,247.31,522.63,247.03,522.44z M205.49,528.92c-3.65,7.49-6.42,15.32-8.32,23.51
	c-1.51,6.54,0.02,10.86,2.06,16.92l1.66,5.3c0.16,0.51,0.27,0.5,0.35-0.03c0.84-6.44,3.01-13.22,6.51-20.35
	c4.22-8.58,8.72-16.35,13.53-23.29c0.11-0.16,0.11-0.36,0.01-0.52c-3.01-4.97-5.45-10.3-7.31-15.99c-0.15-0.47-0.35-0.48-0.58-0.05
	L205.49,528.92z M255.7,556.96c-1.06-0.54-2.21-1.32-3.32-1.67c-6.81-2.17-13.65-4.47-20.5-6.92c-0.82-0.29-1.35-0.02-1.6,0.81
	l-1.44,4.81c-0.11,0.36-0.05,0.71,0.15,1.04c3.38,5.22,6.74,13.38,13.37,15.28c8,2.28,15.63,4.92,22.89,7.9
	c0.4,0.16,0.62,0.03,0.64-0.41c0.38-8.99,2.13-17.18,5.23-24.53c2.99-7.08,6.29-14.39,9.9-21.9c0.7-1.45,1.28-3,1.73-4.66
	c0.13-0.48-0.17-0.96-0.65-1.05c-3.08-0.54-6.79-3.9-9.16-5.91c-0.5-0.43-0.89-0.34-1.18,0.25c-2.64,5.46-5.26,10.79-7.89,15.97
	c-3.31,6.57-5.82,13.63-7.76,20.82C256.06,556.96,255.87,557.05,255.7,556.96z M294.7,557.68c2.7,1.12,6.49,2.2,11.35,3.24
	c7.1,1.49,14.2-3.34,18.76-8.28c0.17-0.19,0.23-0.46,0.13-0.7c-2.6-6.87-4.62-13.59-6.07-20.16c-0.05-0.25-0.37-0.33-0.53-0.13
	c-3.63,4.59-8.16,8.1-13.61,10.51c-5.17,2.29-12.75-0.04-17.69-1.9c-0.45-0.16-0.74-0.03-0.9,0.4l-1.99,5.26
	c-0.11,0.28-0.09,0.59,0.04,0.85C286.86,552.25,290.37,555.88,294.7,557.68z M271.1,594.99l-22.05-5.29
	c-0.85-0.21-1.72,0.28-1.98,1.12c-0.95,3.01-1.54,6.09-2.59,9.06c-3.98,11.08-6.62,22.52-7.92,34.3c-0.09,0.78,0.11,1.58,0.56,2.23
	l10.8,15.83c0.43,0.62,0.59,0.56,0.48-0.2c-0.49-3.52-0.49-7.39,0-11.61c1.25-10.87,3.49-20.43,6.7-28.68
	c0.16-0.44,0.1-0.84-0.2-1.2c-1.69-2.07-7.95-8.87-7.32-11.39c0.14-0.58,0.36-0.61,0.68-0.11c1.8,2.89,4.84,6.25,9.13,10.07
	c0.56,0.5,1.21,0.84,1.94,1.01c7.89,1.93,15.6,3.93,23.11,6.04c0.43,0.12,0.61-0.04,0.56-0.49c-1.28-9.48,0.66-20.09,3.13-28.8
	c2.14-7.53,4.74-15.38,7.8-23.54c0.14-0.38,0.03-0.66-0.34-0.84c-4.65-2.18-6.86-5.91-10.18-9.66c-0.28-0.32-0.51-0.28-0.7,0.11
	c-1.17,2.58-2.09,5.06-2.76,7.42c-2.04,7.23-4.15,14.4-6.33,21.52c-1.25,4.11-1.85,8.53-2.13,12.81
	C271.47,594.9,271.29,595.03,271.1,594.99z M223.75,565.2l-2.69,8.26c-2.76,8.12-4.65,16.09-5.69,23.9c-0.1,0.7,0.04,1.34,0.41,1.94
	l8.25,13.44c0.46,0.75,0.66,0.7,0.61-0.19c-0.58-9.98,2.88-20.37,6.57-29.82c1.41-3.61,3.23-7.04,5.45-10.3
	c0.23-0.34,0.23-0.69,0-1.02c-2.81-4.02-7.04-9.54-8.09-14.39c-0.26-1.21-0.64-1.24-1.14-0.12L223.75,565.2z M340.86,587.76
	c-3.35-5.81-6.08-11.76-8.09-18.14c-0.28-0.9-0.63-0.93-1.06-0.08c-1.97,4-7.83,7.36-11.91,9.19c-3.02,1.34-5.93,1.77-8.75,1.26
	c-2.93-0.51-6.25-1.36-9.93-2.53c-1.04-0.33-1.65,0.04-1.82,1.12c-0.53,3.32,0.32,6.28,2.55,8.88c2.91,3.37,6.06,5.72,9.45,7.06
	c2.7,1.07,5.71,1.35,8.55,2.03c5.49,1.33,12.9-0.83,17.24-3.59c1.54-0.97,2.79-2.31,3.77-4.04
	C341.09,588.55,341.09,588.15,340.86,587.76z M309.61,597.89c0.1-0.31,0-0.52-0.31-0.64c-4.21-1.69-8.16-6.21-10.89-9.61
	c-0.23-0.29-0.4-0.25-0.5,0.11c-3.24,11.15-5.57,22.61-7,34.39c-0.1,0.8,0.2,1.6,0.81,2.14c2.89,2.56,5.23,5.53,7.03,8.9
	c0.12,0.23,0.47,0.2,0.53-0.05C302.57,620.5,306.01,608.76,309.61,597.89z M325.31,627.43c3.32,3.08,7.89,4.35,12.29,5.57
	c3.07,0.86,5.83,1.2,8.26,1.04c6.38-0.44,14.71-2.07,18.93-7.19c0.34-0.41,0.35-1.01,0.03-1.44c-4.29-5.67-9.23-13.16-10.89-19.96
	c-0.28-1.14-0.68-1.19-1.19-0.12c-1.96,4.09-5.18,7.3-9.63,9.62c-4.76,2.48-9.54,3.07-14.32,1.77c-3.96-1.08-7.81-2.1-11.58-3.06
	c-0.31-0.08-0.61,0.13-0.65,0.44C315.95,618.87,321.8,624.18,325.31,627.43z M548.97,746.2c-12.66-5.29-24.38-10.66-35.15-16.12
	c-29.24-14.81-56.15-33.32-80.74-55.53c-12.59-11.37-25.77-24.8-39.51-40.27c-6.06-6.81-11.78-14.62-16.83-22.19
	c-0.63-0.96-0.71-0.92-0.24,0.14c9.3,20.46,21.57,38.94,36.8,55.46c11.53,12.5,24.24,24.46,38.02,34.39
	c9.1,6.56,16.97,11.89,23.61,16c21.01,12.98,43.62,23.06,67.82,30.25c10.95,3.25,22.03,6.09,33.22,8.55
	c0.03,0.01,0.07-0.01,0.08-0.05l0,0c0.03-0.1,0-0.16-0.1-0.2C567.15,753.52,558.16,750.05,548.97,746.2z M272.92,638.2
	c0.1-0.1,0.19-0.1,0.26,0.01c2.94,4,8.59,11.62,13.9,12.41c9.86,1.47,20.03,3.06,30.52,4.8c0.57,0.1,1.08-0.35,1.06-0.93
	c-0.23-7.42,0.32-14.51,1.63-21.24c0.11-0.54-0.14-1.1-0.61-1.38c-3.08-1.86-5.55-3.89-7.37-6.08c-0.27-0.32-0.46-0.27-0.57,0.13
	l-3.56,13.13c-0.12,0.45-0.39,0.6-0.84,0.46c-4.35-1.44-8.49-3.4-12.94-4.28c-7.98-1.59-15.88-3.02-23.72-4.29
	c-0.39-0.07-0.61,0.1-0.66,0.49c-0.75,5.53-1.54,11.27-2.34,17.24c-1.21,8.99-1.75,18.39-1.65,28.21c0.01,1.26,0.45,2.3,1.3,3.12
	c2.76,2.67,5.53,5.2,8.31,7.61c1.05,0.92,1.65,2.2,2.79,3.07c0.25,0.2,0.61-0.01,0.57-0.33c-0.2-1.35-0.84-2.37-0.86-3.77
	c-0.15-8.33,0.66-16.27,1.49-24.56c0.32-3.05,0.98-6.01,1.99-8.86c0.39-1.08,0.16-2.05-0.69-2.9c-3.47-3.48-6.23-7.25-8.32-11.3
	c-0.08-0.16-0.05-0.35,0.07-0.49L272.92,638.2z M936.18,632.06c0.1-0.12,0.08-0.3-0.03-0.4l-0.02-0.01c-0.12-0.1-0.29-0.08-0.4,0.03
	l-11.92,14.21c-0.1,0.12-0.08,0.3,0.03,0.4l0.02,0.01c0.12,0.1,0.29,0.08,0.4-0.03L936.18,632.06z M711.14,735.49
	c27-5.22,49.97-17.65,68.94-37.29c5.94-6.16,11.2-12.36,15.78-18.61c6.39-8.72,12.64-17.81,18.38-27.62c2.41-4.11,4.77-8.11,7.1-12
	c0.04-0.08,0.03-0.09-0.02-0.02c-9.26,10.22-18.37,20.57-27.3,31.03c-19.2,22.46-41.49,42.82-67.27,57.32
	c-5.01,2.82-10.28,5.12-15.78,6.91c-0.05,0.01-0.08,0.05-0.07,0.11h0.01C710.93,735.46,711.01,735.51,711.14,735.49z M298.28,705.51
	l-0.14,7.91c-0.02,1.1,0.45,2.15,1.28,2.88l11.31,9.93c0.54,0.49,0.76,0.37,0.64-0.36c-1.84-10.94-0.62-23.41,0.56-34.3
	c0.21-1.91,0.01-3.63-1.37-5.08c-1.7-1.75-3.37-3.75-5-5.97c-0.14-0.19-0.15-0.4-0.03-0.68l6.44,5.97c0.43,0.4,0.96,0.66,1.54,0.76
	c10.47,1.82,21.08,2.95,31.81,3.4c0.47,0.02,0.83-0.4,0.74-0.86c-2.68-14.57-3.47-28.43-2.35-41.57c0.03-0.39-0.14-0.64-0.52-0.75
	c-4.62-1.36-8.78-3.37-12.48-6.04c-0.32-0.23-0.49-0.15-0.5,0.25c-0.43,10.56-0.46,20.07-0.1,28.5c0.01,0.32-0.13,0.47-0.45,0.48
	l-30.51,0.54c-0.47,0.01-0.7,0.25-0.7,0.72L298.28,705.51z M333.89,748.45l11.76,8.6c0.59,0.43,0.78,0.29,0.58-0.4
	c-3.34-11.25-2.99-23.64-3.23-35.36c-0.02-0.95,0.45-1.44,1.41-1.47c4.09-0.12,8.32-0.85,12.71-2.21l8.14-0.44
	c0.14-0.01,0.22,0.05,0.23,0.2l0.02,0.29c0.03,0.27-0.15,0.52-0.43,0.58l-11.5,2.29l-5.52,1.35c-0.41,0.1-0.59,0.36-0.53,0.78
	c0.24,1.87,1.18,2.94,2.8,3.19c8.89,1.43,18.07,1.46,27.24,1.79c0.34,0.01,0.6-0.29,0.53-0.63l-1.46-7.59
	c-1.99-11.28-3.71-22.1-5.11-32.49c-0.35-2.56-0.56-4.98-0.61-7.25c-0.03-0.86-0.44-1.68-1.12-2.21c-2.54-1.99-4.53-4.43-5.98-7.27
	c-0.45-0.88-0.2-1.18,0.75-0.89c7.62,2.27,15.5,1.54,23.63-2.19c2.19-1,4.16-2.88,5.23-5.05c0.26-0.53,0.2-1.02-0.19-1.47
	c-4.58-5.25-8.63-11.05-12.15-17.41c-0.58-1.04-0.99-0.97-1.22,0.2c-0.47,2.35-2.62,4.2-4.28,5.77c-6.02,5.66-12.71,6.72-20.56,6.68
	c-0.51-0.01-0.71,0.24-0.58,0.74c1.26,4.9,2.53,9.95,2.98,15.08c1,11.47,1.96,22.55,2.89,33.25c0.08,0.93-0.35,1.41-1.28,1.44
	l-29.78,1.18c-0.24,0.01-0.43,0.21-0.41,0.45c0.35,12.83,1.16,25.45,2.42,37.84C331.38,746.73,332.25,747.61,333.89,748.45z
	 M397.51,742.6c-1.21,0-2.42,0.1-3.61,0.31c-8.12,1.4-16.35,2.77-24.69,4.13c-1.49,0.24-3.22,0.1-4.77,0.25
	c-0.35,0.03-0.61,0.35-0.59,0.7c0.59,7.74,1.57,15.18,2.95,22.34c0.1,0.49,0.25,0.94,0.46,1.34c0.04,0.45,0.28,0.77,0.73,0.97
	c5.82,2.6,10.54,5.08,14.16,7.44c0.44,0.28,0.59,0.17,0.46-0.33c-1.91-7.27-2.95-14.71-3.16-22.32c-0.02-0.76,0.8-1.25,1.46-0.88
	l1.56,0.88c1.08,0.58,2.15,1.1,3.23,1.55c1.19,0.49,2.34,0.65,3.47,0.49c9.56-1.43,18.13-3.99,28.28-5.43
	c0.45-0.07,0.63-0.32,0.53-0.76l-0.49-2.3c-5.4-15.66-8.36-25.53-11.8-38.43c-0.75-2.8-1.04-5.12-0.85-6.94
	c0.19-1.82-0.43-2.91-1.82-3.27c-1.1-0.27-2.57-1.26-3.32-2.17c-1.14-1.35-0.88-1.73,0.78-1.13c3.9,1.38,8.28,1.84,13.13,1.38
	c4.82-0.45,8.76-4.36,11.54-8.17c0.56-0.76,0.4-1.83-0.35-2.41c-4.96-3.83-9.58-8.49-13.89-13.99c-0.28-0.37-0.56-0.36-0.83,0.02
	c-5.26,7.64-12.82,11.75-22.64,12.33c-0.2,0.01-0.33,0.19-0.29,0.38c3.78,18.98,7.68,36.71,11.72,53.2
	C399.01,742.32,398.55,742.6,397.51,742.6z M411.6,794.28c0.44,0.74,1.28,1.38,2.51,1.92c0.45,0.2,0.59,0.07,0.43-0.4
	c-0.83-2.33-0.47-4.22,1.09-5.66c1.82-1.68,3.73-2.93,5.74-3.75c3.24-1.32,4.89-1.99,4.99-2.04c7.83-3.59,15.71-7.05,23.65-10.4
	l5.89-2.13c0.35-0.13,0.53-0.51,0.41-0.86l-12.6-37.68c-0.12-0.36,0-0.59,0.37-0.69c7.92-2.08,15.76-5.18,23.51-9.28
	c0.1-0.05,0.11-0.11,0.02-0.19l-8.31-6.83c-0.16-0.13-0.38-0.16-0.57-0.09c-9.3,3.93-18.64,7.01-28.01,9.24
	c-0.34,0.09-0.69-0.1-0.83-0.41c-0.14-0.33-0.15-0.62-0.02-0.88c0.29-0.59,0.73-1,1.29-1.23c7.81-3.15,15.58-6.43,23.28-9.83
	c0.45-0.2,0.47-0.44,0.09-0.73l-11.24-8.64c-0.37-0.28-0.9-0.25-1.23,0.09c-4.89,4.88-11.9,7.22-18.81,9.09
	c-0.56,0.15-0.75,0.5-0.57,1.06l15.67,47.02c0.17,0.51,0.03,0.89-0.44,1.17c-0.43,0.25-0.88,0.37-1.38,0.38
	c-0.39,0.01-0.76,0.11-1.11,0.28c-10.64,5.38-21.62,10.05-32.97,13.99c-0.36,0.13-0.47,0.37-0.33,0.73
	c2.22,5.37,3.92,11.22,7.51,15.75C410.07,793.84,410.72,794.17,411.6,794.28z M479.46,785.56c0.78,2.45,1.54,4.89,2.27,7.32
	c1.07,3.54,4.22,2.46,6.34,0.89c0.21-0.15,0.49-0.12,0.66,0.07l0.22,0.23c0.1,0.1,0.09,0.26-0.02,0.35l-21.68,18.38
	c-0.32,0.14-0.6,0.47-0.87,0.99c-0.2,0.39-0.03,0.86,0.36,1.05c3.31,1.54,6.52,2.4,9.61,2.58l20.12-15.41
	c0.75-0.57,1.07-1.54,0.81-2.44l-4.4-15.39l-11.16-30.03c-0.16-0.44-0.02-0.69,0.45-0.75c6.77-0.94,14.18-3.81,22.21-8.64
	c2.6-1.56,2.49-2.88-0.36-3.93c-0.75-0.28-1.51-0.58-2.3-0.87c-3.02-1.14-6.03-1.13-9.04,0.03c-7.6,2.94-14.94,5.32-22.04,7.13
	c-0.43,0.11-0.65-0.07-0.68-0.51c-0.03-0.8,0.33-1.37,1.08-1.74c8.49-4.16,16.21-7.25,23.14-9.25c0.25-0.08,0.29-0.43,0.07-0.56
	c-4.93-2.9-10.11-5.57-15.56-8c-0.38-0.16-0.83-0.07-1.09,0.26c-3.6,4.34-10.61,6.47-15.6,8.63c-0.36,0.15-0.47,0.41-0.33,0.77
	L479.46,785.56z M610.8,799.85l-5.58-7.49l-11.53-14.2c-0.23-0.27-0.23-0.54,0-0.82l7.03-8.44c0.48-0.58,0.39-1.45-0.2-1.92
	c-0.8-0.62-1.7-0.89-2.74-0.82c-2.46,0.2-4.52,0.34-6.95-0.38c-2.34-0.69-4.73-1.19-7.14-1.53c-1.08-0.15-2.17,0.19-2.96,0.93
	l-6.81,6.32c-0.26,0.24-0.28,0.5-0.05,0.78l18.1,22.89l1.69,3.34c-7.17-0.85-14.25-2.02-21.21-3.51c-1.14-0.25-2.05-0.68-2.72-1.29
	c-0.77-0.71-1.49-1.5-2.16-2.38c-4.48-5.86-8.68-11.62-12.6-17.26c-0.26-0.38-0.2-0.7,0.19-0.96l13.07-8.71
	c0.49-0.33,0.45-0.52-0.14-0.6c-3.13-0.38-6.21-1.43-9.25-3.16c-0.36-0.21-0.68-0.15-0.95,0.15c-0.84,0.94-1.85,1.72-3.03,2.34
	c-3.01,1.58-6.06,3.07-9.16,4.49c-1.71,0.78-2.91,1.22-3.58,1.31c-2.82,0.37-3.02-0.2-0.61-1.71c3.67-2.3,7.75-4.57,12.22-6.8
	c0.65-0.32,1.33-0.56,2.02-0.72c1.04-0.23,1.07-0.57,0.11-1c-4.31-1.97-8.83-3.52-13.57-4.66c-1.89-0.46-2.55,1.37-3.89,2.29
	c-2.22,1.52-4.44,2.95-6.64,4.31c-0.38,0.23-0.43,0.52-0.13,0.86c1.14,1.3,2.14,2.57,2.98,3.83c5.2,7.77,10.39,16.2,15.59,25.3
	c0.13,0.23-0.09,0.49-0.33,0.4c-0.95-0.32-1.67-0.97-2.67-1.2c-5.12-1.12-9.98-2.47-14.59-4.05c-5.74-1.96-8.39-5.87-10.89-11.15
	c-2.13-4.5-4.85-9.13-8.17-13.9c-0.23-0.33-0.15-0.57,0.21-0.72c5.86-2.54,11.69-5.37,17.49-8.52c0.23-0.12,0.21-0.45-0.02-0.54
	l-13.17-5.61c-0.85-0.36-1.83-0.16-2.49,0.49c-0.74,0.75-1.52,1.36-2.32,1.83c-4.41,2.58-8.88,4.98-13.4,7.18
	c-0.47,0.23-0.7,0.76-0.54,1.25c1.21,3.88,2.63,7.5,4.25,10.84c4.5,9.25,8.4,17.77,11.73,25.56c0.37,0.86-0.46,1.75-1.35,1.45
	c-0.26-0.09-0.53-0.14-0.82-0.16c-0.75-0.04-0.8,0.12-0.13,0.48c4.36,2.34,8.88,4.15,13.58,5.44c11.78,3.22,23.61,6.29,35.46,9.22
	c18.46,4.57,37.57,7.31,57.33,8.24c0.53,0.03,0.61,0.23,0.22,0.59c-8.08,7.6-16.31,14.75-25.66,20.31
	c-9.98,5.94-19.68,10.35-29.1,13.23c-13.72,4.2-28.46,5-44.21,2.43c-14.82-2.42-29.45-6.25-43.87-11.48
	c-16.9-6.11-34.75-13.87-50.4-23.31c-9.01-5.44-17.42-10.76-25.46-17.5c-0.07-0.05-0.13-0.04-0.19,0.01v0.01
	c-0.08,0.08-0.08,0.14,0,0.22c16.16,15.91,34.69,28.48,55.6,37.71c21.66,9.56,44.62,16.08,68.91,19.54
	c28.49,4.07,56.11,4.12,82.86,0.17c35.54-5.24,66.29-21,92.25-47.29c0.24-0.24,0.52-0.39,0.85-0.45
	c23.3-4.27,46.42-11.61,69.36-22.01c14.7-6.66,28.98-15.08,42.86-25.26c9.73-7.14,17.3-13.18,22.7-18.11
	c5.8-5.3,11.35-10.49,16.63-15.58c0.86-0.82,0.81-0.88-0.15-0.17c-9.23,6.72-19.49,13.31-30.78,19.75
	c-17.25,9.83-34.99,18.52-53.19,26.05c-29.09,12.04-59.42,19.97-91.01,23.77C657.01,802.26,634.77,802.28,610.8,799.85z
	 M626.27,778.97c-1.04,1.14-1.21,1.04-0.5-0.34c1.38-2.7,3.12-5.35,5.21-7.93c0.27-0.34,0.03-0.84-0.4-0.84
	c-3.42-0.02-6.68-0.52-9.78-1.5c-0.63-0.21-1.34-0.01-1.79,0.49l-4.92,5.47c-0.52,0.58-0.43,1.49,0.21,1.95
	c2.1,1.53,4.03,3.22,5.77,5.06c4.96,5.3,9.61,10.57,13.98,15.83c1.09,1.3,2.79,0.74,4.32,1.04c2.53,0.48,4.86,0.53,7,0.16
	c1.24-0.22,2.02-1.47,1.66-2.68c-0.9-3.04-2.49-5.75-4.72-8.15c-2.31-2.47-4.94-4.83-7.89-7.05c-0.84-0.63-1.2-1.71-0.89-2.7
	c0.45-1.52,0.98-3.03,1.59-4.54c0.26-0.65,0.31-1.3,0.14-1.94c-0.2-0.74-1.13-0.98-1.65-0.41L626.27,778.97z M451.32,790.1
	c-5.55,3.8-10.74,8.2-15.58,13.19c-0.05,0.07-0.04,0.16,0.02,0.22c2.37,1.66,4.89,3.29,7.61,4.9c0.15,0.09,0.29,0.08,0.43-0.03
	l19.07-15.6c-0.32-3.19-1.16-6.14-2.51-8.84c-0.16-0.33-0.41-0.4-0.73-0.23C456.66,785.31,453.9,787.45,451.32,790.1z
	 M442.91,857.35c-28.07-10.88-54.62-26.14-79.64-45.79c-10.84-8.51-18.42-15.38-22.75-20.6c-0.1-0.12-0.16-0.1-0.21,0.04
	c-0.01,0.07,0,0.12,0.03,0.17c3.65,4.63,7.51,9.28,11.56,13.93c22.74,26.13,49.61,45.31,80.62,57.57c19.5,7.71,37.95,13,58.2,14.95
	c23.52,2.26,47.23,2.95,69.58-1.47c5.17-1.02,10.14-2.1,14.9-3.23c0.09-0.02,0.12-0.08,0.11-0.16l0,0c-0.02-0.1-0.09-0.14-0.19-0.13
	c-15.35,2.5-30.66,3.48-45.94,2.94c-14.37-0.5-27.34-1.9-38.91-4.17C475.24,868.45,459.44,863.76,442.91,857.35z M522.12,802.79
	c-2.1-1.17-4.08-2.18-5.9-3.06c-0.47-0.23-0.7-0.08-0.66,0.45c0.1,1.77,1.83,3.24,3.05,4.41c0.76,0.73,0.72,1.96-0.08,2.65
	c-6.38,5.44-12.39,10.8-18.06,16.09c-0.03,0.02-0.02,0.08,0.02,0.09c1.97,0.66,5.35,1.6,10.16,2.8c0.23,0.05,0.45,0.01,0.63-0.13
	c5.82-4.73,11.35-9.33,16.57-13.81c1.58-1.35,2.98-2.79,4.2-4.33c0.43-0.54,0.31-0.9-0.36-1.09
	C528.73,806.04,525.54,804.68,522.12,802.79z M556.08,814.2c0.11-0.08,0.13-0.22,0.07-0.43c-0.08-0.24-0.28-0.41-0.53-0.46
	l-2.75-0.46c-0.31-0.04-0.56,0.05-0.76,0.28c-3.81,4.39-7.86,8.51-12.14,12.35c-0.51,0.46-0.43,0.69,0.26,0.69l23.7-0.15
	c0.24-0.01,0.46-0.14,0.56-0.36l3.99-8.59c0.08-0.17,0.02-0.26-0.17-0.27c-3.65-0.14-7.71-0.88-12.14-2.22
	C555.85,814.5,555.83,814.37,556.08,814.2z M619.04,935.93l7.34-0.89c0.19-0.03,0.26-0.13,0.22-0.32l-0.05-0.28
	c-0.01-0.02-0.02-0.03-0.04-0.03c-3.3,0.8-6.65,1.18-10.04,1.13c-10.8,0.36-22.27,0.09-34.4-0.82c-13.18-0.98-25.79-3.38-37.81-7.19
	c-0.04-0.01-0.08,0-0.1,0.04l-0.09,0.26c-0.04,0.14,0.03,0.31,0.17,0.36c10.87,4.02,22.05,6.66,33.55,7.93
	C591.52,937.64,605.28,937.57,619.04,935.93z"/>
<path class="st0" d="M493.57,88.99c-0.6-0.33-0.57-0.48,0.12-0.47c1.8,0.03,3.61,0.32,5.44,0.83c0.39,0.11,0.61,0.52,0.48,0.9
	l-0.14,0.45c-0.13,0.37-0.53,0.58-0.9,0.45C496.78,90.55,495.12,89.83,493.57,88.99z"/>
<path class="st0" d="M317.75,98.13c2.74,6.3-0.27,13.68-6.73,16.49c-6.45,2.81-13.91-0.03-16.64-6.32
	c-2.74-6.3,0.27-13.68,6.73-16.49C307.56,89,315.02,91.83,317.75,98.13z"/>
<path class="st0" d="M536.16,103.23c1.72,4.47-0.6,9.52-5.16,11.28c-4.57,1.75-9.66-0.45-11.38-4.92c-1.72-4.47,0.6-9.52,5.16-11.28
	C529.35,96.55,534.44,98.75,536.16,103.23z"/>
<path class="st0" d="M574.21,115.27c4.01,4.09,5.3,8.46,3.87,13.09c-0.76,2.5-2.37,4.61-4.81,6.37c-7.39,5.33-16,1.78-19.75-6.19
	C549.17,115.72,564.17,106.57,574.21,115.27z"/>
<path class="st0" d="M741.13,118.46c-1.01,0-1.83-0.93-1.83-2.07c0-1.14,0.83-2.07,1.83-2.07c1.01,0,1.83,0.93,1.83,2.07
	C742.97,117.53,742.14,118.46,741.13,118.46z"/>
<path class="st0" d="M592.38,121.33c-0.09,0.63-0.81,1.05-1.62,0.93c-0.8-0.12-1.37-0.73-1.27-1.36c0.09-0.63,0.81-1.05,1.62-0.93
	C591.9,120.08,592.47,120.69,592.38,121.33z"/>
<path class="st0" d="M746.84,126.69c-0.96-1.01-0.81-2.69,0.32-3.75c1.12-1.06,2.81-1.1,3.77-0.08c0.96,1.01,0.81,2.69-0.32,3.75
	C749.48,127.67,747.79,127.7,746.84,126.69z"/>
<path class="st0" d="M599,133.21c0,2.65-2.15,4.8-4.8,4.8c-2.65,0-4.8-2.15-4.8-4.8c0-2.65,2.15-4.8,4.8-4.8
	C596.85,128.41,599,130.56,599,133.21z"/>
<path class="st0" d="M772.1,136.98c-1-2.47-0.81-4.86,0.58-7.17c0.59-0.97,1.98-1.01,2.64-0.08c1.14,1.65,1.82,3.34,2.05,5.07
	c0.07,0.47-0.09,0.85-0.45,1.16l-0.98,0.81c-0.29,0.25-0.47,0.56-0.52,0.94c-0.26,2.02,0.22,4.02,1.43,6.01
	c3.66,5.97,8.82,8.43,15.47,7.37c1.34-0.21,1.4-0.03,0.16,0.52c-7.92,3.65-13.75,1.95-17.49-5.11
	C773.54,143.76,773.35,140.05,772.1,136.98z"/>
<path class="st0" d="M795.15,144.48c-2.89,0.11-5.33-2.38-5.46-5.57c-0.12-3.2,2.11-5.88,5-5.99c2.89-0.11,5.33,2.38,5.46,5.57
	C800.27,141.69,798.04,144.37,795.15,144.48z"/>
<path class="st0" d="M618.91,140.62c-2.45-0.7-5.09-1.66-7.36-2.87c-0.34-0.19-0.46-0.47-0.34-0.84l0.37-1.26
	c0.2-0.65,1-0.89,1.54-0.46l6.02,4.99C619.75,140.7,619.67,140.84,618.91,140.62z"/>
<path class="st0" d="M700.08,162.56c-3.02,2.12-7.33,1.18-9.62-2.1c-2.29-3.28-1.7-7.65,1.32-9.76c3.02-2.12,7.33-1.18,9.62,2.1
	C703.68,156.07,703.1,160.44,700.08,162.56z"/>
<path class="st0" d="M811.83,178.23c-0.27,2.25-2.44,3.83-4.85,3.53c-2.4-0.3-4.12-2.36-3.85-4.6c0.27-2.25,2.44-3.83,4.85-3.53
	C810.38,173.93,812.1,175.99,811.83,178.23z"/>
<path class="st0" d="M859.99,184.02c-0.93,0.08-1.75-0.73-1.85-1.8c-0.09-1.08,0.59-2.01,1.52-2.09c0.93-0.08,1.75,0.73,1.85,1.8
	C861.6,183.02,860.92,183.94,859.99,184.02z"/>
<path class="st0" d="M883.83,210.78c-0.25,2.04-2.12,3.48-4.15,3.22l-0.8-0.1c-2.03-0.25-3.48-2.12-3.22-4.15l0.17-1.36
	c0.25-2.04,2.12-3.48,4.15-3.22l0.8,0.1c2.03,0.25,3.48,2.12,3.22,4.15L883.83,210.78z"/>
<path class="st0" d="M150.48,228.36c-2.25,1.91-4.66,3.99-7.27,6.22c-0.62,0.53-0.74,0.43-0.38-0.31c2.2-4.41,6.68-8.82,10.59-10.37
	c0.36-0.14,0.62-0.04,0.81,0.29c0.36,0.66,0.26,1.24-0.29,1.73C152.9,226.86,151.6,227.41,150.48,228.36z"/>
<path class="st0" d="M157.86,269.33c-7.58-6.45-8.32-18.02-1.67-25.84c6.66-7.82,18.19-8.93,25.77-2.48
	c7.58,6.45,8.32,18.02,1.67,25.84C176.98,274.67,165.45,275.78,157.86,269.33z"/>
<path class="st0" d="M110.86,258.91c-1.15,0.16-2.24-0.71-2.42-1.94c-0.17-1.24,0.61-2.38,1.77-2.55c1.15-0.16,2.24,0.71,2.42,1.94
	C112.8,257.6,112.02,258.75,110.86,258.91z"/>
<path class="st0" d="M911.57,266c0,3.25-2.64,5.89-5.89,5.89c-3.25,0-5.89-2.64-5.89-5.89c0-3.25,2.64-5.89,5.89-5.89
	C908.93,260.12,911.57,262.76,911.57,266z"/>
<path class="st0" d="M123.71,265.28c4.59-2.02,8.38-0.83,11.37,3.56c2.21,3.24,2.23,6.2,0.08,8.89c-1.3,1.61-2.82,2.82-4.58,3.63
	c-21.61,9.94-38.92,29.06-51.86,49.24c-2.56,4-5.08,7.99-7.54,11.97c-0.05,0.1-0.12,0.12-0.22,0.07l-0.01-0.01
	c-0.09-0.04-0.11-0.11-0.07-0.2c6.66-14.94,14.47-29.31,23.46-43.1c5.38-8.27,11.51-15.71,18.38-22.3
	C116.88,273.06,117.91,267.84,123.71,265.28z"/>
<path class="st1" d="M775.09,274.4c0.81,1.96,1.6,3.76,2.4,5.38c1.19,2.47,2.63,4.62,4.31,6.42c0.49,0.52,1.31,0.6,1.9,0.19
	c1.13-0.8,1.92-0.88,2.34-0.25l-3.95,6.79c-0.14,0.24-0.49,0.23-0.62-0.02c-2.38-4.87-4.47-9.85-6.27-14.94
	C774.73,276.63,774.68,275.44,775.09,274.4z"/>
<path class="st0" d="M154.45,282.58c-0.41,1.39-1.86,2.18-3.24,1.78l-0.67-0.19c-1.39-0.41-2.19-1.86-1.78-3.24l0.32-1.11
	c0.41-1.39,1.86-2.18,3.24-1.78l0.67,0.19c1.39,0.41,2.19,1.86,1.78,3.24L154.45,282.58z"/>
<path class="st0" d="M912.14,281.69c0,1.87-1.51,3.39-3.39,3.39c-1.87,0-3.39-1.51-3.39-3.39c0-1.87,1.52-3.39,3.39-3.39
	C910.63,278.3,912.14,279.81,912.14,281.69z"/>
<path class="st0" d="M140.77,290.97c-1.39-0.01-2.5-1.35-2.48-2.98c0.02-1.63,1.16-2.94,2.54-2.93c1.39,0.01,2.5,1.35,2.48,2.98
	C143.29,289.68,142.15,290.99,140.77,290.97z"/>
<path class="st0" d="M910.81,515.22c-13.81,14.52-27.86,27.48-42.15,38.87c-20.19,16.1-33.29,26.63-39.29,31.56
	c-20.57,16.94-37.67,34.51-55.61,52.6c-2.09,2.11-4.34,4.09-6.75,5.93c-37.06,28.28-79.39,48.43-125.29,56.99
	c-6.76,1.26-13.8,2.19-21.11,2.79c-10.08,0.82-17.19,1.2-21.31,1.14c-7.57-0.1-16.19-0.82-25.83-2.18
	c-0.58-0.08-1.04-0.31-1.35-0.69c11.36,1.47,20.44,2.22,27.23,2.26c8.47,0.03,18.64-1.01,30.51-3.14
	c33.81-6.07,64.12-19.38,90.92-39.92c8.89-6.81,18.06-14.55,27.5-23.2c22.45-20.59,42.68-39.58,60.69-56.94
	c16.03-15.46,32.14-33.25,48.35-53.41c16.74-20.81,31.97-43.48,45.67-68.03c10.02-17.96,18.13-36.84,24.31-56.63
	c9.7-31.66,11.78-66.3,7.27-98.71c-0.53-3.83-1.41-8.85-2.64-15.05c-0.01-0.07,0.01-0.11,0.08-0.12l0.27-0.08
	c0.11-0.03,0.19,0.01,0.22,0.12c9.13,26.77,12.89,54.88,10.18,82.89c-1.36,13.96-3.84,27.59-7.42,40.89
	c-0.83,3.06-0.49,3.19,1.02,0.41c8.19-15.04,13.46-31.06,15.84-48.07c0.01-0.1,0.08-0.14,0.17-0.13l0,0c0.09,0,0.13,0.04,0.13,0.13
	c0.27,10.52-1.25,20.5-3,30.7c-3.06,17.81-8.1,35.42-15.24,52.2c-0.34,0.81-0.19,0.92,0.46,0.33c2.19-1.99,4.31-4.47,6.34-7.43
	c6.79-9.86,11.95-20.49,15.44-31.87c1.21-3.96,2.41-8.31,3.58-13.06c0.04-0.17,0.15-0.24,0.33-0.21h0.01
	c0.1,0.02,0.15,0.09,0.14,0.19c-1.95,15.66-5.89,30.76-11.78,45.3c-2.69,6.62-6.29,13.66-10.79,21.13
	c-5.48,9.08-11.24,17.56-17.29,25.43c-3.72,4.83-7.38,9.72-10.99,14.66c-1.92,2.63-1.55,3.01,1.12,1.14
	c8.94-6.25,16.95-15.12,24.72-23.97c2.84-3.25,5.53-6.64,8.03-10.17c0.04-0.05,0.1-0.07,0.15-0.03h0.01
	c0.1,0.05,0.12,0.13,0.07,0.23C934.87,486.66,924.29,500.24,910.81,515.22z M884.05,529.76c9.5-8.64,16.45-19.22,20.28-31.27
	c0.4-1.28,0.27-1.34-0.4-0.19c-6.19,10.59-12.89,21-20.12,31.24C883.24,530.35,883.32,530.42,884.05,529.76z"/>
<path class="st1" d="M814.03,311.02c0.28-0.21,0.49-0.43,0.61-0.64c0.2-0.36,0.13-0.66-0.21-0.89c-0.29-0.21-0.6-0.38-0.92-0.52
	c-0.29-0.14-0.48-0.37-0.56-0.69l-1.55-5.67l0.68-6.11c0.07-0.53,0.31-0.62,0.71-0.26c2.98,2.65,6.5,5.67,10.57,9.07
	c3.73,3.11,5.54,5.87,6.39,10.74c0.69,3.91,1.77,7.98,3.25,12.19c0.02,0.07,0.01,0.08-0.04,0.03L814.03,311.02z"/>
<path class="st0" d="M123.57,304.02c0.93,1.52,0.39,3.54-1.22,4.53c-1.61,0.99-3.66,0.56-4.59-0.95c-0.93-1.52-0.39-3.54,1.22-4.53
	C120.58,302.08,122.63,302.51,123.57,304.02z"/>
<path class="st0" d="M558.72,357.45c0,1.29-1.04,2.32-2.32,2.32s-2.32-1.04-2.32-2.32s1.04-2.32,2.32-2.32
	S558.72,356.16,558.72,357.45z"/>
<path class="st0" d="M543.51,364.34c-1.57-0.2-2.66-1.8-2.43-3.58c0.23-1.77,1.69-3.05,3.25-2.85c1.57,0.2,2.66,1.8,2.43,3.58
	C546.54,363.27,545.08,364.54,543.51,364.34z"/>
<path class="st0" d="M71.78,362.83c-1.06-0.13-1.8-1.24-1.66-2.48c0.15-1.24,1.13-2.15,2.19-2.02c1.06,0.13,1.8,1.24,1.66,2.48
	C73.83,362.05,72.85,362.95,71.78,362.83z"/>
<path class="st0" d="M600.34,369.72c-0.76,1.57-2.74,2.18-4.4,1.38c-1.67-0.81-2.4-2.73-1.64-4.31c0.76-1.57,2.74-2.18,4.4-1.38
	C600.37,366.21,601.1,368.14,600.34,369.72z"/>
<path class="st0" d="M561.32,371.85c0,2.39-1.94,4.33-4.33,4.33c-2.39,0-4.33-1.94-4.33-4.33c0-2.39,1.94-4.33,4.33-4.33
	C559.38,367.52,561.32,369.46,561.32,371.85z"/>
<path class="st0" d="M584.3,377.83c-0.58,1.19-2.13,1.64-3.46,0.99c-1.32-0.65-1.93-2.14-1.34-3.34c0.58-1.19,2.13-1.64,3.46-0.99
	C584.27,375.15,584.88,376.64,584.3,377.83z"/>
<path class="st0" d="M452.81,384.43c1.54,5.8-2.03,11.79-7.99,13.37c-5.95,1.59-12.04-1.84-13.58-7.63
	c-1.54-5.8,2.03-11.79,7.99-13.37C445.19,375.21,451.27,378.64,452.81,384.43z"/>
<path class="st0" d="M622.83,382.38c2.02,4.24,0.07,9.39-4.34,11.49c-4.41,2.1-9.62,0.35-11.65-3.89
	c-2.02-4.24-0.07-9.39,4.34-11.49C615.6,376.39,620.81,378.14,622.83,382.38z M620.1,385.82c0-2.89-2.33-5.22-5.22-5.22
	c-2.89,0-5.22,2.33-5.22,5.22s2.33,5.22,5.22,5.22C617.77,391.04,620.1,388.71,620.1,385.82z"/>
<path class="st0" d="M154.49,405.84c-2.76,5.24-3.14,5.07-1.17-0.51c1.1-3.13,2.15-6.56,3.13-10.3c0.62-2.34,0.32-4.28-0.9-5.84
	c-0.73-0.94-0.63-1.78,0.29-2.51c2.94-2.32,5.11-2.08,6.52,0.74c1.07,2.16-0.16,5.24-1.35,7.13
	C158.69,398.22,156.52,401.98,154.49,405.84z"/>
<path class="st0" d="M420.59,406.71c0,1.87-1.53,3.4-3.4,3.4s-3.4-1.53-3.4-3.4c0-1.87,1.53-3.4,3.4-3.4
	S420.59,404.84,420.59,406.71z"/>
<path class="st0" d="M639.3,408.81c0,1.47-1.2,2.67-2.67,2.67c-1.47,0-2.67-1.2-2.67-2.67c0-1.47,1.2-2.67,2.67-2.67
	C638.1,406.14,639.3,407.33,639.3,408.81z"/>
<path class="st0" d="M139.28,411.72l-1.54,0.36c-0.72,0.17-1.43-0.34-1.48-1.09l-0.09-1.25c-0.05-0.73,0.54-1.33,1.28-1.29
	l1.96,0.11c0.85,0.05,1.38,0.94,1.04,1.71l-0.35,0.76C139.94,411.38,139.64,411.63,139.28,411.72z"/>
<path class="st0" d="M651.34,419.16c-0.03,0.63-0.58,1.12-1.21,1.09l-0.63-0.03c-0.64-0.04-1.13-0.58-1.09-1.21l0.07-1.26
	c0.03-0.63,0.58-1.12,1.21-1.09l0.63,0.03c0.64,0.04,1.13,0.58,1.09,1.21L651.34,419.16z"/>
<path class="st1" d="M813.36,426.82c0.73,1.16,1.23,2.3,1.48,3.42c0.21,0.92,0.17,1.78-0.09,2.59c-0.35,1.08-0.36,2.17-0.02,3.28
	c0.23,0.78,1.25,1,1.78,0.37c1.43-1.71,1.44-2.92,1.42-5.46c-0.01-1.21,0.34-2.28,1.04-3.18c-0.15,1.05-0.07,2.07,0.25,3.07
	c0.12,0.35,0.13,0.7,0.05,1.06l-0.33,1.56c-0.25,3.46-0.53,6.91-0.87,10.37c-0.68,6.86-2.21,14.63-3.07,22.01l-0.65,7.52
	c-1.61,10.43-3.73,20.26-6.34,29.49l-1.97,8.58c-2.89,6.92-5.57,13.45-8.07,19.61c-2.13,5.21-6.77,13.4-13.93,24.57
	c-2.39,3.74-4.74,7.81-8.03,10.66c-2.67,2.3-5.34,4.5-8.01,6.59c-0.05,0.03-0.08,0.05-0.08,0.04l-0.19-0.21
	c-0.16-0.2-0.15-0.38,0.03-0.56c8.71-7.99,15.54-17,20.48-27.04c3.31-6.71,6.74-14.08,8.96-21.34c2.01-6.53,4.11-13.22,6.31-20.08
	c0.9-2.82,0.88-6.15,1.62-8.62c1.78-5.93,3.14-11.9,4.09-17.91l2.23-14.15c-0.08-8.85,0.53-17.52,1.81-25.99
	c0.32-2.07-0.13-2.25-1.32-0.53c-0.62,0.88-1.33,1.67-2.13,2.34c-3.11,2.66-6.26,5.4-9.45,8.21c-0.41,0.37-0.61,0.28-0.58-0.27
	l0.85-16.29c0.04-0.88-0.31-1.09-1.05-0.61l-0.74,0.49c-0.72,0.47-1.17,1.28-1.18,2.14l-0.15,14.44c-0.01,1.45-0.58,2.65-1.68,3.6
	l-1.41,1.2c-1.12,0.96-1.68,0.7-1.66-0.77c0.08-6.37,0.36-12.33,0.87-17.89c0.13-1.45,0.74-2.58,1.82-3.39
	c4.58-3.41,9.32-7.4,14.22-11.95c0.29-0.27,0.66-0.39,1.09-0.34c0.41,0.05,0.74,0.38,0.8,0.8l0.93,6.95c0.05,0.37,0.19,0.71,0.4,1
	L813.36,426.82z"/>
<path class="st0" d="M125.15,452.51c-5.53-2.32-10.77-6.25-16.92-6.31c-0.19,0-0.28-0.21-0.19-0.36c3.84-5.41,8.24-9.09,13.21-11.05
	c4.63-1.83,7.31-5.96,10.1-9.84c2.67-3.71,6.13-5.8,10.34-6.29c0.53-0.07,0.95,0.46,0.77,0.96c-2.6,7.62-5.33,15.19-8.17,22.72
	c-1.6,4.24-4.17,7.57-7.73,10.02C126.15,452.65,125.62,452.71,125.15,452.51z"/>
<path class="st0" d="M404.72,434.65c0,0.9-0.74,1.65-1.65,1.65c-0.9,0-1.65-0.74-1.65-1.65c0-0.9,0.74-1.65,1.65-1.65
	C403.98,433,404.72,433.74,404.72,434.65z"/>
<path class="st0" d="M658.76,438.94c0,3.27-2.65,5.92-5.92,5.92s-5.92-2.65-5.92-5.92c0-3.27,2.65-5.92,5.92-5.92
	S658.76,435.67,658.76,438.94z"/>
<path class="st0" d="M388.15,447.84c-0.01,0.64-0.53,1.15-1.17,1.15l-1.2-0.01c-0.64-0.01-1.15-0.53-1.15-1.17l0.01-1.29
	c0.01-0.64,0.53-1.15,1.17-1.15l1.2,0.01c0.64,0.01,1.15,0.53,1.15,1.17L388.15,447.84z"/>
<path class="st0" d="M117.04,461.99c0,2.8-2.27,5.07-5.07,5.07c-2.8,0-5.07-2.27-5.07-5.07s2.27-5.07,5.07-5.07
	C114.78,456.93,117.04,459.19,117.04,461.99z"/>
<path class="st0" d="M964.57,462.68c0,2.69-2.18,4.87-4.87,4.87c-2.69,0-4.87-2.18-4.87-4.87c0-2.69,2.18-4.87,4.87-4.87
	C962.39,457.81,964.57,459.99,964.57,462.68z"/>
<path class="st0" d="M99.37,478.84c-0.97-0.2-1.55-1.28-1.31-2.41c0.24-1.13,1.21-1.87,2.18-1.66c0.97,0.2,1.55,1.28,1.31,2.41
	C101.31,478.31,100.34,479.05,99.37,478.84z"/>
<path class="st0" d="M368.4,491.85c-0.3,1.48-1.74,2.43-3.22,2.12l-1.39-0.28c-1.48-0.3-2.42-1.74-2.12-3.22l0.19-0.92
	c0.3-1.48,1.74-2.43,3.22-2.12l1.39,0.28c1.48,0.3,2.42,1.74,2.12,3.22L368.4,491.85z"/>
<path class="st0" d="M969.67,494.85c0.03,0.86-0.64,1.57-1.49,1.6l-0.46,0.02c-0.85,0.03-1.57-0.64-1.6-1.49l-0.04-1.24
	c-0.03-0.86,0.64-1.57,1.49-1.6l0.46-0.02c0.85-0.03,1.57,0.64,1.6,1.49L969.67,494.85z"/>
<path class="st0" d="M87.1,493.32c0.66,0.66,0.58,1.82-0.19,2.57c-0.76,0.75-1.91,0.82-2.58,0.15c-0.66-0.66-0.58-1.82,0.19-2.57
	C85.28,492.72,86.44,492.65,87.1,493.32z"/>
<path class="st1" d="M800.85,500.12c-0.39,2.15-1.21,3.52-2.45,4.13c-2.52,1.24-4.45,2.35-5.81,3.35c-4.77,2.41-7.71,4.04-9.42,8.94
	c-1,2.86-1.89,5.65-2.65,8.37c-0.5,1.77-1.78,3.19-3.06,4.43c-1.04,0.99-1.32,0.81-0.85-0.54l5.02-14.57
	c0.59-1.69,1.73-3.14,3.25-4.09c2.94-1.85,5.95-3.73,9.01-5.61c0.52-0.32,1.58-1.17,3.18-2.54
	C798.27,500.96,799.52,500.34,800.85,500.12z"/>
<path class="st0" d="M363.89,502.95c0,0.94-0.75,1.69-1.69,1.69c-0.94,0-1.69-0.75-1.69-1.69c0-0.94,0.75-1.69,1.69-1.69
	C363.14,501.26,363.89,502.02,363.89,502.95z"/>
<path class="st0" d="M953.06,516.18c-0.34,1.38-1.73,2.22-3.11,1.88l-1.55-0.38c-1.38-0.34-2.22-1.73-1.88-3.11l0.24-0.99
	c0.34-1.38,1.73-2.22,3.11-1.88l1.55,0.38c1.38,0.34,2.22,1.73,1.88,3.11L953.06,516.18z"/>
<path class="st1" d="M822.91,514.67c0.01-0.01,0.02-0.01,0.03-0.01l0.26,0.09c0.08,0.03,0.11,0.09,0.09,0.16
	c-1.56,5.56-3.6,11.01-6.1,16.34c-0.84,1.78-1.86,3.5-3.08,5.17c-0.33,0.44-0.46,0.38-0.39-0.15c0.22-1.75,0.71-3.3,1.48-4.64
	C818.41,526,820.98,520.35,822.91,514.67z"/>
<path class="st0" d="M45.76,522.79c0,1.32-1.07,2.39-2.39,2.39c-1.32,0-2.39-1.07-2.39-2.39s1.07-2.39,2.39-2.39
	C44.69,520.4,45.76,521.47,45.76,522.79z"/>
<path class="st1" d="M205.49,528.92c0.1,1.11,0.72,1.36,1.89,0.76c0.32-0.16,0.64-0.17,0.97-0.02c1.51,0.71,3.04,1.79,4.58,3.26
	c-0.84-0.56-1.53-0.32-2.06,0.7c-0.81,1.52-1.49,3.65-2.06,6.41c-0.05,0.27,0.05,0.43,0.35,0.46c0.1,0.01,0.2,0.03,0.28,0.04
	c0.34,0.04,0.68-0.09,0.88-0.35l1.36-1.7c-2.28,6.79-3.54,10.45-3.79,11c-1.63,3.65-3.13,7.36-4.47,11.12
	c-1.13,3.19-2.53,6.1-4.19,8.75c-2.04-6.06-3.57-10.38-2.06-16.92C199.07,544.24,201.84,536.4,205.49,528.92z"/>
<path class="st0" d="M952.47,538.33c0.33,2.4-1.55,4.63-4.19,5c-2.64,0.36-5.05-1.29-5.38-3.69c-0.33-2.4,1.55-4.63,4.19-5
	C949.74,534.29,952.14,535.94,952.47,538.33z"/>
<path class="st0" d="M929.34,556.87l-1.79-0.38c-1.2-0.26-1.9-1.49-1.52-2.64l0.5-1.49c0.34-1,1.37-1.58,2.4-1.34l1.33,0.31
	c0.94,0.23,1.59,1.08,1.57,2.04l-0.03,1.57C931.77,556.21,930.59,557.13,929.34,556.87z"/>
<path class="st0" d="M951.69,556.1c0.45,2.23-1.09,4.42-3.44,4.9c-2.35,0.47-4.62-0.95-5.07-3.18c-0.45-2.23,1.09-4.42,3.44-4.9
	C948.97,552.45,951.24,553.88,951.69,556.1z"/>
<path class="st0" d="M694.64,559.16c-1.17,0.39-2.49-0.39-2.93-1.75c-0.45-1.36,0.14-2.76,1.31-3.15c1.17-0.39,2.49,0.39,2.93,1.75
	C696.4,557.36,695.82,558.77,694.64,559.16z"/>
<path class="st0" d="M935.78,571.45c6.71,7.62,5.89,19.34-1.87,26.18c-7.75,6.83-19.48,6.2-26.2-1.42
	c-6.71-7.62-5.89-19.34,1.87-26.18C917.33,563.19,929.06,563.83,935.78,571.45z"/>
<path class="st0" d="M668.47,589.52c0,9.4-7.62,17.01-17.01,17.01c-9.4,0-17.01-7.62-17.01-17.01c0-9.4,7.62-17.01,17.01-17.01
	C660.85,572.5,668.47,580.12,668.47,589.52z"/>
<path class="st0" d="M680.62,575.54c-0.58,0.9-1.84,1.11-2.82,0.49c-0.97-0.63-1.29-1.87-0.71-2.77c0.58-0.9,1.84-1.11,2.82-0.49
	C680.88,573.4,681.2,574.64,680.62,575.54z"/>
<path class="st0" d="M493.01,641.3c-0.65-0.12-0.69-0.02-0.09,0.28c12.11,6.23,23.99,9.87,36.96,13.79
	c8.21,2.47,16.76,4.52,25.68,6.13c0.04,0.01,0.07,0.03,0.07,0.08l-0.04,0.27c-0.02,0.2-0.13,0.28-0.33,0.27
	c-17.49-1.31-33.99-5.26-49.5-11.88c-8.8-3.75-18.23-8.56-28.29-14.43c-24.8-14.45-45.18-34.58-60.44-59.27
	c-1.04-1.66-0.93-1.73,0.33-0.24c8.62,10.39,18.18,19.19,28.65,26.44c20.48,14.16,42.43,23.15,65.84,26.99
	c19.46,3.18,38.93,3.13,58.45-0.15c0.11-0.02,0.17,0.02,0.21,0.13v0.01c0.04,0.17-0.02,0.29-0.19,0.35
	c-8.53,2.8-17.1,5.52-25.7,8.14C527.41,643.48,510.2,644.51,493.01,641.3z"/>
<path class="st0" d="M907.09,607.92c3.86,4.33,3.41,11.03-1,14.96c-4.42,3.94-11.12,3.61-14.98-0.72c-3.86-4.33-3.41-11.03,1-14.96
	C896.53,603.26,903.23,603.59,907.09,607.92z"/>
<path class="st0" d="M592.78,613.11c0,2.96-2.4,5.36-5.36,5.36c-2.96,0-5.36-2.4-5.36-5.36c0-2.96,2.4-5.36,5.36-5.36
	C590.39,607.75,592.78,610.15,592.78,613.11z"/>
<path class="st0" d="M633.95,627.39c-1.54-0.81-2.11-2.78-1.26-4.4c0.85-1.62,2.8-2.28,4.34-1.46c1.54,0.81,2.11,2.78,1.26,4.4
	C637.44,627.54,635.49,628.21,633.95,627.39z"/>
<path class="st0" d="M617.04,631.65c0,3-2.43,5.43-5.43,5.43s-5.43-2.43-5.43-5.43s2.43-5.43,5.43-5.43S617.04,628.66,617.04,631.65
	z"/>
<path class="st0" d="M890.74,637.87c-1.88,0.97-4.25,0.15-5.27-1.84c-1.03-1.99-0.33-4.39,1.55-5.36c1.88-0.97,4.25-0.15,5.27,1.84
	C893.32,634.5,892.62,636.9,890.74,637.87z"/>
<path class="st1" d="M924.26,646.27c-0.11,0.12-0.28,0.14-0.4,0.03l-0.02-0.01c-0.11-0.1-0.14-0.27-0.03-0.4l11.92-14.21
	c0.11-0.12,0.28-0.14,0.4-0.03l0.02,0.01c0.11,0.1,0.14,0.27,0.03,0.4L924.26,646.27z"/>
<path class="st0" d="M596.02,640.64c0,1.83-1.48,3.31-3.31,3.31c-1.83,0-3.31-1.48-3.31-3.31s1.48-3.31,3.31-3.31
	C594.54,637.33,596.02,638.81,596.02,640.64z"/>
<path class="st0" d="M876.04,645.33c-1.39,0.03-2.56-1.17-2.6-2.69c-0.04-1.53,1.06-2.79,2.46-2.82c1.39-0.03,2.56,1.17,2.6,2.69
	C878.54,644.03,877.44,645.3,876.04,645.33z"/>
<path class="st0" d="M576.1,644.31c-4.74,2.1-9.59,3.11-14.54,3.03c-0.13,0-0.24-0.04-0.34-0.14c-0.03-0.03-0.04-0.07-0.04-0.1
	c-0.03-0.15,0.03-0.24,0.17-0.27c4.94-1.04,9.83-2.23,14.69-3.6c0.14-0.03,0.24,0.01,0.27,0.15l0.08,0.28
	C576.47,643.93,576.34,644.2,576.1,644.31z"/>
<path class="st0" d="M129.58,651.81c0.32,0.04,0.48,0.23,0.49,0.56c0.46,24.62,4.22,50.47,9.01,74.79
	c1.72,8.71,4.07,17.97,7.02,27.77c0.47,1.55,1.46,2.99,2.05,4.51c0.03,0.1,0.01,0.15-0.09,0.17c-0.03,0.01-0.08,0.02-0.11,0.02
	c-0.04,0.01-0.08,0-0.1-0.04c-2.1-3.19-3.87-6.38-5.28-9.55c-9.14-20.46-17.22-42.27-20.38-65.26c-1.7-12.35-2.7-24.71-3.02-37.09
	c-0.01-0.16,0.09-0.33,0.23-0.4c0.09-0.04,0.19-0.05,0.28-0.04c0.14,0.01,0.27,0.07,0.38,0.16
	C122.84,649.87,126.01,651.34,129.58,651.81z"/>
<path class="st0" d="M898.2,722.55c-12.55,11.72-26.84,19.4-42.02,27.23c-0.4,0.21-0.56,0.1-0.44-0.35c0.09-0.32,0.25-0.57,0.5-0.75
	c12.68-9.8,26.23-19.93,37.92-31.08c19.76-18.88,35.78-37.45,47.9-60.45c0.07-0.12,0.15-0.14,0.27-0.09l0,0
	c0.05,0.03,0.08,0.08,0.05,0.13c-3.95,8.45-8.04,16.57-12.29,24.38C921.86,696.72,911.23,710.38,898.2,722.55z"/>
<path class="st0" d="M100.21,671.11c-2.07-1.76-2.23-4.96-0.37-7.15c1.86-2.19,5.04-2.54,7.11-0.77c2.07,1.76,2.23,4.96,0.37,7.15
	C105.47,672.53,102.28,672.87,100.21,671.11z"/>
<path class="st0" d="M115.66,693.76c0,2.09-1.69,3.78-3.78,3.78s-3.78-1.69-3.78-3.78s1.69-3.78,3.78-3.78
	S115.66,691.66,115.66,693.76z"/>
<path class="st0" d="M566.39,701.18c2.03-0.14,3.95,0.22,5.74,1.06C570.1,702.2,568.18,701.84,566.39,701.18z"/>
<path class="st0" d="M203.13,749.13c-11.57,2.12-22.76-5.99-24.98-18.12c-2.22-12.13,5.35-23.69,16.92-25.81
	c11.57-2.12,22.76,5.99,24.98,18.12C222.27,735.45,214.7,747.01,203.13,749.13z"/>
<path class="st0" d="M116.27,715.82c-1.34-0.29-2.18-1.71-1.86-3.16c0.32-1.46,1.66-2.41,3-2.12c1.34,0.29,2.18,1.71,1.86,3.16
	C118.95,715.16,117.61,716.11,116.27,715.82z"/>
<path class="st0" d="M835.51,783.49c-4.33-2.28-5.42-5.49-3.29-9.66c1.34-2.6,4.31-3.53,7.01-4.01
	c27.83-4.86,52.86-15.97,75.09-33.32c3.97-3.11,7.66-6.5,11.1-10.19c0.12-0.12,0.24-0.13,0.36-0.01h0.01
	c0.11,0.1,0.12,0.21,0.03,0.32c-11,13.83-23.93,26.06-38.81,36.71c-11,7.87-23.02,14.21-36.07,19.04
	C847.03,783.82,839.52,785.59,835.51,783.49z"/>
<path class="st1" d="M397.51,742.6c-1.25,0.77-1.48,1.53-0.69,2.28c0.46,0.44,1.02,0.69,1.7,0.75c1.19,0.1,2.34,0.32,3.48,0.65
	c1.4,0.41,2.91,0.24,4.55-0.51c1.28-0.58,2.64-0.41,3.96-0.21c-8.16,3.03-16.07,5.24-23.7,6.63c-1.23,0.23-2.75,0.39-4.53,0.5
	c-4.77,0.28-10.45-1.71-14.86-3.52c-0.69-0.28-0.97-0.05-0.85,0.68c1.04,6.29,1.46,13,1.28,20.13c-0.01,0.36,0.05,0.73,0.17,1.09
	c0.09,0.26,0,0.43-0.26,0.48l-0.49,0.12c-0.21-0.4-0.36-0.85-0.46-1.34c-1.38-7.16-2.37-14.6-2.95-22.34
	c-0.02-0.35,0.24-0.66,0.59-0.7c1.56-0.15,3.28-0.01,4.77-0.25c8.34-1.36,16.57-2.74,24.69-4.13
	C395.09,742.69,396.3,742.6,397.51,742.6z"/>
<path class="st1" d="M417.49,750.98l0.49,2.3c0.1,0.45-0.09,0.7-0.53,0.76c-10.16,1.44-18.72,4-28.28,5.43
	c-1.12,0.16-2.28,0-3.47-0.49c-1.08-0.45-2.15-0.97-3.23-1.55c0.27-0.54,0.73-0.93,1.35-1.13c4.49-1.5,9.08-3.02,13.77-4.53
	c0.25-0.08,0.29,0.27,0.12,1.02c-0.08,0.37,0.07,0.54,0.45,0.53c3.6-0.08,7.06-0.36,10.4-0.85c1.48-0.22,2.96-0.62,4.44-1.21
	C414.45,750.67,415.93,750.8,417.49,750.98z"/>
<path class="st0" d="M154.71,757.37c-1.52-0.92-1.93-3-0.94-4.63c1-1.64,3.04-2.2,4.55-1.28c1.52,0.92,1.93,3,0.94,4.63
	C158.26,757.72,156.23,758.29,154.71,757.37z"/>
<path class="st0" d="M224.54,759.57c6.59,14.75,12.04,29,24.16,40.36c1.56,1.46,3.48,2.35,5.37,3.28c0.65,0.32,1.13,0.9,1.32,1.61
	c0.73,2.68,1.26,5.4,2.2,8.01c4.7,13.08,10.57,24.95,17.64,35.6c4.72,7.11,9.94,14.11,15.66,21.04c5.3,6.42,10.66,11.98,16.09,16.69
	c2.43,2.1,4.68,4.24,6.75,6.39c0.49,0.51,0.46,0.56-0.11,0.12c-8.13-6.32-16.19-12.56-24.15-18.69
	c-7.23-5.56-15.76-13.41-25.6-23.54c-7.76-7.98-15.02-17.59-21.78-26.51c-4.5-5.95-9.22-13.26-14.14-21.95
	c-6.76-11.93-11.91-24.15-15.47-36.67c-0.6-2.13-1.02-4.22-1.28-6.28c-0.08-0.57,0.16-0.75,0.7-0.57c0.59,0.2,1.4,0.24,1.98,0.05
	c2.13-0.64,4.38-1.32,6.79-2.01C223.31,755.76,223.71,757.71,224.54,759.57z"/>
<path class="st0" d="M584.54,776.73c-0.12,0.13-0.32,0.14-0.45,0.01l-0.03-0.03c-0.12-0.12-0.13-0.32-0.01-0.45l8.46-8.92
	c0.12-0.13,0.32-0.14,0.45-0.01l0.03,0.03c0.12,0.12,0.13,0.32,0.01,0.45L584.54,776.73z"/>
<path class="st0" d="M158.54,777.37c0,2.08-1.68,3.76-3.76,3.76s-3.76-1.68-3.76-3.76c0-2.08,1.68-3.76,3.76-3.76
	S158.54,775.28,158.54,777.37z"/>
<path class="st1" d="M462.88,792.78c-3.85-2.43-7.71-3.32-11.55-2.68c2.57-2.65,5.34-4.78,8.32-6.39c0.32-0.17,0.57-0.1,0.73,0.23
	C461.72,786.64,462.56,789.58,462.88,792.78z"/>
<path class="st0" d="M176.78,787.77c0,1.86-1.51,3.38-3.38,3.38s-3.38-1.51-3.38-3.38c0-1.86,1.51-3.38,3.38-3.38
	S176.78,785.91,176.78,787.77z"/>
<path class="st0" d="M810.16,798.65c-0.53-1.45-0.5-2.93,0.11-4.45c0.2-0.5,0.76-0.75,1.26-0.57c3.99,1.41,7.61,1.54,10.84,0.39
	c0.45-0.15,0.7,0,0.77,0.47l0.05,0.38c0.02,0.16-0.03,0.27-0.17,0.34l-9.58,4.74C812.19,800.59,810.65,799.98,810.16,798.65z"/>
<path class="st0" d="M843.66,797.86c-8.03,4.36-18.41,10.25-27.39,8.6c-3.43-0.62-3.65-1.83-0.66-3.62
	c2.64-1.58,6.27-3.16,9.47-2.52c3.41,0.66,7.52,0.4,12.35-0.78c2.31-0.58,4.34-1.28,6.08-2.09c0.03-0.01,0.08,0.01,0.09,0.04
	l0.11,0.25C843.73,797.79,843.72,797.82,843.66,797.86z"/>
<path class="st0" d="M867.61,816.84c0,4.66-3.78,8.45-8.45,8.45c-4.66,0-8.45-3.78-8.45-8.45c0-4.66,3.78-8.45,8.45-8.45
	C863.83,808.4,867.61,812.18,867.61,816.84z"/>
<path class="st1" d="M467.26,812.8l9.1,4.62c-3.1-0.19-6.3-1.05-9.61-2.58c-0.39-0.19-0.56-0.65-0.36-1.05
	C466.66,813.27,466.94,812.94,467.26,812.8z"/>
<path class="st0" d="M656.64,834.78c-20.96,11.48-43.74,17.64-68.11,19.61c-2.52,0.21-5.21,0.23-8.07,0.08
	c-1.51-0.08-1.54-0.28-0.05-0.61c2.08-0.47,3.83-1.06,5.23-1.75c16.36-8.19,31.78-19.53,43.07-33.84c0.21-0.26,0.51-0.4,0.84-0.39
	c18.37,0.53,36.4-0.37,54.13-2.69c0.29-0.03,0.5,0.13,0.62,0.5c0.08,0.24-0.02,0.51-0.24,0.64c-1.66,0.99-3.19,2.06-4.62,3.19
	C671.96,825.47,664.35,830.56,656.64,834.78z"/>
<path class="st0" d="M206.89,827.38c0,3.74-3.03,6.77-6.77,6.77c-3.74,0-6.77-3.03-6.77-6.77s3.03-6.77,6.77-6.77
	C203.86,820.61,206.89,823.64,206.89,827.38z"/>
<path class="st0" d="M844.96,829.93c0,3.08-2.5,5.58-5.58,5.58c-3.08,0-5.58-2.5-5.58-5.58s2.5-5.58,5.58-5.58
	C842.47,824.35,844.96,826.85,844.96,829.93z"/>
<path class="st0" d="M822.15,832.97c2.62,0.38,7.19,1.97,8.34,4.63c0.39,0.93,0.16,2.01-0.59,2.68c-1.69,1.52-3.57,2.75-5.68,3.71
	c-4.24,1.94-8.41,3.84-12.53,5.68c-1.28,0.58-1.46,0.33-0.54-0.73c3.71-4.29,7.1-9.47,10.17-15.53
	C821.48,833.06,821.77,832.92,822.15,832.97z"/>
<path class="st0" d="M215.78,847.57c0,1.66-1.35,3.01-3.01,3.01s-3.01-1.35-3.01-3.01c0-1.66,1.35-3.01,3.01-3.01
	S215.78,845.91,215.78,847.57z"/>
<path class="st0" d="M800.91,867.43c-1.06,0.06-1.97-0.9-2.03-2.12c-0.06-1.23,0.75-2.27,1.8-2.32c1.06-0.06,1.97,0.9,2.03,2.12
	C802.77,866.35,801.96,867.38,800.91,867.43z"/>
<path class="st0" d="M272.22,877.02c0,6.11-4.96,11.07-11.07,11.07c-6.11,0-11.07-4.96-11.07-11.07c0-6.11,4.96-11.07,11.07-11.07
	C267.26,865.94,272.22,870.9,272.22,877.02z"/>
<path class="st0" d="M290.27,897.86c-0.05,0.59-0.58,1.03-1.17,0.98l-0.67-0.06c-0.59-0.05-1.03-0.58-0.98-1.17l0.09-0.96
	c0.05-0.59,0.58-1.03,1.17-0.98l0.67,0.06c0.59,0.05,1.03,0.58,0.98,1.17L290.27,897.86z"/>
<path class="st0" d="M322.2,908.78c0,2.19-1.78,3.97-3.97,3.97c-2.19,0-3.97-1.78-3.97-3.97c0-2.19,1.78-3.97,3.97-3.97
	C320.42,904.81,322.2,906.59,322.2,908.78z"/>
<path class="st0" d="M299.48,913.91c-1.82-0.26-3.08-2.09-2.79-4.09c0.28-2,1.98-3.42,3.81-3.16c1.82,0.26,3.08,2.09,2.79,4.09
	C303.01,912.74,301.31,914.16,299.48,913.91z"/>
<path class="st0" d="M358.22,922.99c0,1.1-0.88,1.98-1.98,1.98c-1.1,0-1.98-0.88-1.98-1.98s0.88-1.98,1.98-1.98
	C357.34,921.01,358.22,921.89,358.22,922.99z"/>
<path class="st0" d="M451.47,932.54c-1.28,0.29-2.57-0.59-2.89-1.98c-0.32-1.38,0.46-2.74,1.74-3.04c1.28-0.29,2.57,0.59,2.89,1.98
	C453.54,930.88,452.75,932.24,451.47,932.54z"/>
<path class="st0" d="M431.78,937.67c0,1.18-0.95,2.13-2.13,2.13c-1.18,0-2.13-0.95-2.13-2.13c0-1.18,0.95-2.13,2.13-2.13
	C430.83,935.55,431.78,936.49,431.78,937.67z"/>
<path class="st0" d="M473.13,942.04c-0.14,0.89-0.97,1.5-1.85,1.36l-1.08-0.16c-0.88-0.13-1.49-0.96-1.36-1.85l0.19-1.27
	c0.14-0.89,0.97-1.5,1.85-1.36l1.08,0.16c0.88,0.13,1.49,0.96,1.36,1.85L473.13,942.04z"/>
</svg>
