<?xml version="1.0" encoding="UTF-8" standalone="no"?>
<!-- Created with Inkscape (http://www.inkscape.org/) -->
<svg
   xmlns:svg="http://www.w3.org/2000/svg"
   xmlns="http://www.w3.org/2000/svg"
   version="1.0"
   width="902.52716"
   height="401.67416"
   id="svg3647">
  <defs
     id="defs3649" />
  <g
     transform="translate(336.80402,-436.35355)"
     id="layer1">
    <rect
       width="902.52716"
       height="401.67416"
       x="-336.80402"
       y="436.35355"
       id="rect3594"
       style="fill:#000000;fill-opacity:1;fill-rule:nonzero" />
    <path
       d="M -237.9114,762.74407 L -244.27997,762.74407 L -244.27997,784.80466 L -237.75589,784.80466 C -235.21312,784.80466 -233.23024,784.6647 -231.82277,784.37698 C -230.4153,784.08151 -229.24112,783.71604 -228.308,783.27279 C -227.35156,782.82179 -226.48841,782.26968 -225.70304,781.62428 C -223.19914,779.49365 -221.93944,776.8187 -221.93166,773.57608 C -221.93166,770.38791 -223.23025,767.79071 -225.8119,765.77673 C -226.76056,765.03023 -227.85699,764.40815 -229.09339,763.93382 C -230.32201,763.45947 -231.48063,763.1251 -232.58482,762.97735 C -233.68901,762.82184 -235.46973,762.74407 -237.9114,762.74407 z M -249.37327,788.58383 L -249.37327,758.96493 L -237.37485,758.96493 C -232.53817,758.96493 -228.71236,759.57146 -225.88966,760.7923 C -223.06696,761.98981 -220.82747,763.7705 -219.16339,766.12666 C -217.49932,768.46724 -216.65952,771.03333 -216.65952,773.80158 C -216.65952,775.79226 -217.1183,777.6896 -218.04364,779.49365 C -218.95343,781.31324 -220.26758,782.89178 -221.96277,784.2759 C -223.69682,785.69113 -225.70304,786.75646 -228.00474,787.47964 C -229.34222,787.91508 -230.57861,788.21057 -231.69835,788.37387 C -232.8181,788.51383 -234.95651,788.58383 -238.12136,788.58383 L -249.37327,788.58383"
       id="path155"
       style="fill:#ffffff;fill-opacity:1;fill-rule:evenodd;stroke:none" />
    <path
       d="M -237.9114,762.74407 L -244.27997,762.74407 L -244.27997,784.80466 L -237.75589,784.80466 C -235.21312,784.80466 -233.23024,784.6647 -231.82277,784.37698 C -230.4153,784.08151 -229.24112,783.71604 -228.308,783.27279 C -227.35156,782.82179 -226.48841,782.26968 -225.70304,781.62428 C -223.19914,779.49365 -221.93944,776.8187 -221.93166,773.57608 C -221.93166,770.38791 -223.23025,767.79071 -225.8119,765.77673 C -226.76056,765.03023 -227.85699,764.40815 -229.09339,763.93382 C -230.32201,763.45947 -231.48063,763.1251 -232.58482,762.97735 C -233.68901,762.82184 -235.46973,762.74407 -237.9114,762.74407 z M -249.37327,788.58383 L -249.37327,758.96493 L -237.37485,758.96493 C -232.53039,758.96493 -228.70458,759.57146 -225.88188,760.7923 C -223.05918,761.98981 -220.81969,763.7705 -219.15561,766.12666 C -217.49932,768.475 -216.65952,771.03333 -216.65952,773.80936 C -216.65952,775.79226 -217.1183,777.6896 -218.03588,779.49365 C -218.95343,781.31324 -220.25982,782.89954 -221.95499,784.2759 C -223.69682,785.69113 -225.70304,786.75646 -227.99696,787.47964 C -229.34222,787.92286 -230.57083,788.21836 -231.69059,788.37387 C -232.81032,788.51383 -234.95651,788.58383 -238.11357,788.58383 L -249.37327,788.58383 z"
       id="path157"
       style="fill:none;stroke:#ffffff;stroke-width:0.78537905;stroke-linecap:butt;stroke-linejoin:miter;stroke-miterlimit:3.86400008;stroke-dasharray:none;stroke-opacity:1" />
    <path
       d="M -207.27384,758.96493 L -187.09505,758.96493 L -187.09505,762.74407 L -202.18055,762.74407 L -202.18055,771.7876 L -187.60048,771.7876 L -187.60048,775.59008 L -202.18055,775.59008 L -202.18055,784.80466 L -186.61293,784.80466 L -186.61293,788.58383 L -207.27384,788.58383"
       id="path159"
       style="fill:#ffffff;fill-opacity:1;fill-rule:evenodd;stroke:none" />
    <path
       d="M -207.27384,758.96493 L -187.09505,758.96493 L -187.09505,762.74407 L -202.18055,762.74407 L -202.18055,771.7876 L -187.60048,771.7876 L -187.60048,775.59008 L -202.18055,775.59008 L -202.18055,784.80466 L -186.61293,784.80466 L -186.61293,788.58383 L -207.27384,788.58383 L -207.27384,758.96493 z"
       id="path161"
       style="fill:none;stroke:#ffffff;stroke-width:0.78537905;stroke-linecap:butt;stroke-linejoin:miter;stroke-miterlimit:3.86400008;stroke-dasharray:none;stroke-opacity:1" />
    <path
       d="M -169.35792,776.18106 L -173.22262,774.22926 C -175.66428,772.99289 -177.39055,771.7876 -178.42477,770.59787 C -179.45121,769.39258 -179.95664,768.00846 -179.95664,766.46102 C -179.95664,764.12043 -178.98464,762.22309 -177.05619,760.76119 C -175.10442,759.30707 -172.56941,758.58389 -169.45902,758.57613 C -166.48857,758.57613 -163.75919,759.27597 -161.27863,760.66009 L -161.27863,765.48123 C -163.84472,763.4206 -166.60521,762.39416 -169.5601,762.39416 C -171.22417,762.39416 -172.59276,762.72853 -173.66584,763.37393 C -174.73116,764.01157 -175.26771,764.84361 -175.26771,765.83894 C -175.26771,766.73317 -174.87889,767.56521 -174.1013,768.3506 C -173.31591,769.12819 -172.04843,769.94469 -170.3066,770.78449 L -166.40303,772.70517 C -162.05622,774.85136 -159.87895,777.59629 -159.87895,780.93999 C -159.87895,783.31946 -160.83539,785.24791 -162.75608,786.73313 C -164.6612,788.21836 -167.14175,788.96486 -170.19774,788.96486 C -173.71249,788.96486 -176.91622,788.07061 -179.80113,786.26656 L -179.80113,780.87777 C -177.05619,783.77047 -173.86802,785.22458 -170.24439,785.22458 C -168.6503,785.22458 -167.32837,784.85911 -166.27083,784.12037 C -165.19774,783.37389 -164.66898,782.43299 -164.66898,781.31324 C -164.66898,779.50143 -166.23196,777.79847 -169.35792,776.18106"
       id="path163"
       style="fill:#ffffff;fill-opacity:1;fill-rule:evenodd;stroke:none" />
    <path
       d="M -169.35792,776.18106 L -173.22262,774.22926 C -175.66428,772.99289 -177.39055,771.7876 -178.42477,770.59787 C -179.45121,769.39258 -179.95664,768.00846 -179.95664,766.46102 C -179.95664,764.12043 -178.98464,762.22309 -177.05619,760.76119 C -175.10442,759.30707 -172.56941,758.58389 -169.45902,758.57613 C -166.48857,758.57613 -163.75919,759.27597 -161.27863,760.66009 L -161.27863,765.48123 C -163.84472,763.4206 -166.60521,762.39416 -169.5601,762.39416 C -171.22417,762.39416 -172.59276,762.72853 -173.66584,763.37393 C -174.73116,764.01157 -175.26771,764.84361 -175.26771,765.83894 C -175.26771,766.73317 -174.87889,767.56521 -174.1013,768.3506 C -173.31591,769.12819 -172.04843,769.94469 -170.3066,770.78449 L -166.40303,772.70517 C -162.05622,774.85136 -159.87895,777.59629 -159.87895,780.93999 C -159.87895,783.31946 -160.83539,785.24791 -162.75608,786.73313 C -164.6612,788.21836 -167.14175,788.96486 -170.19774,788.96486 C -173.71249,788.96486 -176.91622,788.07061 -179.80113,786.26656 L -179.80113,780.87777 C -177.05619,783.77047 -173.86802,785.22458 -170.24439,785.22458 C -168.6503,785.22458 -167.32837,784.85911 -166.27083,784.12037 C -165.19774,783.37389 -164.66898,782.43299 -164.66898,781.31324 C -164.66898,779.50143 -166.23196,777.79847 -169.35792,776.18106 z"
       id="path165"
       style="fill:none;stroke:#ffffff;stroke-width:0.78537905;stroke-linecap:butt;stroke-linejoin:miter;stroke-miterlimit:3.86400008;stroke-dasharray:none;stroke-opacity:1" />
    <path
       d="M -146.11536,788.63047 L -151.20911,788.63047 L -151.20911,758.97196 L -146.11536,758.97196 L -146.11536,788.63047 z"
       id="path167"
       style="fill:#ffffff;fill-opacity:1;fill-rule:nonzero;stroke:none" />
    <path
       d="M -151.20867,788.62271 L -146.11488,788.62271 L -146.11488,758.96417 L -151.20867,758.96417 L -151.20867,788.62271 z"
       id="path169"
       style="fill:none;stroke:#ffffff;stroke-width:0.78537905;stroke-linecap:butt;stroke-linejoin:miter;stroke-miterlimit:3.86400008;stroke-dasharray:none;stroke-opacity:1" />
    <path
       d="M -115.95992,774.01932 L -104.00817,774.01932 L -104.00817,786.58538 C -108.39385,788.17169 -112.74064,788.96486 -117.05635,788.96486 C -122.95057,788.96486 -127.66285,787.54183 -131.19317,784.68026 C -134.70794,781.80313 -136.4731,778.26503 -136.4731,774.05819 C -136.4731,769.63365 -134.64573,765.9478 -130.99099,763.00068 C -127.34403,760.06134 -122.75617,758.58389 -117.25852,758.58389 C -115.2523,758.58389 -113.35496,758.77053 -111.5587,759.136 C -109.75465,759.49369 -107.47627,760.14687 -104.72357,761.11112 L -104.72357,765.44236 C -108.96928,763.38949 -113.18389,762.36306 -117.3596,762.36306 C -121.25541,762.36306 -124.52911,763.45947 -127.19628,765.67565 C -129.86347,767.88403 -131.19317,770.59009 -131.19317,773.80158 C -131.19317,777.17639 -129.86347,779.92911 -127.19628,782.06752 C -124.52911,784.20591 -121.09988,785.27123 -116.9086,785.27123 C -114.86351,785.27123 -112.4296,784.88244 -109.59136,784.10483 L -109.10147,783.97265 L -109.10147,777.79847 L -115.95992,777.79847"
       id="path171"
       style="fill:#ffffff;fill-opacity:1;fill-rule:evenodd;stroke:none" />
    <path
       d="M -115.95992,774.01932 L -104.00817,774.01932 L -104.00817,786.58538 C -108.39385,788.17169 -112.74064,788.96486 -117.05635,788.96486 C -122.95057,788.96486 -127.66285,787.54183 -131.19317,784.68026 C -134.70794,781.80313 -136.4731,778.26503 -136.4731,774.05819 C -136.4731,769.63365 -134.64573,765.9478 -130.99099,763.00068 C -127.34403,760.06134 -122.75617,758.58389 -117.25852,758.58389 C -115.2523,758.58389 -113.35496,758.77053 -111.5587,759.136 C -109.75465,759.49369 -107.47627,760.14687 -104.72357,761.11112 L -104.72357,765.44236 C -108.96928,763.38949 -113.18389,762.36306 -117.3596,762.36306 C -121.25541,762.36306 -124.52911,763.45947 -127.19628,765.67565 C -129.86347,767.88403 -131.19317,770.59009 -131.19317,773.80158 C -131.19317,777.17639 -129.86347,779.92911 -127.19628,782.06752 C -124.52911,784.20591 -121.09988,785.27123 -116.9086,785.27123 C -114.86351,785.27123 -112.4296,784.88244 -109.59136,784.10483 L -109.10147,783.97265 L -109.10147,777.79847 L -115.95992,777.79847 L -115.95992,774.01932 z"
       id="path173"
       style="fill:none;stroke:#ffffff;stroke-width:0.78537905;stroke-linecap:butt;stroke-linejoin:miter;stroke-miterlimit:3.86400008;stroke-dasharray:none;stroke-opacity:1" />
    <path
       d="M -65.275752,758.96493 L -60.439068,758.96493 L -60.439068,788.62271 L -64.816985,788.62271 L -88.611631,765.80005 L -88.611631,788.62271 L -93.401666,788.62271 L -93.401666,758.96493 L -89.280358,758.96493 L -65.275752,781.9742"
       id="path175"
       style="fill:#ffffff;fill-opacity:1;fill-rule:evenodd;stroke:none" />
    <path
       d="M -65.275752,758.96493 L -60.439068,758.96493 L -60.439068,788.62271 L -64.816985,788.62271 L -88.611631,765.80005 L -88.611631,788.62271 L -93.401666,788.62271 L -93.401666,758.96493 L -89.280358,758.96493 L -65.275752,781.9742 L -65.275752,758.96493 z"
       id="path177"
       style="fill:none;stroke:#ffffff;stroke-width:0.78537905;stroke-linecap:butt;stroke-linejoin:miter;stroke-miterlimit:3.86400008;stroke-dasharray:none;stroke-opacity:1" />
    <path
       d="M -49.801455,758.96493 L -29.62266,758.96493 L -29.62266,762.74407 L -44.708163,762.74407 L -44.708163,771.7876 L -30.128097,771.7876 L -30.128097,775.59008 L -44.708163,775.59008 L -44.708163,784.80466 L -29.140548,784.80466 L -29.140548,788.58383 L -49.801455,788.58383"
       id="path179"
       style="fill:#ffffff;fill-opacity:1;fill-rule:evenodd;stroke:none" />
    <path
       d="M -49.801455,758.96493 L -29.62266,758.96493 L -29.62266,762.74407 L -44.708163,762.74407 L -44.708163,771.7876 L -30.128097,771.7876 L -30.128097,775.59008 L -44.708163,775.59008 L -44.708163,784.80466 L -29.140548,784.80466 L -29.140548,788.58383 L -49.801455,788.58383 L -49.801455,758.96493 z"
       id="path181"
       style="fill:none;stroke:#ffffff;stroke-width:0.78537905;stroke-linecap:butt;stroke-linejoin:miter;stroke-miterlimit:3.86400008;stroke-dasharray:none;stroke-opacity:1" />
    <path
       d="M -9.1794743,762.74407 L -15.548051,762.74407 L -15.548051,784.80466 L -9.0239651,784.80466 C -6.4811991,784.80466 -4.4983206,784.6647 -3.0908514,784.37698 C -1.6833821,784.08151 -0.50919762,783.71604 0.42392042,783.27279 C 1.3803627,782.82179 2.2435079,782.26968 3.0288776,781.62428 C 5.5405375,779.49365 6.7924766,776.8187 6.7924766,773.57608 C 6.7924766,770.38791 5.5016707,767.79071 2.9200169,765.77673 C 1.9713563,765.03023 0.87492642,764.40815 -0.36147014,763.93382 C -1.590085,763.45947 -2.748706,763.1251 -3.8528967,762.97735 C -4.9570875,762.82184 -6.7378081,762.74407 -9.1794743,762.74407 z M -20.641344,788.58383 L -20.641344,758.96493 L -8.6429319,758.96493 C -3.8062481,758.96493 0.019562995,759.57146 2.8422623,760.7923 C 5.6727434,761.98981 7.9122308,763.7705 9.5685274,766.12666 C 11.232606,768.46724 12.072406,771.03333 12.072406,773.80158 C 12.072406,775.79226 11.613618,777.6896 10.688282,779.49365 C 9.7784878,781.31324 8.4720975,782.89178 6.7691524,784.2759 C 5.0351012,785.69113 3.0288776,786.75646 0.72717803,787.47964 C -0.61029743,787.91508 -1.846694,788.21057 -2.9664273,788.37387 C -4.0861815,788.51383 -6.22459,788.58383 -9.381653,788.58383 L -20.641344,788.58383"
       id="path183"
       style="fill:#ffffff;fill-opacity:1;fill-rule:evenodd;stroke:none" />
    <path
       d="M -9.1794743,762.74407 L -15.548051,762.74407 L -15.548051,784.80466 L -9.0239651,784.80466 C -6.4811991,784.80466 -4.4983206,784.6647 -3.0908514,784.37698 C -1.6833821,784.08151 -0.50919762,783.71604 0.42392042,783.27279 C 1.3803627,782.82179 2.2435079,782.26968 3.0288776,781.62428 C 5.5405375,779.49365 6.7924766,776.8187 6.7924766,773.57608 C 6.7924766,770.38791 5.5016707,767.79071 2.9200169,765.77673 C 1.9713563,765.03023 0.87492642,764.40815 -0.36147014,763.93382 C -1.590085,763.45947 -2.748706,763.1251 -3.8528967,762.97735 C -4.9570875,762.82184 -6.7378081,762.74407 -9.1794743,762.74407 z M -20.641344,788.58383 L -20.641344,758.96493 L -8.6429319,758.96493 C -3.7984664,758.96493 0.027344731,759.57146 2.850044,760.7923 C 5.6727434,761.98981 7.9122308,763.7705 9.5763091,766.12666 C 11.240366,768.475 12.072406,771.03333 12.072406,773.80936 C 12.072406,775.79226 11.613618,777.6896 10.696042,779.49365 C 9.7784878,781.31324 8.4720975,782.89954 6.7769341,784.2759 C 5.0351012,785.69113 3.0288776,786.75646 0.73495976,787.47964 C -0.61029743,787.92286 -1.8389123,788.21836 -2.9586665,788.37387 C -4.0783997,788.51383 -6.22459,788.58383 -9.381653,788.58383 L -20.641344,788.58383 z"
       id="path185"
       style="fill:none;stroke:#ffffff;stroke-width:0.78537905;stroke-linecap:butt;stroke-linejoin:miter;stroke-miterlimit:3.86400008;stroke-dasharray:none;stroke-opacity:1" />
    <path
       d="M 29.412959,758.92604 L 59.1485,758.92604 L 59.1485,762.7052 L 46.737949,762.7052 L 46.737949,788.63047 L 41.621332,788.63047 L 41.621332,762.7052 L 29.412959,762.7052"
       id="path187"
       style="fill:#ffffff;fill-opacity:1;fill-rule:evenodd;stroke:none" />
    <path
       d="M 29.412959,758.92604 L 59.1485,758.92604 L 59.1485,762.7052 L 46.737949,762.7052 L 46.737949,788.63047 L 41.621332,788.63047 L 41.621332,762.7052 L 29.412959,762.7052 L 29.412959,758.92604 z"
       id="path189"
       style="fill:none;stroke:#ffffff;stroke-width:0.78537905;stroke-linecap:butt;stroke-linejoin:miter;stroke-miterlimit:3.86400008;stroke-dasharray:none;stroke-opacity:1" />
    <path
       d="M 81.263525,762.573 C 77.188887,762.573 73.829645,763.63832 71.193561,765.76119 C 68.573041,767.88403 67.274453,770.59787 67.274453,773.88712 C 67.274453,777.09085 68.596365,779.75026 71.224667,781.8731 C 73.85297,783.99597 77.157781,785.06127 81.107995,785.06127 C 85.081555,785.06127 88.394148,783.97265 91.045774,781.81091 C 93.712944,779.64916 95.050419,776.95088 95.050419,773.72383 C 95.050419,770.57455 93.712944,767.93846 91.045774,765.80005 C 88.394148,763.65386 85.128203,762.573 81.263525,762.573 z M 81.053565,758.54503 C 86.566779,758.54503 91.139093,759.99136 94.79381,762.89182 C 98.45633,765.79227 100.29146,769.43925 100.29146,773.80158 C 100.29146,778.17172 98.440767,781.80313 94.73938,784.68026 C 91.053556,787.53407 86.395706,788.96486 80.773632,788.96486 C 75.408166,788.96486 70.929191,787.53407 67.352207,784.68026 C 63.790787,781.80313 62.002306,778.2106 62.002306,773.88712 C 62.002306,769.46257 63.80633,765.79227 67.398856,762.89182 C 71.006946,759.99136 75.555915,758.54503 81.053565,758.54503"
       id="path191"
       style="fill:#ffffff;fill-opacity:1;fill-rule:evenodd;stroke:none" />
    <path
       d="M 81.263525,762.573 C 77.188887,762.573 73.829645,763.63832 71.193561,765.76119 C 68.573041,767.88403 67.274453,770.59787 67.274453,773.88712 C 67.274453,777.09085 68.596365,779.75026 71.224667,781.8731 C 73.85297,783.99597 77.157781,785.06127 81.107995,785.06127 C 85.081555,785.06127 88.394148,783.97265 91.045774,781.81091 C 93.712944,779.64916 95.050419,776.95088 95.050419,773.72383 C 95.050419,770.57455 93.712944,767.93846 91.045774,765.80005 C 88.394148,763.65386 85.128203,762.573 81.263525,762.573 z M 81.053565,758.54503 C 86.558997,758.54503 91.139093,759.99136 94.786049,762.8996 C 98.45633,765.80005 100.29146,769.43925 100.29146,773.80936 C 100.29146,778.18728 98.433006,781.80313 94.731619,784.68026 C 91.045774,787.54183 86.395706,788.97262 80.773632,788.97262 C 75.408166,788.97262 70.929191,787.54183 67.352207,784.68026 C 63.775224,781.80313 62.002306,778.21839 62.002306,773.88712 C 62.002306,769.47033 63.790787,765.80005 67.398856,762.8996 C 70.991382,759.99136 75.548133,758.54503 81.053565,758.54503 z"
       id="path193"
       style="fill:none;stroke:#ffffff;stroke-width:0.78537905;stroke-linecap:butt;stroke-linejoin:miter;stroke-miterlimit:3.86400008;stroke-dasharray:none;stroke-opacity:1" />
    <path
       d="M 137.18095,762.7052 L 131.90104,762.7052 L 131.90104,771.98978 L 137.48423,771.98978 C 139.56042,771.98978 141.15451,771.57764 142.27426,770.76894 C 143.394,769.95247 143.95388,768.78604 143.95388,767.26973 C 143.95388,764.22929 141.69883,762.7052 137.18095,762.7052 z M 126.7844,788.63047 L 126.7844,758.92604 L 138.06742,758.92604 C 141.46555,758.92604 144.1716,759.69587 146.20115,761.21998 C 148.21514,762.75185 149.22603,764.80472 149.22603,767.38638 C 149.22603,769.10486 148.71281,770.63676 147.67859,771.96645 C 146.63662,773.29615 145.22136,774.26037 143.41734,774.87469 C 141.62108,775.46566 139.03942,775.76116 135.6724,775.76116 L 131.90104,775.76116 L 131.90104,788.63047 L 126.7844,788.63047"
       id="path195"
       style="fill:#ffffff;fill-opacity:1;fill-rule:evenodd;stroke:none" />
    <path
       d="M 137.18095,762.7052 L 131.90104,762.7052 L 131.90104,771.98978 L 137.48423,771.98978 C 139.56042,771.98978 141.15451,771.57764 142.27426,770.76894 C 143.394,769.95247 143.95388,768.78604 143.95388,767.26973 C 143.95388,764.22929 141.69883,762.7052 137.18095,762.7052 z M 126.7844,788.63047 L 126.7844,758.92604 L 138.06742,758.92604 C 141.46555,758.92604 144.1716,759.69587 146.20115,761.21998 C 148.21514,762.75185 149.22603,764.80472 149.22603,767.37859 C 149.22603,769.10486 148.71281,770.63676 147.67859,771.96645 C 146.63662,773.29615 145.22136,774.26037 143.41734,774.86691 C 141.62108,775.46566 139.03942,775.76116 135.6724,775.76116 L 131.90104,775.76116 L 131.90104,788.63047 L 126.7844,788.63047 z"
       id="path197"
       style="fill:none;stroke:#ffffff;stroke-width:0.78537905;stroke-linecap:butt;stroke-linejoin:miter;stroke-miterlimit:3.86400008;stroke-dasharray:none;stroke-opacity:1" />
    <path
       d="M 163.45617,762.573 L 161.92428,762.573 L 161.92428,771.93535 L 163.86829,771.93535 C 166.44216,771.93535 168.2151,771.74871 169.16376,771.38324 C 170.13576,771.02555 170.88227,770.47345 171.41105,769.72694 C 171.95537,768.98046 172.21974,768.13286 172.21974,767.17642 C 172.21974,766.25106 171.92427,765.41126 171.32551,764.65697 C 170.73452,763.89493 169.89472,763.35839 168.80607,763.04735 C 167.74075,762.73631 165.95227,762.573 163.45617,762.573 z M 156.83098,788.63047 L 156.83098,758.96493 L 165.75787,758.96493 C 169.3504,758.96493 172.2042,759.70365 174.3115,761.19665 C 176.44213,762.6741 177.49967,764.69586 177.49967,767.22306 C 177.49967,768.94936 176.97867,770.44234 175.94448,771.70206 C 174.90248,772.96178 173.41725,773.90268 171.48102,774.53254 C 172.61632,775.14684 173.72829,776.0022 174.82472,777.07531 C 175.90559,778.14839 177.43746,780.02241 179.41258,782.69736 C 180.64119,784.39255 181.63652,785.65227 182.39079,786.50763 L 184.27259,788.63047 L 178.20729,788.63047 L 176.65209,786.67092 C 176.59766,786.60093 176.50434,786.48431 176.34881,786.31323 L 175.36126,785.14681 L 173.78272,782.97732 L 172.07199,780.66783 C 171.01447,779.44698 170.05023,778.48276 169.16376,777.7596 C 168.29285,777.02864 167.50748,776.51542 166.79985,776.20438 C 166.10001,775.8778 164.92583,775.71449 163.25399,775.71449 L 161.92428,775.71449 L 161.92428,788.63047 L 156.83098,788.63047"
       id="path199"
       style="fill:#ffffff;fill-opacity:1;fill-rule:evenodd;stroke:none" />
    <path
       d="M 163.45617,762.573 L 161.92428,762.573 L 161.92428,771.93535 L 163.86829,771.93535 C 166.44216,771.93535 168.2151,771.74871 169.16376,771.38324 C 170.13576,771.02555 170.88227,770.47345 171.41105,769.72694 C 171.95537,768.98046 172.21974,768.13286 172.21974,767.17642 C 172.21974,766.25106 171.92427,765.41126 171.32551,764.65697 C 170.73452,763.89493 169.89472,763.35839 168.80607,763.04735 C 167.74075,762.73631 165.95227,762.573 163.45617,762.573 z M 156.83098,788.63047 L 156.83098,758.97271 L 165.74231,758.97271 C 169.3504,758.97271 172.2042,759.71143 174.30372,761.19665 C 176.42659,762.68188 177.49189,764.69586 177.49189,767.23085 C 177.49189,768.94936 176.97091,770.45012 175.94448,771.70984 C 174.90248,772.96178 173.41725,773.91046 171.48102,774.53254 C 172.61632,775.15462 173.72829,776.00998 174.81694,777.08307 C 175.89781,778.15617 177.4297,780.03019 179.4048,782.70514 C 180.64119,784.39255 181.63652,785.66003 182.39079,786.50763 L 184.27259,788.63047 L 178.20729,788.63047 L 176.65209,786.6787 C 176.59766,786.60093 176.50434,786.48431 176.34881,786.31323 L 175.34572,785.14681 L 173.77496,782.98508 L 172.06423,780.66783 C 171.01447,779.45476 170.04247,778.48276 169.16376,777.7596 C 168.29285,777.0442 167.50748,776.5232 166.79209,776.20438 C 166.10001,775.88556 164.91805,775.72227 163.25399,775.72227 L 161.92428,775.72227 L 161.92428,788.63047 L 156.83098,788.63047 z"
       id="path201"
       style="fill:none;stroke:#ffffff;stroke-width:0.78537905;stroke-linecap:butt;stroke-linejoin:miter;stroke-miterlimit:3.86400008;stroke-dasharray:none;stroke-opacity:1" />
    <path
       d="M 205.75777,762.573 C 201.68313,762.573 198.32389,763.63832 195.68781,765.76119 C 193.08283,767.88403 191.76868,770.59787 191.76868,773.88712 C 191.76868,777.09085 193.09061,779.75026 195.71891,781.8731 C 198.34722,783.99597 201.65203,785.06127 205.60224,785.06127 C 209.5758,785.06127 212.89615,783.97265 215.54002,781.81091 C 218.20719,779.64916 219.54466,776.95088 219.54466,773.72383 C 219.54466,770.57455 218.20719,767.93846 215.54002,765.80005 C 212.89615,763.65386 209.63801,762.573 205.75777,762.573 z M 205.55559,758.54503 C 211.06102,758.54503 215.63332,759.99136 219.28806,762.89182 C 222.95058,765.79227 224.78571,769.43925 224.78571,773.80158 C 224.78571,778.17172 222.93501,781.80313 219.23363,784.68026 C 215.54778,787.53407 210.89771,788.96486 205.26788,788.96486 C 199.91019,788.96486 195.42342,787.53407 191.84645,784.68026 C 188.28503,781.80313 186.49653,778.2106 186.49653,773.88712 C 186.49653,769.46257 188.30058,765.79227 191.90088,762.89182 C 195.50119,759.99136 200.05016,758.54503 205.55559,758.54503"
       id="path203"
       style="fill:#ffffff;fill-opacity:1;fill-rule:evenodd;stroke:none" />
    <path
       d="M 205.75777,762.573 C 201.68313,762.573 198.32389,763.63832 195.68781,765.76119 C 193.08283,767.88403 191.76868,770.59787 191.76868,773.88712 C 191.76868,777.09085 193.09061,779.75026 195.71891,781.8731 C 198.34722,783.99597 201.65203,785.06127 205.60224,785.06127 C 209.5758,785.06127 212.89615,783.97265 215.54002,781.81091 C 218.20719,779.64916 219.54466,776.95088 219.54466,773.72383 C 219.54466,770.57455 218.20719,767.93846 215.54002,765.80005 C 212.89615,763.65386 209.63801,762.573 205.75777,762.573 z M 205.55559,758.54503 C 211.06102,758.54503 215.63332,759.99136 219.28027,762.8996 C 222.95058,765.80005 224.78571,769.43925 224.78571,773.80936 C 224.78571,778.18728 222.93501,781.80313 219.23363,784.68026 C 215.54778,787.54183 210.89771,788.97262 205.27566,788.97262 C 199.91019,788.97262 195.4312,787.54183 191.84645,784.68026 C 188.27725,781.80313 186.50431,778.21839 186.50431,773.88712 C 186.50431,769.47033 188.29279,765.80005 191.90088,762.8996 C 195.49341,759.99136 200.04238,758.54503 205.55559,758.54503 z"
       id="path205"
       style="fill:none;stroke:#ffffff;stroke-width:0.78537905;stroke-linecap:butt;stroke-linejoin:miter;stroke-miterlimit:3.86400008;stroke-dasharray:none;stroke-opacity:1" />
    <path
       d="M 227.63173,758.92604 L 257.35951,758.92604 L 257.35951,762.7052 L 244.95674,762.7052 L 244.95674,788.63047 L 239.83232,788.63047 L 239.83232,762.7052 L 227.63173,762.7052"
       id="path207"
       style="fill:#ffffff;fill-opacity:1;fill-rule:evenodd;stroke:none" />
    <path
       d="M 227.63173,758.92604 L 257.35951,758.92604 L 257.35951,762.7052 L 244.95674,762.7052 L 244.95674,788.63047 L 239.83232,788.63047 L 239.83232,762.7052 L 227.63173,762.7052 L 227.63173,758.92604 z"
       id="path209"
       style="fill:none;stroke:#ffffff;stroke-width:0.78537905;stroke-linecap:butt;stroke-linejoin:miter;stroke-miterlimit:3.86400008;stroke-dasharray:none;stroke-opacity:1" />
    <path
       d="M 265.18997,758.96493 L 285.37654,758.96493 L 285.37654,762.74407 L 270.28326,762.74407 L 270.28326,771.7876 L 284.86332,771.7876 L 284.86332,775.59008 L 270.28326,775.59008 L 270.28326,784.80466 L 285.85087,784.80466 L 285.85087,788.58383 L 265.18997,788.58383"
       id="path211"
       style="fill:#ffffff;fill-opacity:1;fill-rule:evenodd;stroke:none" />
    <path
       d="M 265.18997,758.96493 L 285.37654,758.96493 L 285.37654,762.74407 L 270.28326,762.74407 L 270.28326,771.7876 L 284.86332,771.7876 L 284.86332,775.59008 L 270.28326,775.59008 L 270.28326,784.80466 L 285.85087,784.80466 L 285.85087,788.58383 L 265.18997,788.58383 L 265.18997,758.96493 z"
       id="path213"
       style="fill:none;stroke:#ffffff;stroke-width:0.78537905;stroke-linecap:butt;stroke-linejoin:miter;stroke-miterlimit:3.86400008;stroke-dasharray:none;stroke-opacity:1" />
    <path
       d="M 324.97209,781.7487 L 324.97209,786.41431 C 321.23959,788.11726 316.92389,788.96486 312.02499,788.96486 C 308.05922,788.96486 304.68441,788.30389 301.91616,786.97418 C 299.14789,785.64448 296.95506,783.81712 295.34541,781.47653 C 293.728,779.13594 292.91928,776.60874 292.91928,773.8949 C 292.91928,769.57143 294.76222,765.9478 298.45582,763.00068 C 302.14943,760.06134 306.71396,758.58389 312.13385,758.58389 C 315.86635,758.58389 320.01876,759.40039 324.59884,761.02558 L 324.59884,765.59787 C 320.43088,763.60721 316.36402,762.61967 312.39046,762.61967 C 308.31583,762.61967 304.92548,763.69275 302.21942,765.84672 C 299.53669,767.97735 298.19921,770.66008 298.19921,773.8949 C 298.19921,777.15306 299.52115,779.82801 302.17277,781.91977 C 304.81662,784.01929 308.20696,785.06127 312.34382,785.06127 C 316.65174,785.06127 320.86634,783.95708 324.97209,781.7487"
       id="path215"
       style="fill:#ffffff;fill-opacity:1;fill-rule:evenodd;stroke:none" />
    <path
       d="M 324.97209,781.7487 L 324.97209,786.41431 C 321.23959,788.11726 316.92389,788.96486 312.02499,788.96486 C 308.05922,788.96486 304.68441,788.30389 301.91616,786.97418 C 299.14789,785.64448 296.95506,783.81712 295.34541,781.47653 C 293.728,779.13594 292.91928,776.60874 292.91928,773.8949 C 292.91928,769.57143 294.76222,765.9478 298.45582,763.00068 C 302.14943,760.06134 306.71396,758.58389 312.13385,758.58389 C 315.86635,758.58389 320.01876,759.40039 324.59884,761.02558 L 324.59884,765.59787 C 320.43088,763.60721 316.36402,762.61967 312.39046,762.61967 C 308.31583,762.61967 304.92548,763.69275 302.21942,765.84672 C 299.53669,767.97735 298.19921,770.66008 298.19921,773.8949 C 298.19921,777.15306 299.52115,779.82801 302.17277,781.91977 C 304.81662,784.01929 308.20696,785.06127 312.34382,785.06127 C 316.65174,785.06127 320.86634,783.95708 324.97209,781.7487 z"
       id="path217"
       style="fill:none;stroke:#ffffff;stroke-width:0.78537905;stroke-linecap:butt;stroke-linejoin:miter;stroke-miterlimit:3.86400008;stroke-dasharray:none;stroke-opacity:1" />
    <path
       d="M 331.224,758.92604 L 360.95954,758.92604 L 360.95954,762.7052 L 348.54901,762.7052 L 348.54901,788.63047 L 343.43237,788.63047 L 343.43237,762.7052 L 331.224,762.7052"
       id="path219"
       style="fill:#ffffff;fill-opacity:1;fill-rule:evenodd;stroke:none" />
    <path
       d="M 331.224,758.92604 L 360.95954,758.92604 L 360.95954,762.7052 L 348.54901,762.7052 L 348.54901,788.63047 L 343.43237,788.63047 L 343.43237,762.7052 L 331.224,762.7052 L 331.224,758.92604 z"
       id="path221"
       style="fill:none;stroke:#ffffff;stroke-width:0.78537905;stroke-linecap:butt;stroke-linejoin:miter;stroke-miterlimit:3.86400008;stroke-dasharray:none;stroke-opacity:1" />
    <path
       d="M 399.89414,758.96493 L 406.06052,758.96493 L 392.91125,772.93846 L 392.91125,788.62271 L 387.68577,788.62271 L 387.68577,772.93846 L 374.54428,758.96493 L 380.71066,758.96493 L 390.24408,769.1904"
       id="path223"
       style="fill:#ffffff;fill-opacity:1;fill-rule:evenodd;stroke:none" />
    <path
       d="M 399.89414,758.96493 L 406.06052,758.96493 L 392.91125,772.93846 L 392.91125,788.62271 L 387.68577,788.62271 L 387.68577,772.93846 L 374.54428,758.96493 L 380.71066,758.96493 L 390.24408,769.1904 L 399.89414,758.96493 z"
       id="path225"
       style="fill:none;stroke:#ffffff;stroke-width:0.78537905;stroke-linecap:butt;stroke-linejoin:miter;stroke-miterlimit:3.86400008;stroke-dasharray:none;stroke-opacity:1" />
    <path
       d="M 426.51149,762.573 C 422.43685,762.573 419.07761,763.63832 416.44152,765.76119 C 413.83655,767.88403 412.52242,770.59787 412.52242,773.88712 C 412.52242,777.09085 413.84433,779.75026 416.46485,781.8731 C 419.10093,783.99597 422.40574,785.06127 426.35596,785.06127 C 430.32952,785.06127 433.64987,783.97265 436.3015,781.81091 C 438.96091,779.64916 440.29838,776.95088 440.29838,773.72383 C 440.29838,770.57455 438.96091,767.93846 436.3015,765.80005 C 433.64987,763.65386 430.39173,762.573 426.51149,762.573 z M 426.30153,758.54503 C 431.81474,758.54503 436.38703,759.99136 440.04177,762.89182 C 443.70429,765.79227 445.53942,769.43925 445.53942,773.80158 C 445.53942,778.17172 443.68873,781.80313 439.98734,784.68026 C 436.3015,787.53407 431.65143,788.96486 426.02938,788.96486 C 420.66391,788.96486 416.18491,787.53407 412.60017,784.68026 C 409.03875,781.80313 407.25025,778.2106 407.25025,773.88712 C 407.25025,769.46257 409.05429,765.79227 412.64682,762.89182 C 416.25491,759.99136 420.81166,758.54503 426.30153,758.54503"
       id="path227"
       style="fill:#ffffff;fill-opacity:1;fill-rule:evenodd;stroke:none" />
    <path
       d="M 426.51149,762.573 C 422.43685,762.573 419.07761,763.63832 416.44152,765.76119 C 413.83655,767.88403 412.52242,770.59787 412.52242,773.88712 C 412.52242,777.09085 413.84433,779.75026 416.46485,781.8731 C 419.10093,783.99597 422.40574,785.06127 426.35596,785.06127 C 430.32952,785.06127 433.64987,783.97265 436.3015,781.81091 C 438.96091,779.64916 440.29838,776.95088 440.29838,773.72383 C 440.29838,770.57455 438.96091,767.93846 436.3015,765.80005 C 433.64987,763.65386 430.39173,762.573 426.51149,762.573 z M 426.30153,758.54503 C 431.80696,758.54503 436.38703,759.99136 440.03399,762.8996 C 443.70429,765.80005 445.53942,769.43925 445.53942,773.80936 C 445.53942,778.18728 443.68873,781.80313 439.97956,784.68026 C 436.29374,787.54183 431.64367,788.97262 426.02159,788.97262 C 420.65613,788.97262 416.17713,787.54183 412.60017,784.68026 C 409.03097,781.80313 407.25025,778.21839 407.25025,773.88712 C 407.25025,769.47033 409.03875,765.80005 412.64682,762.8996 C 416.24713,759.99136 420.7961,758.54503 426.30153,758.54503 z"
       id="path229"
       style="fill:none;stroke:#ffffff;stroke-width:0.78537905;stroke-linecap:butt;stroke-linejoin:miter;stroke-miterlimit:3.86400008;stroke-dasharray:none;stroke-opacity:1" />
    <path
       d="M 479.56734,758.96493 L 484.69174,758.96493 L 484.69174,775.80002 C 484.69174,778.08618 484.48957,779.79691 484.07743,780.95555 C 483.68085,782.12195 483.19874,783.08618 482.59998,783.86378 C 482.01679,784.63359 481.31694,785.32566 480.45381,785.92442 C 477.63888,787.96175 473.95305,788.96486 469.40406,788.96486 C 464.76956,788.96486 461.04483,787.96175 458.24547,785.94774 C 457.39787,785.32566 456.66693,784.63359 456.07596,783.86378 C 455.50053,783.08618 455.01841,782.14528 454.6296,781.02552 C 454.24859,779.90577 454.06195,778.15617 454.06195,775.76116 L 454.06195,758.96493 L 459.18637,758.96493 L 459.18637,775.80002 C 459.18637,778.58386 459.56738,780.52787 460.32943,781.61649 C 461.09926,782.71292 462.2579,783.58383 463.82088,784.25258 C 465.38385,784.90576 467.22679,785.22458 469.35741,785.22458 C 472.37451,785.22458 474.83174,784.5714 476.73686,783.24947 C 477.73998,782.54185 478.47091,781.70981 478.91416,780.75337 C 479.3496,779.78913 479.56734,778.14061 479.56734,775.80002"
       id="path231"
       style="fill:#ffffff;fill-opacity:1;fill-rule:evenodd;stroke:none" />
    <path
       d="M 479.56734,758.96493 L 484.69174,758.96493 L 484.69174,775.80002 C 484.69174,778.08618 484.48957,779.79691 484.07743,780.95555 C 483.68085,782.12195 483.19874,783.08618 482.59998,783.86378 C 482.01679,784.63359 481.31694,785.32566 480.45381,785.92442 C 477.63888,787.96175 473.95305,788.96486 469.40406,788.96486 C 464.76956,788.96486 461.04483,787.96175 458.24547,785.94774 C 457.39787,785.32566 456.66693,784.63359 456.07596,783.86378 C 455.50053,783.08618 455.01841,782.14528 454.6296,781.02552 C 454.24859,779.90577 454.06195,778.15617 454.06195,775.76116 L 454.06195,758.96493 L 459.18637,758.96493 L 459.18637,775.80002 C 459.18637,778.58386 459.56738,780.52787 460.32943,781.61649 C 461.09926,782.71292 462.2579,783.58383 463.82088,784.25258 C 465.38385,784.90576 467.22679,785.22458 469.35741,785.22458 C 472.37451,785.22458 474.83174,784.5714 476.73686,783.24947 C 477.73998,782.54185 478.47091,781.70981 478.91416,780.75337 C 479.3496,779.78913 479.56734,778.14061 479.56734,775.80002 L 479.56734,758.96493 z"
       id="path233"
       style="fill:none;stroke:#ffffff;stroke-width:0.78537905;stroke-linecap:butt;stroke-linejoin:miter;stroke-miterlimit:3.86400008;stroke-dasharray:none;stroke-opacity:1" />
    <path
       d="M 365.71847,607.09129 C 332.42929,588.79427 195.85888,521.25169 195.85888,521.25169 C 195.85888,521.25947 194.43587,520.59072 192.46853,519.34657 C 31.232546,502.99356 -111.41095,562.86122 -161.97069,607.16905 C -0.61807917,546.22052 185.39234,545.88616 365.71847,607.09129"
       id="path235"
       style="fill:#0066b3;fill-opacity:1;fill-rule:evenodd;stroke:none" />
    <path
       d="M 181.20106,506.71051 C 178.42503,497.46481 185.74227,484.72767 227.14962,471.21293 C 267.08731,458.1803 104.8871,469.92988 -45.991208,534.86751 C 11.411439,515.47411 88.495227,500.09311 181.20106,506.71051"
       id="path245"
       style="fill:#ed1c24;fill-opacity:1;fill-rule:evenodd;stroke:none" />
    <path
       d="M 384.68422,675.52034 C 384.68422,688.10975 384.35763,696.76446 383.36228,706.65557 C 387.64688,706.39118 389.52868,706.11125 394.64532,706.11125 C 400.0963,706.11125 402.50688,706.51561 405.92834,706.65557 C 404.93301,696.76446 404.6064,688.10975 404.6064,675.52034 L 404.6064,660.24044 C 404.6064,647.65106 404.93301,638.98856 405.92834,629.10522 C 402.93456,629.37739 400.0963,629.61843 394.64532,629.61843 C 389.19432,629.61843 386.90816,629.41626 383.36228,629.10522 C 384.35763,638.98856 384.68422,647.65106 384.68422,660.24044"
       id="path247"
       style="fill:#ffffff;fill-opacity:1;fill-rule:evenodd;stroke:none" />
    <path
       d="M 418.25333,665.88584 C 418.25333,688.81737 416.35599,703.40519 415.67948,706.66335 C 417.69346,706.32897 420.62502,706.11903 422.62346,706.11903 C 424.63747,706.11903 427.49904,706.32897 429.63744,706.66335 C 429.23309,702.50318 428.9998,698.34301 428.9998,680.35703 C 428.9998,671.92782 429.08534,666.74899 429.67633,659.04294 C 438.79762,669.42394 464.80842,700.10816 470.74154,706.57782 C 472.88773,706.22011 475.20499,706.11903 477.93437,706.11903 C 480.60154,706.11903 483.41648,706.33675 485.14275,706.66335 C 485.14275,676.6712 485.14275,661.81899 487.28116,629.10522 C 485.27493,629.44736 483.08988,629.61843 481.07589,629.61843 C 479.06967,629.61843 476.8224,629.44736 474.82396,629.10522 C 475.75708,634.16742 474.80842,665.1238 474.80842,683.00089 C 474.77731,683.00865 440.46945,642.20784 430.20509,629.30739 C 428.19889,629.64178 425.93606,629.61843 423.92983,629.61843 C 421.92363,629.61843 419.69969,629.44736 417.69346,629.10522 C 417.98896,635.04611 418.25333,655.76923 418.25333,665.88584"
       id="path249"
       style="fill:#ffffff;fill-opacity:1;fill-rule:evenodd;stroke:none" />
    <path
       d="M 21.699125,706.58558 C 26.115929,706.66335 29.57625,706.64001 30.454938,706.64001 C 52.03342,706.60114 74.101797,694.06619 76.372411,671.24353 C 78.308641,651.60906 65.936977,629.113 28.262099,629.113 C 13.71316,629.113 4.9262406,629.634 -2.3443486,629.634 C -7.7953502,629.634 -13.098604,629.3385 -16.737778,629.113 C -15.742448,639.00411 -15.415867,647.65884 -15.415867,660.24823 L -15.415867,675.53591 C -15.415867,688.12529 -15.742448,696.77225 -16.737778,706.66335 C -13.098604,706.43785 -7.7953502,706.11903 -2.3443486,706.11903 C 1.4970051,706.11903 6.9713311,706.27454 12.033539,706.50004 C 11.574751,704.35387 10.657176,684.00401 10.657176,677.93869 L 10.571639,658.00096 C 10.571639,651.92788 10.571639,638.1332 10.73493,636.00255 C 13.977529,635.78483 17.033514,635.52822 19.926207,635.72262 C 38.775287,636.93569 53.417565,651.27469 53.417565,668.43639 C 53.417565,686.75671 38.790851,701.08017 28.021053,703.73179 C 26.061478,704.15948 24.070818,704.4083 22.017946,704.47052"
       id="path251"
       style="fill:#ffffff;fill-opacity:1;fill-rule:evenodd;stroke:none" />
    <path
       d="M 305.53201,675.52034 C 305.53201,688.10975 305.20541,696.76446 304.21008,706.65557 C 307.84926,706.43007 311.92389,706.11125 338.86784,706.11125 C 354.06999,706.11125 367.58473,706.53893 373.54117,706.65557 C 373.2068,705.31032 372.8802,704.17502 372.8802,701.81889 C 372.87242,699.56384 373.2068,698.33522 373.54117,696.76446 C 360.81182,697.77534 340.62524,698.22636 328.23801,698.22636 C 327.90365,693.72404 327.68593,690.39589 327.68593,685.67584 C 327.68593,680.84692 327.74812,680.04599 327.90365,677.14553 C 340.46193,677.14553 360.31414,677.4799 372.8802,678.15643 C 372.38255,675.79252 372.21923,671.07245 372.8802,668.49082 C 360.31414,668.94183 342.2893,669.16733 327.90365,669.39283 C 327.90365,661.18134 327.90365,645.73037 328.73569,637.53445 C 333.68901,637.53445 360.98289,638.31982 373.54117,638.8797 C 373.2068,637.1923 372.84909,635.98701 372.8802,633.82528 C 372.8802,631.79573 373.2068,630.45047 373.54117,629.10522 C 369.07773,629.4396 355.04977,629.61843 338.86784,629.61843 C 329.4433,629.61843 317.8259,629.61843 304.21008,629.10522 C 305.20541,638.98856 305.53201,647.65106 305.53201,660.24044"
       id="path253"
       style="fill:#ffffff;fill-opacity:1;fill-rule:evenodd;stroke:none" />
    <path
       d="M -203.67353,685.5281 C -192.26612,666.76453 -181.00642,646.48466 -172.4139,629.06635 C -172.4139,629.06635 -164.98778,629.06635 -157.90383,629.113 L -153.73587,629.113 C -137.04074,629.113 -130.92878,630.11611 -125.14341,632.93103 C -118.53379,636.18919 -114.40472,641.13473 -114.40472,647.7677 C -114.40472,658.66192 -123.65043,665.62923 -140.01895,668.44415 C -129.44355,681.1502 -116.87749,693.96509 -104.81687,706.65557 C -109.87907,706.35232 -116.72974,706.11125 -121.69085,706.11125 C -126.65196,706.11125 -133.5804,706.43007 -138.54929,706.65557 C -139.98009,706.65557 -169.46678,670.91695 -169.46678,670.91695 L -168.99245,666.31353 C -154.45127,666.31353 -142.91165,660.80033 -142.70168,650.24047 C -142.54618,642.48777 -146.65968,636.2203 -161.90847,635.58265 C -173.47923,654.26068 -191.72179,683.78626 -203.17588,706.65557 C -205.65643,706.43007 -211.99388,706.11125 -217.14941,706.11125 C -220.70305,706.11125 -228.79789,706.43007 -231.10738,706.65557 C -241.35617,687.441 -265.15084,646.29802 -275.89731,629.113 C -270.76513,629.44736 -258.94555,629.62622 -254.14776,629.62622 C -249.35772,629.62622 -237.88029,629.44736 -233.09025,629.113 C -225.64859,645.84701 -213.75906,666.76453 -203.67353,685.5281"
       id="path255"
       style="fill:#ffffff;fill-opacity:1;fill-rule:nonzero;stroke:none" />
    <path
       d="M 125.99903,706.11125 C 99.062866,706.11125 86.800063,706.43007 83.176431,706.65557 C 84.156218,696.76446 84.498364,688.11751 84.498364,675.52034 L 84.498364,660.24044 C 84.498364,647.65106 84.156218,638.99633 83.176431,629.113 C 92.919792,629.22186 110.25256,629.62622 120.00371,629.62622 C 136.1934,629.62622 152.39087,629.44736 156.85431,629.113 C 156.51994,630.45825 156.1778,632.12233 156.1778,634.1441 C 156.1778,636.50801 156.51994,637.2856 156.85431,638.8797 C 144.29603,638.31982 114.73934,637.53445 109.77823,637.53445 C 108.94619,645.73815 108.94619,661.18913 108.94619,669.40062 C 123.04413,669.17511 142.82635,668.95737 155.4313,668.52193 L 156.18558,668.49082 C 155.96008,669.90605 155.82787,676.38349 156.18558,678.15643 C 143.63506,677.48768 121.51226,677.15332 108.94619,677.15332 C 108.90731,681.36792 108.90731,679.64165 108.90731,684.47055 C 108.90731,689.19838 109.05506,693.13305 109.38942,697.62761 C 121.6289,697.62761 151.37222,697.30879 155.96008,697.51097 L 176.83094,697.51873 C 189.72359,697.51873 196.09216,696.39121 197.26635,689.45499 C 200.23678,671.95114 161.3333,677.23107 164.50593,651.3991 C 166.80763,632.64331 187.24303,629.37739 206.90861,629.37739 C 216.59756,629.37739 242.69391,629.39293 256.95515,629.39293 C 277.44499,629.39293 283.16814,629.44736 297.20388,629.113 C 296.76842,630.52823 296.51181,631.67909 296.52737,633.28095 C 296.5507,635.2094 296.78398,635.95591 297.28164,637.65109 C 288.01261,637.12231 275.49319,637.2856 268.21484,637.45667 C 267.88048,639.03521 267.88048,643.07875 267.88048,647.34778 L 267.88048,675.44259 C 267.88048,688.03197 268.21484,696.68671 269.20239,706.57782 C 265.571,706.35232 261.49634,706.11125 256.03758,706.11125 C 250.58658,706.11125 246.56637,706.35232 242.92719,706.57782 C 243.92252,696.68671 244.2491,688.03197 244.2491,675.44259 L 244.25689,647.45666 C 244.25689,643.18761 244.14803,639.03521 243.65037,637.46445 C 238.43265,637.46445 234.72349,637.37892 224.54466,637.2856 C 224.54466,637.2856 218.12943,637.20784 203.65823,637.04455 C 194.0004,636.94345 189.23369,639.54065 187.97399,644.45511 C 183.50276,661.9123 225.36114,657.8221 221.38758,685.73806 C 218.87594,703.32744 195.53228,706.29786 169.47482,706.34453 C 169.47482,706.34453 141.01454,706.11125 125.99903,706.11125"
       id="path257"
       style="fill:#ffffff;fill-opacity:1;fill-rule:nonzero;stroke:none" />
    <path
       d="M -101.32544,675.52034 C -101.32544,688.10975 -101.65202,696.76446 -102.64735,706.65557 C -99.008177,706.43007 -91.084403,706.11125 -64.140455,706.11125 C -48.938331,706.11125 -31.582214,706.53893 -25.625776,706.65557 C -25.960161,705.31032 -26.294525,704.17502 -26.294525,701.81889 C -26.294525,699.46274 -25.960161,698.33522 -25.625776,696.76446 C -38.355149,697.77534 -60.804538,698.22636 -73.199526,698.22636 C -73.53391,693.72404 -73.689419,688.89512 -73.689419,684.17508 C -73.689419,679.33837 -73.658313,679.63387 -73.53391,677.14553 C -60.97561,677.14553 -38.852804,677.4799 -26.294525,678.15643 C -26.792179,675.79252 -26.947709,671.07245 -26.294525,668.49082 C -38.852804,668.94183 -59.156023,669.16733 -73.53391,669.39283 C -73.53391,661.18134 -73.53391,645.73037 -72.709653,637.53445 C -67.748545,637.53445 -38.184076,638.31982 -25.625776,638.8797 C -25.960161,637.1923 -26.263419,635.94812 -26.294525,633.82528 C -26.294525,631.79573 -25.960161,630.45047 -25.625776,629.10522 C -30.08923,629.4396 -47.94298,629.61843 -64.140455,629.61843 C -73.891598,629.61843 -91.247694,629.22964 -102.64735,629.10522 C -101.65202,638.98856 -101.32544,647.65106 -101.32544,660.24044"
       id="path259"
       style="fill:#ffffff;fill-opacity:1;fill-rule:evenodd;stroke:none" />
  </g>
</svg>
